<svg xmlns="http://www.w3.org/2000/svg" width="68" height="68" viewBox="0 0 68 68">
  <g id="Group_19103" data-name="Group 19103" transform="translate(-655 -2546)">
    <rect id="Rectangle_5089" data-name="Rectangle 5089" width="68" height="68" transform="translate(655 2546)" fill="#1664f7" opacity="0"/>
    <g id="Group_19102" data-name="Group 19102" transform="translate(-63.974 16.011)">
      <path id="Path_99918" data-name="Path 99918" d="M227.349,130.407a12.941,12.941,0,0,1,12.936,13.027,13.238,13.238,0,0,1-2.569,7.8,10.412,10.412,0,0,0-2.294,6.7v3.486a1.351,1.351,0,0,1-1.376,1.376H220.561a1.375,1.375,0,0,1-1.376-1.468V157.93a10.411,10.411,0,0,0-2.294-6.7,13.234,13.234,0,0,1-2.569-7.8,12.96,12.96,0,0,1,13.027-13.027Zm0,2.661a10.416,10.416,0,0,0-10.368,10.368,9.978,9.978,0,0,0,2.11,6.147,13.7,13.7,0,0,1,2.844,8.349v2.11h10.826v-2.11a13.619,13.619,0,0,1,2.752-8.349,9.978,9.978,0,0,0,2.11-6.147,10.337,10.337,0,0,0-10.276-10.368Z" transform="translate(525.322 2419.742)" fill="#1664f7"/>
      <path id="Path_99919" data-name="Path 99919" d="M336.1,1.376A1.351,1.351,0,0,1,337.476,0a1.333,1.333,0,0,1,1.285,1.376V7.615a1.333,1.333,0,0,1-1.285,1.376A1.351,1.351,0,0,1,336.1,7.615Z" transform="translate(415.195 2537.672)" fill="#1664f7"/>
      <path id="Path_99920" data-name="Path 99920" d="M446.583,46.284a1.387,1.387,0,1,1,2.294,1.56l-3.67,5.138a1.311,1.311,0,0,1-1.835.275A1.242,1.242,0,0,1,443,51.421l3.578-5.138Z" transform="translate(318.75 2496.343)" fill="#1664f7"/>
      <path id="Path_99921" data-name="Path 99921" d="M518.364,165.987a1.359,1.359,0,0,1,1.743.826,1.542,1.542,0,0,1-.826,1.743l-5.963,2.11a1.234,1.234,0,0,1-1.652-.826,1.356,1.356,0,0,1,.734-1.743Z" transform="translate(256.51 2387.649)" fill="#1664f7"/>
      <path id="Path_99922" data-name="Path 99922" d="M523.693,302.213a1.412,1.412,0,0,1,1.009,1.652,1.368,1.368,0,0,1-1.652,1.009L517,303.222a1.368,1.368,0,0,1-1.009-1.652,1.313,1.313,0,0,1,1.652-.918l6.055,1.56Z" transform="translate(252.557 2265.827)" fill="#1664f7"/>
      <path id="Path_99923" data-name="Path 99923" d="M462.205,400.128a1.412,1.412,0,0,1-.184,1.927,1.268,1.268,0,0,1-1.927-.184l-4.037-4.771a1.369,1.369,0,0,1,2.11-1.743Z" transform="translate(306.98 2180.573)" fill="#1664f7"/>
      <path id="Path_99924" data-name="Path 99924" d="M191.724,47.843A1.424,1.424,0,0,1,192,45.917a1.442,1.442,0,0,1,1.927.367l3.578,5.138a1.3,1.3,0,0,1-.275,1.835,1.424,1.424,0,0,1-1.927-.275l-3.578-5.138Z" transform="translate(545.993 2496.343)" fill="#1664f7"/>
      <path id="Path_99925" data-name="Path 99925" d="M100.172,168.556a1.359,1.359,0,0,1-.826-1.743,1.326,1.326,0,0,1,1.743-.826l5.872,2.11a1.364,1.364,0,1,1-.918,2.569Z" transform="translate(629.38 2387.649)" fill="#1664f7"/>
      <path id="Path_99926" data-name="Path 99926" d="M94.377,304.878a1.368,1.368,0,0,1-1.652-1.009,1.283,1.283,0,0,1,.918-1.652l6.055-1.56a1.336,1.336,0,1,1,.734,2.569l-6.055,1.652Z" transform="translate(635.357 2265.823)" fill="#1664f7"/>
      <path id="Path_99927" data-name="Path 99927" d="M176.25,401.872a1.268,1.268,0,0,1-1.927.183,1.412,1.412,0,0,1-.184-1.927l4.037-4.771a1.369,1.369,0,1,1,2.11,1.743Z" transform="translate(561.926 2180.572)" fill="#1664f7"/>
      <path id="Path_99928" data-name="Path 99928" d="M266.513,488.822a1.333,1.333,0,0,1-1.376-1.285,1.351,1.351,0,0,1,1.376-1.376h13.578a1.279,1.279,0,0,1,1.285,1.376,1.254,1.254,0,0,1-1.285,1.285Z" transform="translate(479.369 2098.026)" fill="#1664f7"/>
      <path id="Path_99929" data-name="Path 99929" d="M266.513,534.852a1.351,1.351,0,0,1-1.376-1.376,1.333,1.333,0,0,1,1.376-1.285h13.578a1.254,1.254,0,0,1,1.285,1.285,1.279,1.279,0,0,1-1.285,1.376Z" transform="translate(479.369 2056.4)" fill="#1664f7"/>
    </g>
  </g>
</svg>
