<svg xmlns="http://www.w3.org/2000/svg" width="68" height="68" viewBox="0 0 68 68">
  <g id="Group_19106" data-name="Group 19106" transform="translate(-649 -2828)">
    <rect id="Rectangle_5092" data-name="Rectangle 5092" width="68" height="68" transform="translate(649 2828)" fill="#1664f7" opacity="0"/>
    <g id="noun-responsive-design-3093137" transform="translate(588.002 2837)">
      <path id="Path_99933" data-name="Path 99933" d="M114.526,0H75.175A5.183,5.183,0,0,0,70,5.177V32.1a5.184,5.184,0,0,0,5.177,5.177H88.637v6.213H87.6a5.184,5.184,0,0,0-5.177,5.177,1.036,1.036,0,0,0,1.036,1.036H95.886a1.035,1.035,0,0,0,0-2.071H84.672A3.113,3.113,0,0,1,87.6,45.563H98.993V46.6a3.106,3.106,0,0,0,3.107,3.107h14.5A3.106,3.106,0,0,0,119.7,46.6V5.178A5.184,5.184,0,0,0,114.526,0Zm3.107,20.71H101.064V19.675a1.035,1.035,0,0,1,1.036-1.036h14.5a1.036,1.036,0,0,1,1.036,1.036ZM72.246,33.136h23.64a1.035,1.035,0,0,0,0-2.071H72.069V5.177a3.107,3.107,0,0,1,3.107-3.107h39.35a3.107,3.107,0,0,1,3.107,3.107V16.758a3.071,3.071,0,0,0-1.036-.19H102.1a3.106,3.106,0,0,0-3.107,3.107V35.207H75.176a3.113,3.113,0,0,1-2.929-2.071ZM90.708,43.492V37.279h8.284v6.213ZM117.631,46.6h0a1.036,1.036,0,0,1-1.036,1.036H102.1a1.036,1.036,0,0,1-1.036-1.036V43.492h13.462a1.035,1.035,0,0,0,0-2.071H101.063V22.781h16.569V46.6Z" fill="#1664f7"/>
      <path id="Path_99934" data-name="Path 99934" d="M493.107,501.67h-2.071a1.035,1.035,0,1,0,0,2.071h2.071a1.035,1.035,0,1,0,0-2.071Z" transform="translate(-382.723 -457.143)" fill="#1664f7"/>
      <path id="Path_99935" data-name="Path 99935" d="M117.7,54.952h39.35a1.035,1.035,0,0,0,1.035-1.036V47.7a1.035,1.035,0,0,0-1.035-1.035H117.7a1.035,1.035,0,0,0-1.035,1.035v6.213a1.035,1.035,0,0,0,1.035,1.036Zm1.036-6.213h37.279v4.142H118.737Z" transform="translate(-42.526 -42.526)" fill="#1664f7"/>
      <path id="Path_99936" data-name="Path 99936" d="M125.99,163.33h-8.284a1.036,1.036,0,0,0-1.035,1.036v12.426a1.035,1.035,0,0,0,1.035,1.036h8.284a1.035,1.035,0,0,0,1.035-1.036V164.366a1.035,1.035,0,0,0-1.035-1.036Zm-1.036,12.426h-6.213V165.4h6.213Z" transform="translate(-42.529 -148.833)" fill="#1664f7"/>
      <path id="Path_99937" data-name="Path 99937" d="M267.021,163.33H257.7a1.036,1.036,0,0,0,0,2.071h9.32a1.036,1.036,0,0,0,0-2.071Z" transform="translate(-170.1 -148.833)" fill="#1664f7"/>
      <path id="Path_99938" data-name="Path 99938" d="M257.7,210a1.035,1.035,0,0,0,0,2.071h6.213a1.035,1.035,0,1,0,0-2.071Z" transform="translate(-170.1 -191.361)" fill="#1664f7"/>
      <path id="Path_99939" data-name="Path 99939" d="M263.914,303.33H257.7a1.036,1.036,0,0,0,0,2.071h6.213a1.036,1.036,0,0,0,0-2.071Z" transform="translate(-170.1 -276.407)" fill="#1664f7"/>
      <path id="Path_99940" data-name="Path 99940" d="M265.99,256.67h-8.284a1.035,1.035,0,0,0,0,2.071h8.284a1.035,1.035,0,0,0,0-2.071Z" transform="translate(-170.103 -233.888)" fill="#1664f7"/>
      <path id="Path_99941" data-name="Path 99941" d="M454.723,280H444.368a1.036,1.036,0,0,0-1.036,1.036v4.142h0a1.036,1.036,0,0,0,1.036,1.036h10.355a1.035,1.035,0,0,0,1.035-1.036v-4.142A1.035,1.035,0,0,0,454.723,280Zm-1.036,4.142H445.4v-2.071h8.284Z" transform="translate(-340.198 -255.148)" fill="#1664f7"/>
      <path id="Path_99942" data-name="Path 99942" d="M454.723,373.33H444.368a1.036,1.036,0,0,0,0,2.071h10.355a1.036,1.036,0,0,0,0-2.071Z" transform="translate(-340.198 -340.194)" fill="#1664f7"/>
      <path id="Path_99943" data-name="Path 99943" d="M452.65,420h-8.284a1.035,1.035,0,1,0,0,2.071h8.284a1.035,1.035,0,1,0,0-2.071Z" transform="translate(-340.196 -382.721)" fill="#1664f7"/>
    </g>
  </g>
</svg>
