<svg xmlns="http://www.w3.org/2000/svg" width="68" height="68" viewBox="0 0 68 68">
  <g id="Group_19104" data-name="Group 19104" transform="translate(-1011 -2553)">
    <rect id="Rectangle_5090" data-name="Rectangle 5090" width="68" height="68" transform="translate(1011 2553)" fill="#1664f7" opacity="0"/>
    <path id="Path_99930" data-name="Path 99930" d="M144.262,33.112a6.714,6.714,0,0,0-9.473,0l-2.242,2.27L130.409,37.5h-23.19A6.11,6.11,0,0,0,101.11,43.6v26.55a6.11,6.11,0,0,0,6.109,6.109h26.55a6.11,6.11,0,0,0,6.109-6.109V46.964l2.138-2.138,2.246-2.242h0a6.714,6.714,0,0,0,0-9.473Zm-7.2,37.043a3.289,3.289,0,0,1-3.289,3.289H107.22a3.289,3.289,0,0,1-3.289-3.289V43.605a3.289,3.289,0,0,1,3.289-3.289H127.59L113.079,54.827a1.34,1.34,0,0,0-.221.291.693.693,0,0,0-.042.08,1.481,1.481,0,0,0-.108.273v.047l-2.251,9.708a1.409,1.409,0,0,0,1.377,1.724,1.425,1.425,0,0,0,.315-.033l9.718-2.246h.047a1.481,1.481,0,0,0,.273-.108l.07-.047a1.346,1.346,0,0,0,.282-.211l14.52-14.52Zm-22.18-11.537,3.877,3.877-5.042,1.165Zm6.673,2.688-5.484-5.484,17.466-17.476,5.493,5.493Zm20.714-20.718-1.245,1.25-5.484-5.484,1.25-1.245a3.875,3.875,0,0,1,5.479,5.479Z" transform="translate(920.89 2532.844)" fill="#1664f7"/>
  </g>
</svg>
