<svg xmlns="http://www.w3.org/2000/svg" width="68" height="68" viewBox="0 0 68 68">
  <g id="Group_19107" data-name="Group 19107" transform="translate(-1015 -2828)">
    <rect id="Rectangle_5093" data-name="Rectangle 5093" width="68" height="68" transform="translate(1015 2828)" fill="#1664f7" opacity="0"/>
    <path id="Path_99944" data-name="Path 99944" d="M230.345,36.667l-10.163,2.255.395-19.614h0a1.766,1.766,0,0,0-3.356-.8l-15.9,33.233a1.766,1.766,0,0,0,1.937,2.491l9.686-2.149-.589,18.813a1.767,1.767,0,0,0,3.339.86l16.593-32.532a1.766,1.766,0,0,0-1.943-2.556ZM216.131,63.093l.43-13.172h0a1.766,1.766,0,0,0-2.149-1.767l-8.362,1.837,10.834-22.6L216.608,41.1a1.767,1.767,0,0,0,2.149,1.767l8.679-1.932Z" transform="translate(831.849 2816.49)" fill="#1664f7"/>
  </g>
</svg>
