<svg xmlns="http://www.w3.org/2000/svg" width="1633.64" height="1160.735" viewBox="0 0 1633.64 1160.735">
  <g id="Group_19950" data-name="Group 19950" transform="translate(-2338.165 605.074)">
    <path id="Path_104635" data-name="Path 104635" d="M2828.06-520.776l5.5,66.107,5.5,66.107-60-28.294-60-28.294,54.5-37.813Z" fill="none" stroke="#fff" stroke-width="1"/>
    <path id="Path_104636" data-name="Path 104636" d="M2835.364-216.411l-39.277,40.1-39.277,40.1-15.087-54.064-15.087-54.064L2781-230.377Z" fill="none" stroke="#fff" stroke-width="1"/>
    <g id="Group_19865" data-name="Group 19865">
      <path id="Path_104637" data-name="Path 104637" d="M2985.464-356.792l-4.1,65.116-4.1,65.116-54.341-36.111-54.341-36.111,58.443-29.005Z" fill="none" stroke="#fff" stroke-width="1"/>
    </g>
    <g id="Group_19866" data-name="Group 19866">
      <path id="Path_104638" data-name="Path 104638" d="M3073.258-87.39l-44.6,31.894L2984.048-23.6l-5.319-54.576-5.319-54.576,49.924,22.682Z" fill="none" stroke="#fff" stroke-width="1"/>
    </g>
    <g id="Group_19867" data-name="Group 19867">
      <path id="Path_104639" data-name="Path 104639" d="M2592.648-242.3l-31.23,48.608-31.23,48.608-26.48-51.35-26.48-51.35,57.711,2.742Z" fill="none" stroke="#fff" stroke-width="1"/>
    </g>
    <g id="Group_19868" data-name="Group 19868">
      <path id="Path_104640" data-name="Path 104640" d="M2576.548-361.095l-29.477,24.2-29.477,24.2-6.223-37.63-6.223-37.63,35.7,13.425Z" fill="none" stroke="#fff" stroke-width="1"/>
    </g>
    <g id="Group_19869" data-name="Group 19869">
      <path id="Path_104641" data-name="Path 104641" d="M2449.537-164.486,2454-127.219l4.461,37.268-34.505-14.77-34.506-14.77,30.044-22.5Z" fill="none" stroke="#fff" stroke-width="1"/>
    </g>
    <g id="Group_19870" data-name="Group 19870">
      <path id="Path_104642" data-name="Path 104642" d="M2980.27-604.1l11.008,36.518,11.008,36.518-37.13-8.726-37.13-8.726,26.122-27.792Z" fill="none" stroke="#fff" stroke-width="1"/>
    </g>
    <g id="Group_19871" data-name="Group 19871">
      <path id="Path_104643" data-name="Path 104643" d="M2688.124-562.182l-1.135,27.118-1.135,27.118-22.918-14.542-22.918-14.542,24.053-12.576Z" fill="none" stroke="#fff" stroke-width="1"/>
    </g>
    <g id="Group_19872" data-name="Group 19872">
      <path id="Path_104644" data-name="Path 104644" d="M3018.936-451.356l-1.135,27.118-1.135,27.118-22.918-14.542L2970.831-426.2l24.052-12.576Z" fill="none" stroke="#fff" stroke-width="1"/>
    </g>
    <g id="Group_19873" data-name="Group 19873">
      <path id="Path_104645" data-name="Path 104645" d="M2487.974-499.191l-1.135,27.118-1.135,27.118L2462.787-459.5l-22.918-14.542,24.053-12.576Z" fill="none" stroke="#fff" stroke-width="1"/>
    </g>
    <g id="Group_19874" data-name="Group 19874">
      <path id="Path_104646" data-name="Path 104646" d="M2554.548-463.506l13-3-25,40,47-49-16,2,34-38-25,3Z" fill="none" stroke="#fff" stroke-width="1"/>
    </g>
    <g id="Group_19875" data-name="Group 19875">
      <path id="Path_104647" data-name="Path 104647" d="M2764.44-313.066l9.785-2.258-18.817,30.108,35.377-36.882-12.043,1.505,25.592-28.6-18.817,2.258Z" fill="none" stroke="#fff" stroke-width="1"/>
    </g>
    <g id="Group_19876" data-name="Group 19876">
      <path id="Path_104648" data-name="Path 104648" d="M3046.614-512.991l9.785-2.258-18.818,30.108,35.377-36.882-12.043,1.505,25.592-28.6-18.818,2.258Z" fill="none" stroke="#fff" stroke-width="1"/>
    </g>
    <g id="Group_19877" data-name="Group 19877">
      <path id="Path_104649" data-name="Path 104649" d="M2398.6-511.9l12.946-2.988-24.9,39.835,46.806-48.8-15.934,1.992,33.86-37.844-24.9,2.988Z" fill="none" stroke="#fff" stroke-width="1"/>
    </g>
    <g id="Group_19878" data-name="Group 19878">
      <path id="Path_104650" data-name="Path 104650" d="M3067.424-382.85l16.505-3.809-31.74,50.785,59.672-62.211-20.314,2.539,43.167-48.245-31.74,3.809Z" fill="none" stroke="#fff" stroke-width="1"/>
    </g>
    <g id="Group_19879" data-name="Group 19879">
      <path id="Path_104651" data-name="Path 104651" d="M2783.865-556.852l9.785-2.258L2774.833-529l35.377-36.882-12.043,1.505,25.592-28.6-18.817,2.258Z" fill="none" stroke="#fff" stroke-width="1"/>
    </g>
    <g id="Group_19880" data-name="Group 19880">
      <path id="Path_104652" data-name="Path 104652" d="M2624.3-329.781l18.686-4.312L2607.048-276.6l67.555-70.43-23,2.875,48.87-54.619-35.934,4.312Z" fill="none" stroke="#fff" stroke-width="1"/>
    </g>
    <g id="Group_19881" data-name="Group 19881">
      <path id="Path_104653" data-name="Path 104653" d="M2357.089-274.813l20.042-4.625-38.543,61.669,72.461-75.545-24.668,3.083,52.419-58.586-38.543,4.625Z" fill="none" stroke="#fff" stroke-width="1"/>
    </g>
    <g id="Group_19882" data-name="Group 19882">
      <path id="Path_104654" data-name="Path 104654" d="M2549.669-75.7l26.958-6.221L2524.785,1.024l97.463-101.61-33.179,4.147,70.5-78.8-51.842,6.221Z" fill="none" stroke="#fff" stroke-width="1"/>
    </g>
    <g id="Group_19883" data-name="Group 19883">
      <path id="Path_104655" data-name="Path 104655" d="M2901.356-449.725l12.672-2.924-24.369,38.99,45.813-47.763-15.6,1.949,33.142-37.041-24.369,2.924Z" fill="none" stroke="#fff" stroke-width="1"/>
    </g>
    <g id="Group_19884" data-name="Group 19884">
      <path id="Path_104656" data-name="Path 104656" d="M2865.089-131.316l14.156-3.267-27.223,43.557,51.179-53.357-17.423,2.178,37.023-41.379-27.223,3.267Z" fill="none" stroke="#fff" stroke-width="1"/>
    </g>
    <g id="Group_19885" data-name="Group 19885">
      <path id="Path_104657" data-name="Path 104657" d="M3057.878-201.455l17.767-4.1-34.168,54.669,64.236-66.97-21.868,2.734,46.469-51.936-34.168,4.1Z" fill="none" stroke="#fff" stroke-width="1"/>
    </g>
    <path id="Path_104658" data-name="Path 104658" d="M3663.9-520.776l5.5,66.107,5.5,66.107-60-28.294-60-28.294,54.5-37.813Z" fill="none" stroke="#fff" stroke-width="1"/>
    <path id="Path_104659" data-name="Path 104659" d="M3671.2-216.411l-39.277,40.1-39.277,40.1-15.087-54.064-15.087-54.064,54.364,13.966Z" fill="none" stroke="#fff" stroke-width="1"/>
    <g id="Group_19886" data-name="Group 19886">
      <path id="Path_104660" data-name="Path 104660" d="M3821.3-356.792l-4.1,65.116-4.1,65.116-54.341-36.111-54.341-36.111,58.443-29.005Z" fill="none" stroke="#fff" stroke-width="1"/>
    </g>
    <g id="Group_19887" data-name="Group 19887">
      <path id="Path_104661" data-name="Path 104661" d="M3909.093-87.39,3864.488-55.5l-44.6,31.894-5.319-54.576-5.319-54.576,49.924,22.682Z" fill="none" stroke="#fff" stroke-width="1"/>
    </g>
    <g id="Group_19888" data-name="Group 19888">
      <path id="Path_104662" data-name="Path 104662" d="M3428.483-242.3l-31.23,48.608-31.23,48.608-26.48-51.35-26.48-51.35,57.71,2.742Z" fill="none" stroke="#fff" stroke-width="1"/>
    </g>
    <g id="Group_19889" data-name="Group 19889">
      <path id="Path_104663" data-name="Path 104663" d="M3412.383-361.095l-29.477,24.2-29.477,24.2-6.223-37.63-6.223-37.63,35.7,13.425Z" fill="none" stroke="#fff" stroke-width="1"/>
    </g>
    <g id="Group_19890" data-name="Group 19890">
      <path id="Path_104664" data-name="Path 104664" d="M3285.372-164.486l4.461,37.268,4.461,37.268-34.506-14.77-34.505-14.77,30.044-22.5Z" fill="none" stroke="#fff" stroke-width="1"/>
    </g>
    <g id="Group_19891" data-name="Group 19891">
      <path id="Path_104665" data-name="Path 104665" d="M3816.105-604.1l11.008,36.518,11.008,36.518-37.129-8.726-37.13-8.726,26.122-27.792Z" fill="none" stroke="#fff" stroke-width="1"/>
    </g>
    <g id="Group_19892" data-name="Group 19892">
      <path id="Path_104666" data-name="Path 104666" d="M3523.958-562.182l-1.135,27.118-1.135,27.118-22.918-14.542-22.918-14.542,24.053-12.576Z" fill="none" stroke="#fff" stroke-width="1"/>
    </g>
    <g id="Group_19893" data-name="Group 19893">
      <path id="Path_104667" data-name="Path 104667" d="M3854.771-451.356l-1.135,27.118-1.135,27.118-22.918-14.542L3806.666-426.2l24.053-12.576Z" fill="none" stroke="#fff" stroke-width="1"/>
    </g>
    <g id="Group_19894" data-name="Group 19894">
      <path id="Path_104668" data-name="Path 104668" d="M3323.809-499.191l-1.135,27.118-1.135,27.118L3298.622-459.5,3275.7-474.038l24.052-12.576Z" fill="none" stroke="#fff" stroke-width="1"/>
    </g>
    <g id="Group_19895" data-name="Group 19895">
      <path id="Path_104669" data-name="Path 104669" d="M3390.383-463.506l13-3-25,40,47-49-16,2,34-38-25,3Z" fill="none" stroke="#fff" stroke-width="1"/>
    </g>
    <g id="Group_19896" data-name="Group 19896">
      <path id="Path_104670" data-name="Path 104670" d="M3600.275-313.066l9.785-2.258-18.818,30.108L3626.62-322.1l-12.043,1.505,25.592-28.6-18.818,2.258Z" fill="none" stroke="#fff" stroke-width="1"/>
    </g>
    <g id="Group_19897" data-name="Group 19897">
      <path id="Path_104671" data-name="Path 104671" d="M3882.449-512.991l9.785-2.258-18.817,30.108,35.377-36.882-12.043,1.505,25.592-28.6-18.817,2.258Z" fill="none" stroke="#fff" stroke-width="1"/>
    </g>
    <g id="Group_19898" data-name="Group 19898">
      <path id="Path_104672" data-name="Path 104672" d="M3234.431-511.9l12.947-2.988-24.9,39.835,46.806-48.8-15.934,1.992,33.86-37.844-24.9,2.988Z" fill="none" stroke="#fff" stroke-width="1"/>
    </g>
    <g id="Group_19899" data-name="Group 19899">
      <path id="Path_104673" data-name="Path 104673" d="M3903.259-382.85l16.5-3.809-31.74,50.785,59.672-62.211-20.314,2.539,43.167-48.245-31.74,3.809Z" fill="none" stroke="#fff" stroke-width="1"/>
    </g>
    <g id="Group_19900" data-name="Group 19900">
      <path id="Path_104674" data-name="Path 104674" d="M3619.7-556.852l9.785-2.258L3610.668-529l35.377-36.882L3634-564.379l25.592-28.6-18.817,2.258Z" fill="none" stroke="#fff" stroke-width="1"/>
    </g>
    <g id="Group_19901" data-name="Group 19901">
      <path id="Path_104675" data-name="Path 104675" d="M3460.131-329.781l18.686-4.312L3442.883-276.6l67.555-70.43-23,2.875,48.87-54.619-35.934,4.312Z" fill="none" stroke="#fff" stroke-width="1"/>
    </g>
    <g id="Group_19902" data-name="Group 19902">
      <path id="Path_104676" data-name="Path 104676" d="M3192.924-274.813l20.042-4.625-38.543,61.669,72.461-75.545-24.668,3.083,52.419-58.586-38.543,4.625Z" fill="none" stroke="#fff" stroke-width="1"/>
    </g>
    <g id="Group_19903" data-name="Group 19903">
      <path id="Path_104677" data-name="Path 104677" d="M3385.5-75.7l26.958-6.221L3360.62,1.024l97.463-101.61L3424.9-96.439l70.505-78.8-51.842,6.221Z" fill="none" stroke="#fff" stroke-width="1"/>
    </g>
    <g id="Group_19904" data-name="Group 19904">
      <path id="Path_104678" data-name="Path 104678" d="M3737.192-449.725l12.672-2.924-24.369,38.99,45.813-47.763-15.6,1.949,33.142-37.041-24.369,2.924Z" fill="none" stroke="#fff" stroke-width="1"/>
    </g>
    <g id="Group_19905" data-name="Group 19905">
      <path id="Path_104679" data-name="Path 104679" d="M3700.924-131.316l14.156-3.267-27.223,43.557,51.179-53.357-17.423,2.178,37.023-41.379-27.223,3.267Z" fill="none" stroke="#fff" stroke-width="1"/>
    </g>
    <g id="Group_19906" data-name="Group 19906">
      <path id="Path_104680" data-name="Path 104680" d="M3893.713-201.455l17.768-4.1-34.168,54.669,64.236-66.97-21.868,2.734,46.469-51.936-34.168,4.1Z" fill="none" stroke="#fff" stroke-width="1"/>
    </g>
    <path id="Path_104681" data-name="Path 104681" d="M2828.06,33.515l5.5,66.107,5.5,66.107-60-28.294-60-28.294,54.5-37.813Z" fill="none" stroke="#fff" stroke-width="1"/>
    <path id="Path_104682" data-name="Path 104682" d="M2835.364,337.88l-39.277,40.1-39.277,40.1-15.087-54.064-15.087-54.064L2781,323.914Z" fill="none" stroke="#fff" stroke-width="1"/>
    <g id="Group_19907" data-name="Group 19907">
      <path id="Path_104683" data-name="Path 104683" d="M2985.464,197.5l-4.1,65.116-4.1,65.116-54.341-36.111-54.341-36.111,58.443-29.005Z" fill="none" stroke="#fff" stroke-width="1"/>
    </g>
    <g id="Group_19908" data-name="Group 19908">
      <path id="Path_104684" data-name="Path 104684" d="M3073.258,466.9l-44.6,31.894-44.605,31.894-5.319-54.576-5.319-54.576,49.924,22.682Z" fill="none" stroke="#fff" stroke-width="1"/>
    </g>
    <g id="Group_19909" data-name="Group 19909">
      <path id="Path_104685" data-name="Path 104685" d="M2592.648,312l-31.23,48.608-31.23,48.608-26.48-51.35-26.48-51.35,57.711,2.742Z" fill="none" stroke="#fff" stroke-width="1"/>
    </g>
    <g id="Group_19910" data-name="Group 19910">
      <path id="Path_104686" data-name="Path 104686" d="M2576.548,193.2l-29.477,24.2-29.477,24.2-6.223-37.63-6.223-37.63,35.7,13.426Z" fill="none" stroke="#fff" stroke-width="1"/>
    </g>
    <g id="Group_19911" data-name="Group 19911">
      <path id="Path_104687" data-name="Path 104687" d="M2449.537,389.805,2454,427.073l4.461,37.268-34.505-14.77-34.506-14.77,30.044-22.5Z" fill="none" stroke="#fff" stroke-width="1"/>
    </g>
    <g id="Group_19912" data-name="Group 19912">
      <path id="Path_104688" data-name="Path 104688" d="M2980.27-49.809l11.008,36.518,11.008,36.518-37.13-8.726-37.13-8.726,26.122-27.792Z" fill="none" stroke="#fff" stroke-width="1"/>
    </g>
    <g id="Group_19913" data-name="Group 19913">
      <path id="Path_104689" data-name="Path 104689" d="M2688.124-7.89l-1.135,27.118-1.135,27.118L2662.936,31.8l-22.918-14.542,24.053-12.576Z" fill="none" stroke="#fff" stroke-width="1"/>
    </g>
    <g id="Group_19914" data-name="Group 19914">
      <path id="Path_104690" data-name="Path 104690" d="M3018.936,102.936l-1.135,27.118-1.135,27.118-22.918-14.542-22.918-14.542,24.052-12.576Z" fill="none" stroke="#fff" stroke-width="1"/>
    </g>
    <g id="Group_19915" data-name="Group 19915">
      <path id="Path_104691" data-name="Path 104691" d="M2487.974,55.1l-1.135,27.118-1.135,27.119L2462.787,94.8l-22.918-14.542,24.053-12.576Z" fill="none" stroke="#fff" stroke-width="1"/>
    </g>
    <g id="Group_19916" data-name="Group 19916">
      <path id="Path_104692" data-name="Path 104692" d="M2554.548,90.785l13-3-25,40,47-49-16,2,34-38-25,3Z" fill="none" stroke="#fff" stroke-width="1"/>
    </g>
    <g id="Group_19917" data-name="Group 19917">
      <path id="Path_104693" data-name="Path 104693" d="M2764.44,241.225l9.785-2.258-18.817,30.108,35.377-36.882-12.043,1.505,25.592-28.6-18.817,2.258Z" fill="none" stroke="#fff" stroke-width="1"/>
    </g>
    <g id="Group_19918" data-name="Group 19918">
      <path id="Path_104694" data-name="Path 104694" d="M3046.614,41.3l9.785-2.258L3037.582,69.15l35.377-36.882-12.043,1.505,25.592-28.6-18.818,2.258Z" fill="none" stroke="#fff" stroke-width="1"/>
    </g>
    <g id="Group_19919" data-name="Group 19919">
      <path id="Path_104695" data-name="Path 104695" d="M2398.6,42.395l12.946-2.988-24.9,39.835,46.806-48.8-15.934,1.992,33.86-37.844-24.9,2.988Z" fill="none" stroke="#fff" stroke-width="1"/>
    </g>
    <g id="Group_19920" data-name="Group 19920">
      <path id="Path_104696" data-name="Path 104696" d="M3067.424,171.442l16.505-3.809-31.74,50.785,59.672-62.211-20.314,2.539,43.167-48.245-31.74,3.809Z" fill="none" stroke="#fff" stroke-width="1"/>
    </g>
    <g id="Group_19921" data-name="Group 19921">
      <path id="Path_104697" data-name="Path 104697" d="M2783.865-2.561l9.785-2.258-18.817,30.108,35.377-36.882-12.043,1.505,25.592-28.6-18.817,2.258Z" fill="none" stroke="#fff" stroke-width="1"/>
    </g>
    <g id="Group_19922" data-name="Group 19922">
      <path id="Path_104698" data-name="Path 104698" d="M2624.3,224.511l18.686-4.312-35.934,57.494,67.555-70.43-23,2.875,48.87-54.619-35.934,4.312Z" fill="none" stroke="#fff" stroke-width="1"/>
    </g>
    <g id="Group_19923" data-name="Group 19923">
      <path id="Path_104699" data-name="Path 104699" d="M2357.089,279.478l20.042-4.625-38.543,61.669,72.461-75.545-24.668,3.083,52.419-58.586-38.543,4.625Z" fill="none" stroke="#fff" stroke-width="1"/>
    </g>
    <g id="Group_19924" data-name="Group 19924">
      <path id="Path_104700" data-name="Path 104700" d="M2549.669,478.589l26.958-6.221-51.842,82.947,97.463-101.61-33.179,4.147,70.5-78.8-51.842,6.221Z" fill="none" stroke="#fff" stroke-width="1"/>
    </g>
    <g id="Group_19925" data-name="Group 19925">
      <path id="Path_104701" data-name="Path 104701" d="M2901.356,104.566l12.672-2.924-24.369,38.99,45.813-47.763-15.6,1.95,33.142-37.041L2928.65,60.7Z" fill="none" stroke="#fff" stroke-width="1"/>
    </g>
    <g id="Group_19926" data-name="Group 19926">
      <path id="Path_104702" data-name="Path 104702" d="M2865.089,422.975l14.156-3.267-27.223,43.557,51.179-53.357-17.423,2.178,37.023-41.379-27.223,3.267Z" fill="none" stroke="#fff" stroke-width="1"/>
    </g>
    <g id="Group_19927" data-name="Group 19927">
      <path id="Path_104703" data-name="Path 104703" d="M3057.878,352.837l17.767-4.1-34.168,54.669,64.236-66.97-21.868,2.733,46.469-51.936-34.168,4.1Z" fill="none" stroke="#fff" stroke-width="1"/>
    </g>
    <path id="Path_104704" data-name="Path 104704" d="M3663.9,33.515l5.5,66.107,5.5,66.107-60-28.294-60-28.294,54.5-37.813Z" fill="none" stroke="#fff" stroke-width="1"/>
    <path id="Path_104705" data-name="Path 104705" d="M3671.2,337.88l-39.277,40.1-39.277,40.1-15.087-54.064-15.087-54.064,54.364,13.966Z" fill="none" stroke="#fff" stroke-width="1"/>
    <g id="Group_19928" data-name="Group 19928">
      <path id="Path_104706" data-name="Path 104706" d="M3821.3,197.5l-4.1,65.116-4.1,65.116-54.341-36.111-54.341-36.111,58.443-29.005Z" fill="none" stroke="#fff" stroke-width="1"/>
    </g>
    <g id="Group_19929" data-name="Group 19929">
      <path id="Path_104707" data-name="Path 104707" d="M3909.093,466.9,3864.488,498.8l-44.6,31.894-5.319-54.576-5.319-54.576,49.924,22.682Z" fill="none" stroke="#fff" stroke-width="1"/>
    </g>
    <g id="Group_19930" data-name="Group 19930">
      <path id="Path_104708" data-name="Path 104708" d="M3428.483,312l-31.23,48.608-31.23,48.608-26.48-51.35-26.48-51.35,57.71,2.742Z" fill="none" stroke="#fff" stroke-width="1"/>
    </g>
    <g id="Group_19931" data-name="Group 19931">
      <path id="Path_104709" data-name="Path 104709" d="M3412.383,193.2l-29.477,24.2-29.477,24.2-6.223-37.63-6.223-37.63,35.7,13.426Z" fill="none" stroke="#fff" stroke-width="1"/>
    </g>
    <g id="Group_19932" data-name="Group 19932">
      <path id="Path_104710" data-name="Path 104710" d="M3285.372,389.805l4.461,37.268,4.461,37.268-34.506-14.77-34.505-14.77,30.044-22.5Z" fill="none" stroke="#fff" stroke-width="1"/>
    </g>
    <g id="Group_19933" data-name="Group 19933">
      <path id="Path_104711" data-name="Path 104711" d="M3816.105-49.809l11.008,36.518,11.008,36.518L3800.992,14.5l-37.13-8.726,26.122-27.792Z" fill="none" stroke="#fff" stroke-width="1"/>
    </g>
    <g id="Group_19934" data-name="Group 19934">
      <path id="Path_104712" data-name="Path 104712" d="M3523.958-7.89l-1.135,27.118-1.135,27.118L3498.771,31.8l-22.918-14.542,24.053-12.576Z" fill="none" stroke="#fff" stroke-width="1"/>
    </g>
    <g id="Group_19935" data-name="Group 19935">
      <path id="Path_104713" data-name="Path 104713" d="M3854.771,102.936l-1.135,27.118-1.135,27.118-22.918-14.542-22.918-14.542,24.053-12.576Z" fill="none" stroke="#fff" stroke-width="1"/>
    </g>
    <g id="Group_19936" data-name="Group 19936">
      <path id="Path_104714" data-name="Path 104714" d="M3323.809,55.1l-1.135,27.118-1.135,27.119L3298.622,94.8,3275.7,80.253l24.052-12.576Z" fill="none" stroke="#fff" stroke-width="1"/>
    </g>
    <g id="Group_19937" data-name="Group 19937">
      <path id="Path_104715" data-name="Path 104715" d="M3390.383,90.785l13-3-25,40,47-49-16,2,34-38-25,3Z" fill="none" stroke="#fff" stroke-width="1"/>
    </g>
    <g id="Group_19938" data-name="Group 19938">
      <path id="Path_104716" data-name="Path 104716" d="M3600.275,241.225l9.785-2.258-18.818,30.108,35.377-36.882-12.043,1.505,25.592-28.6-18.818,2.258Z" fill="none" stroke="#fff" stroke-width="1"/>
    </g>
    <g id="Group_19939" data-name="Group 19939">
      <path id="Path_104717" data-name="Path 104717" d="M3882.449,41.3l9.785-2.258L3873.417,69.15l35.377-36.882-12.043,1.505,25.592-28.6-18.817,2.258Z" fill="none" stroke="#fff" stroke-width="1"/>
    </g>
    <g id="Group_19940" data-name="Group 19940">
      <path id="Path_104718" data-name="Path 104718" d="M3234.431,42.395l12.947-2.988-24.9,39.835,46.806-48.8-15.934,1.992,33.86-37.844-24.9,2.988Z" fill="none" stroke="#fff" stroke-width="1"/>
    </g>
    <g id="Group_19941" data-name="Group 19941">
      <path id="Path_104719" data-name="Path 104719" d="M3903.259,171.442l16.5-3.809-31.74,50.785,59.672-62.211-20.314,2.539,43.167-48.245-31.74,3.809Z" fill="none" stroke="#fff" stroke-width="1"/>
    </g>
    <g id="Group_19942" data-name="Group 19942">
      <path id="Path_104720" data-name="Path 104720" d="M3619.7-2.561l9.785-2.258-18.818,30.108,35.377-36.882L3634-10.088l25.592-28.6-18.817,2.258Z" fill="none" stroke="#fff" stroke-width="1"/>
    </g>
    <g id="Group_19943" data-name="Group 19943">
      <path id="Path_104721" data-name="Path 104721" d="M3134.905-46l9.785-2.258-18.818,30.108,35.377-36.882-12.043,1.505,25.592-28.6-18.817,2.258Z" fill="none" stroke="#fff" stroke-width="1"/>
    </g>
    <g id="Group_19944" data-name="Group 19944">
      <path id="Path_104722" data-name="Path 104722" d="M3460.131,224.511l18.686-4.312-35.934,57.494,67.555-70.43-23,2.875,48.87-54.619-35.934,4.312Z" fill="none" stroke="#fff" stroke-width="1"/>
    </g>
    <g id="Group_19945" data-name="Group 19945">
      <path id="Path_104723" data-name="Path 104723" d="M3192.924,279.478l20.042-4.625-38.543,61.669,72.461-75.545-24.668,3.083,52.419-58.586-38.543,4.625Z" fill="none" stroke="#fff" stroke-width="1"/>
    </g>
    <g id="Group_19946" data-name="Group 19946">
      <path id="Path_104724" data-name="Path 104724" d="M3385.5,478.589l26.958-6.221-51.842,82.947,97.463-101.61-33.179,4.147,70.505-78.8-51.842,6.221Z" fill="none" stroke="#fff" stroke-width="1"/>
    </g>
    <g id="Group_19947" data-name="Group 19947">
      <path id="Path_104725" data-name="Path 104725" d="M3737.192,104.566l12.672-2.924-24.369,38.99,45.813-47.763-15.6,1.95,33.142-37.041L3764.485,60.7Z" fill="none" stroke="#fff" stroke-width="1"/>
    </g>
    <g id="Group_19948" data-name="Group 19948">
      <path id="Path_104726" data-name="Path 104726" d="M3700.924,422.975l14.156-3.267-27.223,43.557,51.179-53.357-17.423,2.178,37.023-41.379-27.223,3.267Z" fill="none" stroke="#fff" stroke-width="1"/>
    </g>
    <g id="Group_19949" data-name="Group 19949">
      <path id="Path_104727" data-name="Path 104727" d="M3893.713,352.837l17.768-4.1-34.168,54.669,64.236-66.97-21.868,2.733,46.469-51.936-34.168,4.1Z" fill="none" stroke="#fff" stroke-width="1"/>
    </g>
  </g>
</svg>
