<svg xmlns="http://www.w3.org/2000/svg" width="14.446" height="14.446" viewBox="0 0 14.446 14.446">
  <g id="insta_icon" data-name="insta icon" transform="translate(-90.904 -9121.241)">
    <path id="Path_98742" data-name="Path 98742" d="M360.749,69.74H353.7c-.148-.023-.3-.039-.443-.072a3.936,3.936,0,0,1-3.135-2.976c-.059-.211-.08-.432-.118-.648V58.99c.023-.148.039-.3.072-.443a3.937,3.937,0,0,1,2.976-3.135c.211-.058.432-.08.648-.118h7.053c.148.023.3.039.443.072a3.937,3.937,0,0,1,3.135,2.976c.058.211.08.432.118.648v7.053c-.023.148-.039.3-.072.443a3.937,3.937,0,0,1-2.976,3.135c-.211.059-.432.08-.648.118m-3.541-1.281h3.145a2.871,2.871,0,0,0,.971-.145,2.7,2.7,0,0,0,1.84-2.648c0-2.1.007-4.194-.006-6.29a3.1,3.1,0,0,0-.146-.954,2.671,2.671,0,0,0-2.638-1.846c-2.1,0-4.2-.007-6.3.006a3.061,3.061,0,0,0-.94.144,2.667,2.667,0,0,0-1.848,2.622q-.008,3.173,0,6.347a2.669,2.669,0,0,0,1.14,2.261,2.712,2.712,0,0,0,1.655.5q1.566,0,3.131,0" transform="translate(-259.096 9065.947)" fill="#1e2323"/>
    <path id="Path_98743" data-name="Path 98743" d="M392.538,94.007a3.824,3.824,0,1,1-3.83-3.822,3.841,3.841,0,0,1,3.83,3.822m-1.319,0a2.5,2.5,0,1,0-2.508,2.5,2.508,2.508,0,0,0,2.508-2.5" transform="translate(-290.587 9034.454)" fill="#1e2323"/>
    <path id="Path_98744" data-name="Path 98744" d="M452.278,79.4a.961.961,0,1,1-.987.946.967.967,0,0,1,.987-.946" transform="translate(-350.21 9044.189)" fill="#1e2323"/>
  </g>
</svg>
