<svg xmlns="http://www.w3.org/2000/svg" width="14.053" height="14.055" viewBox="0 0 14.053 14.055">
  <g id="in" transform="translate(0 0)">
    <path id="Path_98738" data-name="Path 98738" d="M686.04,105.639a25.441,25.441,0,0,0-.051,2.749c-.015.646-.019,1.294,0,1.939.012.339-.064.484-.441.469-.782-.031-1.565-.013-2.348-.015-.094-.1-.062-.224-.062-.34q0-4.333,0-8.666a.513.513,0,0,1,.046-.3l.019-.02-.016-.022c.008-.015.014-.043.023-.044a10.414,10.414,0,0,1,2.733.009l.061,1.073c.164.069.191-.1.257-.171a3.475,3.475,0,0,1,3.82-.976,3.068,3.068,0,0,1,2.1,2.967c.054,2.043.025,4.089.045,6.133,0,.3-.11.371-.387.366-.835-.016-1.67-.009-2.5-.011-.018-.029-.052-.057-.052-.086,0-1.708-.049-3.417.024-5.125-.037-.985-.356-1.482-1.11-1.727a2.431,2.431,0,0,1-.917,0,1.49,1.49,0,0,0-1.208,1.319c.026.162.085.326-.037.477" transform="translate(-678.178 -96.742)" fill="#1e2323"/>
    <path id="Path_98739" data-name="Path 98739" d="M640.214,103q0,4.5.014,8.993c0,.277-.06.392-.364.383-.732-.021-1.465-.011-2.2,0-.218,0-.349-.032-.348-.3q.018-4.5.023-8.992a.433.433,0,0,1,.024-.1,9.547,9.547,0,0,1,2.09-.069c.25-.009.525-.1.758.086" transform="translate(-637.051 -98.327)" fill="#1e2323"/>
    <path id="Path_98740" data-name="Path 98740" d="M634.69,60.035a1.7,1.7,0,0,1,1.737-1.692,1.725,1.725,0,1,1-1.737,1.692" transform="translate(-634.69 -58.343)" fill="#1e2323"/>
  </g>
</svg>
