<svg xmlns="http://www.w3.org/2000/svg" width="68" height="68" viewBox="0 0 68 68">
  <g id="Group_19110" data-name="Group 19110" transform="translate(-649 -3096)">
    <rect id="Rectangle_5095" data-name="Rectangle 5095" width="68" height="68" transform="translate(649 3096)" fill="#1664f7" opacity="0"/>
    <path id="noun-lock-5178705" d="M165.192,69.808h-1.923a5.771,5.771,0,0,0-5.769,5.769V96.73a5.771,5.771,0,0,0,5.769,5.769h30.769a5.771,5.771,0,0,0,5.769-5.769V75.577a5.771,5.771,0,0,0-5.769-5.769h-1.923V65.961a13.461,13.461,0,1,0-26.923,0Zm-1.923,3.846h30.769a1.924,1.924,0,0,1,1.923,1.923V96.73a1.924,1.924,0,0,1-1.923,1.923H163.269a1.924,1.924,0,0,1-1.923-1.923V75.577a1.924,1.924,0,0,1,1.923-1.923Zm25-3.846V65.961a9.615,9.615,0,1,0-19.231,0v3.846Z" transform="translate(504.346 3052.5)" fill="#1664f7" fill-rule="evenodd"/>
  </g>
</svg>
