<svg xmlns="http://www.w3.org/2000/svg" width="478.616" height="212.718" viewBox="0 0 478.616 212.718">
  <path id="Path_99895" data-name="Path 99895" d="M878.344,1024.925l-.183,1.039.018.16q.085-.6.165-1.2m-.082-4.528q-.251,1.3-.522,2.654.06.332.116.674.236-1.381.447-2.7C878.291,1020.811,878.277,1020.6,878.263,1020.4Zm.677-3.639-.234,1.29.023.194Q878.837,1017.491,878.939,1016.759ZM706.728,1130.881l-.028.023.031-.025Zm171.18-113.914q-.358,1.692-.749,3.455c.078.292.151.59.224.9q.342-1.742.649-3.4C877.994,1017.591,877.953,1017.277,877.908,1016.967Zm.93-4.537q-.269,1.365-.56,2.776c.041.222.082.447.121.675q.254-1.435.482-2.813C878.867,1012.853,878.853,1012.641,878.838,1012.43Zm.742-3.9c-.1.542-.2,1.091-.306,1.646l.028.237Q879.448,1009.458,879.58,1008.532Zm-168.572,118.89-.435.205q-.755.646-1.507,1.285l.329-.174Q710.2,1128.085,711.008,1127.422Zm2.607-1.251-.059.029-.44.367Zm164.03-92.223.014.128.118-.9Zm-.419-2.983c.039.22.076.442.111.668q.218-1.327.415-2.608c-.011-.205-.025-.408-.039-.609Q877.48,1029.671,877.227,1030.965Zm-.57-2.713c.075.3.148.6.217.908q.32-1.689.61-3.307-.056-.486-.119-.954Q877.025,1026.546,876.657,1028.252Zm-.718-2.411c.111.316.216.642.319.976q.418-1.971.8-3.854-.1-.558-.22-1.089l-.3,1.338Q876.228,1024.538,875.939,1025.841Zm-160.706,98.065c-.241.1-.481.2-.721.3q-.993.872-1.986,1.733l.669-.328Q714.213,1124.766,715.233,1123.906Zm2.688-1.2c-.163.075-.327.153-.49.227q-.79.672-1.578,1.339l.387-.2Q717.08,1123.4,717.921,1122.71Zm2.635-1.24-.118.057-.856.706ZM877.164,1042l.011.1.088-.7Zm-.419-3.06c.037.219.072.442.107.667q.2-1.284.384-2.525l-.038-.6Q876.981,1037.695,876.745,1038.942Zm-.548-2.718c.067.28.131.565.193.855q.3-1.648.575-3.228-.055-.491-.117-.966-.154.768-.315,1.55Q876.362,1035.335,876.2,1036.224Zm-.677-2.434c.092.285.182.575.269.874l.068-.357v-.005q.358-1.743.685-3.416-.1-.56-.211-1.094Q875.91,1031.818,875.52,1033.789Zm-.823-2.2c.129.3.253.607.374.923q.38-1.891.786-3.829v0l.1-.479q-.146-.558-.305-1.085Q875.157,1029.387,874.7,1031.589Zm-155.223,88.694q-.471.183-.941.363-1.178,1.055-2.353,2.1c.3-.131.6-.262.894-.4Q718.273,1121.322,719.474,1120.283Zm2.709-1.1c-.258.109-.516.214-.774.32q-1.026.893-2.05,1.778l.722-.347Q721.132,1120.068,722.182,1119.186Zm2.71-1.176-.547.245q-.827.7-1.652,1.394l.455-.234Q724.02,1118.717,724.892,1118.01Zm2.658-1.219-.179.083-1.117.912.034-.018Q726.919,1117.282,727.55,1116.791ZM876.326,1053.4l-.016-.249q-.14,1.177-.27,2.336Q876.189,1054.432,876.326,1053.4Zm.4-3.3.009.081.065-.555Zm-.4-2.966c.028.173.056.346.083.521q.185-1.236.354-2.434c-.012-.2-.024-.407-.038-.607l-.185,1.048Zm-.51-2.672c.044.2.088.4.129.6q.283-1.6.538-3.146c-.034-.3-.07-.6-.107-.9Q876.081,1042.76,875.812,1044.463Zm-.641-2.491c.075.252.148.508.219.77q.226-1.393.465-2.811v-.008l.2-1.042c-.054-.32-.112-.637-.172-.945Q875.512,1039.983,875.171,1041.972Zm-.775-2.282q.165.426.321.87.375-2.149.785-4.364c-.083-.34-.169-.674-.259-1Q874.8,1037.481,874.4,1039.69Zm-.911-2.061q.219.434.424.895.431-2.327.907-4.732c-.117-.35-.239-.688-.365-1.018Q873.943,1035.245,873.484,1037.629Zm-149.74,78.915c-.367.128-.735.256-1.1.38q-1.333,1.219-2.665,2.422.537-.214,1.074-.435Q722.4,1117.737,723.744,1116.544Zm2.713-.986q-.494.188-.988.369-1.211,1.081-2.422,2.145c.314-.135.628-.269.943-.408Q725.222,1116.619,726.457,1115.558Zm2.727-1.069c-.275.111-.55.22-.825.329q-1.06.919-2.121,1.828l.771-.359Q728.1,1115.392,729.184,1114.489Zm2.738-1.155-.6.257q-.867.729-1.734,1.449l.51-.254Q731.01,1114.065,731.922,1113.334Zm2.7-1.209-.254.117q-.6.491-1.207.977l.109-.057Q733.95,1112.646,734.626,1112.125Zm140.891-59.059.067.326q.129-1.1.267-2.211l0-.013.179-1.112-.054-.48Q875.737,1051.343,875.518,1053.067Zm-.608-2.585c.056.209.112.421.166.636q.263-1.982.555-4.019c-.039-.234-.079-.464-.12-.693Q875.192,1048.474,874.909,1050.482Zm-.732-2.4c.091.262.179.531.265.8q.318-2.18.673-4.431-.1-.453-.213-.891Q874.519,1045.86,874.177,1048.081Zm-.858-2.19q.189.426.367.872.369-2.344.783-4.771-.151-.5-.313-.975Q873.711,1043.5,873.319,1045.891Zm-.986-1.973c.16.285.317.576.469.878q.415-2.479.883-5.053c-.134-.337-.273-.666-.417-.983Q872.77,1041.393,872.333,1043.918Zm-274.955,43.93.45.068-.09-.08-.468-.115Zm130.683,24.831q-.607.185-1.213.36-1.466,1.369-2.934,2.719.6-.213,1.206-.435Q726.59,1114.011,728.061,1112.678Zm2.7-.867q-.575.193-1.147.38-1.364,1.24-2.727,2.465.56-.217,1.121-.439Q729.386,1113.023,730.764,1111.811Zm2.735-.958q-.522.191-1.042.376-1.243,1.1-2.489,2.189.5-.208,1-.422Q732.233,1111.933,733.5,1110.853Zm2.76-1.045c-.3.116-.592.232-.888.345q-1.1.942-2.195,1.875c.273-.123.547-.245.821-.37Q735.128,1110.74,736.259,1109.808Zm2.769-1.124-.665.277q-.909.756-1.816,1.5c.188-.09.376-.178.565-.269Q738.069,1109.446,739.028,1108.685Zm2.739-1.179-.352.154q-.656.528-1.314,1.05l.217-.109Q741.043,1108.057,741.767,1107.505ZM875.347,1062.2l.008.043.118-1.359Zm-.584-2.759c.037.154.074.307.111.463q.2-2.027.436-4.115l-.073-.465Q874.984,1057.412,874.763,1059.437Zm-.7-2.564c.072.234.142.47.212.709q.253-2.219.545-4.516-.081-.388-.165-.765Q874.339,1054.629,874.065,1056.874Zm-.813-2.362c.106.274.208.554.309.838q.3-2.377.648-4.844c-.085-.309-.173-.612-.262-.91Q873.572,1052.1,873.252,1054.512Zm-.93-2.144q.208.431.407.881.343-2.5.742-5.108c-.117-.331-.237-.655-.361-.97Q872.684,1049.827,872.322,1052.368Zm-1.046-1.932c.171.284.34.573.5.873q.38-2.607.825-5.329-.225-.492-.462-.954Q871.674,1047.795,871.277,1050.436Zm-271.191,38.609.451.044-.041-.029-.485-.085Zm-1.825-.164.7.061-.191-.176-.7-.113Zm134.186,19.787q-.653.168-1.3.327-1.584,1.505-3.17,2.992.649-.2,1.3-.409Q730.86,1110.134,732.446,1108.668Zm2.677-.734q-.631.182-1.26.355-1.5,1.391-3,2.764c.416-.141.833-.286,1.251-.433Q733.619,1109.287,735.124,1107.934Zm2.721-.829q-.6.19-1.191.372-1.4,1.266-2.806,2.517c.39-.145.78-.293,1.171-.443Q736.432,1108.338,737.845,1107.105Zm2.759-.92c-.363.126-.726.249-1.089.371q-1.287,1.129-2.576,2.245c.352-.141.705-.286,1.058-.432Q739.3,1107.284,740.6,1106.185Zm2.793-1.01c-.315.119-.63.234-.945.349q-1.143.971-2.286,1.932.446-.193.893-.389Q742.227,1106.127,743.4,1105.175Zm2.806-1.087c-.251.1-.5.2-.753.3q-.96.788-1.92,1.569l.671-.311Q745.2,1104.871,746.2,1104.088Zm2.762-1.136-.443.186q-.715.564-1.429,1.125l.311-.151Q748.183,1103.535,748.964,1102.952Zm125.816-33.875.05.249q.131-2.069.293-4.205l-.023-.166Q874.923,1067.05,874.781,1069.076Zm-.68-2.841c.052.2.1.394.154.592q.177-2.271.4-4.626c-.038-.2-.077-.4-.116-.6Q874.295,1063.965,874.1,1066.235Zm-.782-2.594c.086.256.17.516.253.779q.222-2.425.495-4.95-.1-.422-.212-.831Q873.558,1061.195,873.319,1063.641Zm-.886-2.369q.177.426.347.868.262-2.545.584-5.2-.149-.478-.307-.938Q872.712,1058.7,872.433,1061.272Zm-.989-2.148q.223.437.438.895.3-2.641.664-5.409-.2-.5-.4-.974Q871.756,1056.45,871.444,1059.124Zm-1.092-1.932q.269.43.527.882.327-2.722.732-5.582-.242-.489-.5-.948Q870.689,1054.444,870.352,1057.192Zm-267.339,32.871.265.011-.3-.034Zm-1.935-.077.722.027-.161-.12-.736-.076Zm-1.945-.057.913.024-.259-.245-.9-.082Zm-8.561-6.654q.357.357.715.705l-.144-.252q-.355-.384-.708-.776Zm-1.874-1.94q.261.279.522.553l-.3-.67-.417-.5Zm148.2,23.179q-.689.146-1.376.279-1.686,1.631-3.375,3.241.687-.176,1.375-.364Q735.213,1106.1,736.9,1104.515Zm2.654-.6q-.676.164-1.351.317-1.616,1.525-3.234,3.032.671-.2,1.345-.4Q737.935,1105.4,739.555,1103.913Zm2.7-.694q-.655.178-1.308.347-1.535,1.412-3.071,2.806.646-.208,1.294-.425Q740.713,1104.592,742.254,1103.219Zm2.745-.785q-.622.187-1.243.366-1.439,1.287-2.879,2.558.609-.214,1.219-.436Q743.548,1103.685,745,1102.433Zm2.787-.874q-.576.189-1.15.369-1.325,1.15-2.651,2.286.555-.212,1.113-.432Q746.443,1102.679,747.787,1101.559Zm2.825-.961q-.516.181-1.03.357-1.189,1-2.381,1.984.49-.2.98-.407Q749.4,1101.572,750.612,1100.6Zm2.824-1.03-.839.312q-1.013.818-2.026,1.628.376-.164.753-.331Q752.379,1100.379,753.435,1099.569Zm2.8-1.082-.549.219q-.778.6-1.557,1.2l.419-.2Q755.388,1099.1,756.231,1098.487Zm2.709-1.1-.094.039-.5.37Zm115.418-20.858.093.417q.084-2.315.212-4.727l-.064-.382Q874.453,1074.231,874.358,1076.525Zm-.776-3.011c.066.229.131.462.194.7q.126-2.487.308-5.086c-.052-.244-.105-.488-.159-.728Q873.723,1071.017,873.582,1073.514Zm-.861-2.692q.146.412.287.836.166-2.609.4-5.347-.123-.456-.254-.9Q872.9,1068.189,872.721,1070.822Zm-.951-2.431c.127.3.252.6.374.9q.2-2.707.477-5.557c-.113-.33-.227-.655-.345-.973Q871.98,1065.658,871.77,1068.392Zm-1.038-2.19c.155.3.307.6.455.914q.228-2.782.543-5.722c-.141-.334-.286-.659-.434-.978Q870.965,1063.4,870.732,1066.2Zm-1.125-1.966c.181.289.359.588.534.891q.25-2.84.6-5.85c-.169-.326-.344-.64-.522-.948Q869.857,1061.377,869.607,1064.236Zm-265.492,26.677.724-.007-.122-.073-.753-.037Zm-2.055.031.947-.016-.244-.187-.948-.038Zm-2.067.048,1.1-.028-.307-.3-1.085-.033Zm-1.286-.384.164.094-.074-.092Zm-4.758-3.177q.574.436,1.149.85-.622-.5-1.239-1.021Zm-2.483-2q.573.486,1.147.95l-.227-.419q-.569-.519-1.136-1.059Zm-2.073-1.833q.457.418.913.826l-.317-.755q-.417-.419-.833-.849Zm152.039,16.611q-.717.117-1.434.22-1.779,1.747-3.56,3.477.716-.149,1.435-.311Q739.655,1101.915,741.434,1100.211Zm2.626-.466q-.713.138-1.422.262-1.72,1.65-3.441,3.283.709-.17,1.42-.352Q742.34,1101.352,744.06,1099.745Zm2.674-.555q-.7.157-1.4.3-1.65,1.545-3.3,3.073.695-.189,1.39-.387Q745.079,1100.693,746.735,1099.19Zm2.726-.645q-.68.17-1.358.331-1.575,1.434-3.151,2.852.669-.2,1.342-.413Q747.877,1099.939,749.46,1098.545Zm2.772-.73q-.651.18-1.3.351-1.483,1.311-2.968,2.607.638-.211,1.276-.43Q750.737,1099.088,752.233,1097.815Zm2.817-.815q-.614.186-1.228.364-1.374,1.175-2.75,2.338.6-.215,1.191-.433Q753.658,1098.142,755.05,1097Zm2.836-.888q-.552.179-1.106.354-1.241,1.025-2.486,2.038.524-.2,1.051-.408Q756.616,1097.112,757.886,1096.113Zm2.847-.953-.926.317q-1.074.85-2.149,1.692l.848-.35Q759.619,1095.993,760.732,1095.159Zm2.836-1.009-.671.245q-.849.642-1.7,1.278l.546-.237Q762.656,1094.8,763.568,1094.15Zm2.736-1.023-.242.092-1.063.76.056-.026Zm108.9,1.557-.006-.047q.027.518.056,1.03Zm-.2-5.964.008.044q-.029-1.6-.035-3.242Q874.977,1087.148,875,1088.72Zm-.835-3.981c.043.179.084.362.126.542q0-2.57.065-5.274l-.1-.569Q874.176,1082.162,874.169,1084.739Zm-.882-3.306c.074.252.147.51.22.767q.042-2.72.159-5.595c-.064-.281-.131-.56-.2-.835Q873.334,1078.687,873.287,1081.432Zm-.943-2.871q.156.43.305.87.077-2.816.242-5.8-.14-.483-.288-.951Q872.424,1075.714,872.344,1078.562Zm-1.01-2.549c.13.3.257.606.383.916q.106-2.89.31-5.967-.182-.508-.373-1Q871.438,1073.093,871.335,1076.013Zm-1.076-2.278q.23.447.452.91.126-2.943.363-6.089-.221-.506-.451-.99Q870.377,1070.764,870.258,1073.735Zm-1.141-2.041c.174.287.346.577.515.875q.139-2.979.4-6.176-.258-.489-.527-.954Q869.242,1068.69,869.118,1071.695Zm-261.752,19.958.72-.037-.064-.031h-.764Zm-2.16.124.965-.057-.214-.133-.981.006Zm-2.174.138,1.146-.074-.3-.236-1.137.017Zm-2.186.152,1.274-.092-.337-.335-1.252.028Zm-1.411-.37.374.17-.14-.176Zm-1.619-.794.214.112-.229-.136Zm-2.962-1.707q.854.537,1.708,1.024l-.119-.184q-.892-.58-1.781-1.219Zm-2.581-1.737q.712.508,1.423.984l-.288-.557q-.7-.536-1.4-1.107Zm-2.238-1.678q.6.468,1.2.917l-.34-.847q-.562-.479-1.122-.979Zm156.01,9.982q-.742.083-1.482.155-1.862,1.857-3.728,3.695.741-.117,1.484-.246Q744.183,1097.572,746.044,1095.761Zm2.6-.332q-.741.105-1.479.2-1.812,1.767-3.629,3.517.738-.138,1.477-.291Q746.832,1097.15,748.645,1095.429Zm2.651-.417q-.735.125-1.471.24-1.756,1.67-3.517,3.325.731-.161,1.464-.332Q749.536,1096.639,751.3,1095.013Zm2.7-.5q-.724.144-1.447.276-1.692,1.567-3.387,3.118.717-.179,1.436-.367Q752.3,1096.038,754,1094.516Zm2.747-.577q-.706.157-1.411.305-1.619,1.455-3.24,2.9.7-.192,1.394-.394Q755.117,1095.351,756.743,1093.939Zm2.8-.656q-.686.168-1.371.329-1.531,1.333-3.065,2.651.673-.2,1.347-.416Q758,1094.572,759.54,1093.283Zm2.824-.726q-.648.174-1.3.342-1.426,1.2-2.856,2.384.63-.207,1.26-.42Q760.92,1093.716,762.365,1092.556Zm2.851-.793q-.593.171-1.186.337-1.3,1.048-2.6,2.087.567-.2,1.134-.4Q763.89,1092.779,765.216,1091.763Zm2.872-.855-1.034.314q-1.139.878-2.279,1.747.478-.179.957-.361Q766.91,1091.762,768.087,1090.908Zm2.841-.895-.791.254q-.926.677-1.855,1.351l.676-.269Q769.944,1090.684,770.928,1090.013Zm2.762-.913-.41.137-1.257.863.237-.1Zm100.056,5.483c-.063-.269-.129-.531-.193-.8q.269,4.076.781,7.666Q873.957,1098.188,873.745,1094.583Zm1.2,6.072-.048-.292q.068.645.142,1.279Q874.987,1101.152,874.941,1100.655Zm-.525-6.246.117.512q-.152-2.931-.208-6.071c-.044-.238-.088-.475-.133-.71Q874.244,1091.4,874.415,1094.41Zm-1.04-3.969c.071.244.142.494.211.742q-.107-3.044-.1-6.318c-.074-.305-.147-.608-.224-.906Q873.251,1087.333,873.376,1090.44Zm-1.038-3.225c.1.273.191.55.284.829q-.073-3.1-.02-6.456-.148-.5-.3-.981Q872.245,1084.054,872.338,1087.215Zm-1.068-2.769q.177.423.35.858-.049-3.151.04-6.565-.185-.509-.378-1Q871.193,1081.245,871.27,1084.446Zm-1.1-2.439q.2.415.4.843-.036-3.181.081-6.642-.218-.5-.445-.976Q870.1,1078.784,870.17,1082.008Zm-1.134-2.148q.223.393.44.8-.035-3.2.1-6.7c-.166-.317-.334-.627-.505-.931Q868.953,1076.618,869.036,1079.859Zm-258.194,12.347.638-.059-.7.028Zm-2.273.217.976-.1-.174-.086-1.006.05Zm-2.282.229,1.176-.12-.282-.18-1.179.067Zm-2.294.243,1.326-.142-.339-.273-1.311.081Zm-2.3.256,1.435-.161-.36-.368-1.407.1Zm-3.025-.893q1.028.419,2.049.758l-.184-.237-.209.015-.083.007-.076-.032q-.819-.343-1.639-.74Zm-2.964-1.364q.933.477,1.861.893l-.225-.358q-.95-.5-1.9-1.069Zm-2.674-1.481q.818.487,1.633.932l-.336-.671q-.8-.509-1.6-1.06Zm-2.386-1.5q.714.474,1.426.917l-.36-.931q-.676-.487-1.351-1Zm160.094,3.25q-.763.049-1.524.086-1.935,1.956-3.876,3.9.76-.081,1.522-.174Q748.8,1093.076,750.733,1091.163Zm2.582-.2q-.765.071-1.529.128-1.9,1.875-3.8,3.734.761-.1,1.524-.219Q751.416,1092.792,753.315,1090.961Zm2.628-.276q-.765.09-1.529.169-1.851,1.787-3.708,3.56.761-.127,1.524-.265Q754.089,1092.426,755.943,1090.685Zm2.674-.348q-.759.108-1.517.205-1.8,1.692-3.6,3.369.754-.147,1.51-.3Q756.814,1091.981,758.617,1090.337Zm2.719-.419q-.749.123-1.5.238-1.737,1.587-3.479,3.16.743-.164,1.486-.337Q759.594,1091.458,761.336,1089.919Zm2.767-.488q-.739.138-1.477.267-1.665,1.475-3.337,2.936.73-.179,1.461-.366Q762.429,1090.856,764.1,1089.43Zm2.8-.55q-.716.147-1.432.288-1.582,1.352-3.168,2.691.7-.189,1.408-.386Q765.309,1090.183,766.9,1088.88Zm2.83-.611q-.683.153-1.365.3-1.481,1.216-2.967,2.422.666-.194,1.331-.393Q768.235,1089.44,769.732,1088.269Zm2.859-.666q-.638.153-1.275.3-1.359,1.066-2.722,2.124.613-.191,1.226-.387Q771.207,1088.629,772.591,1087.6Zm2.861-.711q-.567.146-1.135.287-1.206.9-2.414,1.79l1.061-.352Q774.21,1087.758,775.452,1086.893Zm2.841-.744-.924.246q-1.007.705-2.015,1.407l.819-.286Q777.234,1086.835,778.293,1086.149Zm2.761-.755-.591.164-1.458.95.433-.157Q780.246,1085.873,781.054,1085.393Zm2.559-.724h0l-.009.006Zm93.944,32.163q1.955,7.31,3.957,13.808-1.351-4.738-2.639-9.939-.314-.919-.607-1.881Q877.9,1117.855,877.556,1116.833Zm-4.34-18.519.074.23q-.409-3.722-.585-7.906c-.089-.3-.177-.6-.269-.9Q872.666,1094.339,873.216,1098.313Zm-1.183-3.44.146.4q-.377-3.685-.509-7.837-.164-.462-.332-.913Q871.522,1091,872.033,1094.873Zm-1.116-2.779c.057.131.112.267.168.4q-.372-3.664-.481-7.816-.188-.443-.38-.874Q870.4,1088.268,870.916,1092.095Zm-1.067-2.314c.052.106.1.218.155.325q-.393-3.657-.5-7.835-.206-.417-.416-.82A78.268,78.268,0,0,0,869.849,1089.781Zm-257.7,3.1.973-.13L613,1092.7l-1.018.089Zm-2.393.325,1.2-.165-.254-.13-1.217.115Zm-2.4.337,1.367-.193-.331-.216-1.362.137Zm-2.413.347,1.494-.216-.368-.305q-.734.076-1.473.157Zm-2.421.359,1.587-.236-.378-.394-1.554.173Zm-3.033-.635q1.058.32,2.105.553l-.217-.286-.091.011-.069.008-.07-.021q-.941-.287-1.888-.644Zm-2.984-1.051q1,.4,1.987.734l-.3-.485q-1-.415-2-.9Zm-2.764-1.229q.906.44,1.805.828l-.369-.761q-.883-.458-1.77-.965Zm-2.523-1.313q.814.452,1.622.863l-.375-1c-.515-.309-1.032-.633-1.548-.966Zm161.755-3.586c-2.39-.018-4.768-.125-7.127-.339h0a465.427,465.427,0,0,0-62.051-.25c-11.454.694-23.655,1.81-36.775,3.44,11.313-.8,21.911-1.19,31.932-1.286,22.259-.212,41.657,1.015,59.715,2.339h.009a73.714,73.714,0,0,0,10.234.229Q750.946,1088.511,752.973,1086.435Zm2.526-.013q-.784.014-1.566.016-2,2.049-4.006,4.083.776-.043,1.556-.1Q753.5,1088.429,755.5,1086.422Zm2.57-.077q-.788.033-1.576.055-1.969,1.976-3.948,3.937.783-.066,1.567-.145Q756.1,1088.276,758.069,1086.345Zm2.61-.139q-.79.051-1.579.092-1.935,1.9-3.879,3.777.785-.088,1.572-.188Q758.74,1088.053,760.679,1086.206Zm2.652-.2q-.788.068-1.576.125-1.894,1.806-3.8,3.6.783-.108,1.567-.227Q761.433,1087.763,763.332,1086.006Zm2.692-.257q-.784.083-1.567.156-1.844,1.71-3.7,3.408.778-.125,1.557-.261Q764.174,1087.408,766.023,1085.749Zm2.734-.312q-.779.1-1.557.184-1.787,1.6-3.581,3.2.772-.143,1.546-.294Q766.964,1086.987,768.757,1085.437Zm2.763-.363q-.767.106-1.532.207-1.719,1.49-3.443,2.969.758-.156,1.517-.319Q769.794,1086.509,771.52,1085.074Zm2.792-.41q-.746.115-1.492.225-1.636,1.363-3.279,2.718.734-.165,1.469-.336Q772.664,1085.972,774.311,1084.663Zm2.819-.453q-.718.12-1.437.235-1.539,1.225-3.085,2.443.7-.169,1.408-.345Q775.577,1085.382,777.131,1084.21Zm2.832-.49q-.678.121-1.355.238-1.42,1.075-2.848,2.143c.438-.112.876-.227,1.313-.342Q778.521,1084.744,779.963,1083.721Zm2.832-.518-1.234.229q-1.273.906-2.552,1.809l1.17-.321Q781.49,1084.063,782.8,1083.2Zm2.805-.537-1.053.2q-1.086.719-2.175,1.436l.961-.274Q784.468,1083.351,785.6,1082.666Zm2.733-.54-.765.152-1.657,1.005.624-.184Zm2.547-.516-.255.052-.875.478.032-.01Zm-174.918,11.537.958-.16-.067-.02-1.015.128Zm-2.506.425,1.212-.207-.222-.09-1.239.163Zm-2.513.432,1.4-.242-.317-.167-1.407.191Zm-2.523.443,1.543-.272-.369-.247-1.531.214Zm-2.531.452,1.651-.3-.392-.332-1.626.234Zm-2.539.461,1.732-.315-.392-.418-1.7.251Zm-3.047-.382q1.09.219,2.163.348l-.248-.332-.023,0-.059-.012c-.7-.138-1.414-.307-2.127-.5Zm-3.02-.763q1.058.32,2.1.563l-.347-.578q-1.045-.324-2.1-.725Zm-2.855-.983q.986.379,1.96.7l-.395-.834q-.955-.391-1.917-.841Zm-2.651-1.114q.9.411,1.8.776l-.387-1.063q-.859-.423-1.722-.888ZM757.8,1081.468q-2.369-.1-4.729-.3h0c-19.1-1.323-40.107-.77-64.439,1.838-11.062,1.186-22.813,2.8-35.385,4.848,10.764-1.23,20.9-2.11,30.509-2.691a466.165,466.165,0,0,1,62.14.249l.007,0c2.561.231,5.143.338,7.742.339Q755.726,1083.615,757.8,1081.468Zm2.535.084q-.806-.019-1.612-.048-2.051,2.126-4.112,4.242.8-.009,1.592-.027Q758.272,1083.641,760.334,1081.552Zm2.571.036q-.81,0-1.622-.018-2.033,2.065-4.079,4.119.8-.028,1.607-.067Q760.862,1083.611,762.9,1081.588Zm2.6-.011q-.814.01-1.627.011-2.011,1.993-4.033,3.977c.537-.031,1.075-.067,1.614-.1Q763.488,1083.525,765.506,1081.578Zm2.636-.054q-.814.024-1.627.039-1.981,1.914-3.973,3.818.807-.064,1.615-.139Q766.156,1083.388,768.143,1081.523Zm2.666-.094q-.811.034-1.624.062-1.943,1.824-3.9,3.639.806-.08,1.613-.171Q768.86,1083.2,770.809,1081.43Zm2.7-.131q-.809.044-1.619.082-1.9,1.725-3.8,3.443.8-.1,1.61-.2Q771.605,1082.966,773.507,1081.3Zm2.721-.165q-.8.053-1.605.1-1.839,1.616-3.688,3.224.8-.109,1.6-.225Q774.383,1082.687,776.227,1081.134Zm2.74-.194q-.788.059-1.578.114-1.771,1.5-3.553,2.985.784-.12,1.567-.245Q777.191,1082.37,778.967,1080.939Zm2.764-.22q-.773.064-1.546.126-1.691,1.364-3.39,2.722.765-.126,1.531-.259Q780.034,1082.017,781.731,1080.719Zm2.772-.24-1.5.131q-1.594,1.22-3.2,2.437.739-.131,1.474-.266Q782.9,1081.633,784.5,1080.479Zm2.776-.255-1.424.132q-1.478,1.066-2.964,2.127l1.393-.265Q785.786,1081.223,787.279,1080.224Zm2.764-.263-1.322.127q-1.337.894-2.679,1.789l1.274-.252Q788.682,1080.795,790.043,1079.961Zm2.733-.264-.343.034-.826.079-2.318,1.421,1.095-.223Q791.583,1080.352,792.776,1079.7Zm2.657-.257-.921.089-1.836,1.01.806-.166Zm2.49-.235-.5.047-1.132.542.317-.066.748-.3ZM620,1093.213l.921-.183-.991.161Zm-2.62.526,1.211-.244-.18-.056-1.251.207Zm-2.629.533,1.424-.29-.294-.122-1.439.243Zm-2.634.54,1.587-.326-.364-.2-1.583.272Zm-2.642.548,1.707-.355-.4-.274-1.69.3Zm-2.648.555,1.8-.379-.409-.355-1.773.316Zm-2.654.562,1.871-.4-.4-.437-1.835.333Zm-3.065-.129q1.123.12,2.223.145l-.306-.416q-1.119-.106-2.256-.312Zm-3.061-.485q1.113.232,2.2.38l-.384-.654q-1.09-.229-2.195-.544Zm-2.945-.74q1.058.31,2.1.552l-.412-.891q-1.022-.316-2.055-.7Zm-2.779-.916q.986.359,1.96.667l-.4-1.114q-.938-.369-1.886-.789Zm170.336-17.8q-1.18-.079-2.361-.172h0c-19.622-1.323-41.442.119-66.834,3.924-10.585,1.586-21.79,3.583-33.712,5.961,10.116-1.562,19.694-2.826,28.806-3.8,24.379-2.612,45.425-3.165,64.563-1.84h.006c1.767.151,3.539.256,5.314.324Q760.556,1078.609,762.658,1076.407Zm2.568.157q-.835-.046-1.67-.1-2.088,2.187-4.19,4.369.816.026,1.633.041Q763.12,1078.723,765.226,1076.564Zm2.591.132q-.838-.039-1.677-.082-2.087,2.141-4.187,4.276.823.01,1.647.01Q765.716,1078.8,767.818,1076.7Zm2.609.107q-.839-.031-1.679-.067-2.078,2.082-4.169,4.159.827-.005,1.654-.019Q768.336,1078.843,770.426,1076.8Zm2.63.086q-.838-.024-1.677-.053-2.061,2.013-4.135,4.021.83-.019,1.659-.047Q770.987,1078.853,773.056,1076.889Zm2.646.068-1.672-.042q-2.034,1.932-4.081,3.858.829-.031,1.658-.069Q773.661,1078.833,775.7,1076.957Zm2.664.053-1.669-.032q-2,1.839-4.009,3.673.83-.043,1.659-.092Q776.363,1078.788,778.366,1077.01Zm2.674.044-1.657-.026q-1.951,1.733-3.916,3.463.827-.052,1.651-.109Q779.085,1078.721,781.04,1077.054Zm2.68.036-1.636-.022q-1.894,1.617-3.8,3.23.818-.06,1.633-.124Q781.824,1078.634,783.72,1077.091Zm2.691.033-.7-.009-.914-.011q-1.825,1.487-3.661,2.973l1.612-.135Q784.585,1078.533,786.411,1077.124Zm2.689.035-1.581-.021q-1.741,1.346-3.494,2.692l1.577-.142Q787.357,1078.424,789.1,1077.159Zm2.686.04-1.535-.024q-1.642,1.194-3.3,2.389l1.529-.144Q790.14,1078.308,791.786,1077.2Zm2.671.049-1.471-.029q-1.527,1.03-3.062,2.062l1.458-.141Q792.926,1078.193,794.457,1077.247Zm2.646.064-1.381-.036-2.779,1.712,1.358-.131Zm2.609.08q-.625-.023-1.251-.041l-.325.179-2.1,1.161,1.2-.114.442-.212Zm2.528.1-1.048-.046-1.979.947.97-.087Zm2.375.116-.7-.036-1.334.526.557-.046Zm-180.346,15.467.059-.014-.064.012Zm-2.74.632,1.2-.278-.128-.029-1.253.247Zm-2.744.635,1.438-.333-.264-.085-1.461.293Zm-2.75.642,1.619-.378-.349-.149-1.624.329Zm-2.754.648,1.758-.414-.4-.221-1.749.359Zm-2.76.653,1.864-.441-.422-.3-1.842.382Zm-2.764.657,1.945-.463-.423-.374-1.914.4Zm-2.773.658.031,0,1.977-.473-.41-.453-1.968.417Zm-3.08.13q1.156.019,2.281-.06l-.351-.485q-1.139,0-2.3-.106Zm-3.11-.221q1.164.141,2.3.194l-.41-.712q-1.133-.135-2.288-.358Zm-3.037-.5q1.126.235,2.231.4l-.427-.941q-1.083-.237-2.182-.546Zm-2.9-.707q1.063.3,2.11.535l-.4-1.155q-1.012-.3-2.036-.667Zm174.654-25c-20.145-1.321-42.774,1.011-69.214,6.011-10,1.892-20.551,4.166-31.717,6.769,9.364-1.791,18.274-3.331,26.783-4.607,25.44-3.811,47.308-5.256,66.984-3.929h0q1.465.115,2.927.209Q765.4,1073.53,767.51,1071.3Zm2.639.191-1.75-.127q-2.1,2.224-4.221,4.447.844.051,1.687.1Q768.015,1073.7,770.15,1071.493Zm2.642.2-1.747-.131q-2.124,2.2-4.263,4.4.849.042,1.7.079Q770.642,1073.862,772.791,1071.689Zm2.64.2-1.74-.135q-2.133,2.158-4.282,4.315.85.034,1.7.064Q773.278,1074.016,775.431,1071.893Zm2.64.214-1.732-.142q-2.131,2.1-4.278,4.2.851.027,1.7.05Q775.925,1074.164,778.071,1072.107Zm2.635.227q-.858-.077-1.72-.15-2.117,2.029-4.252,4.06l1.7.039Q778.579,1074.309,780.706,1072.334Zm2.634.243q-.853-.081-1.709-.159-2.092,1.942-4.2,3.887l1.7.031Q781.242,1074.456,783.34,1072.577Zm2.624.262q-.845-.088-1.693-.171-2.054,1.84-4.127,3.685l1.69.024Q783.907,1074.607,785.964,1072.838Zm2.612.282q-.834-.094-1.671-.184-2,1.726-4.027,3.454l1.675.021Q786.573,1074.765,788.576,1073.121Zm2.6.307q-.822-.1-1.648-.2-1.943,1.6-3.9,3.195h.091l1.568.019Q789.241,1074.935,791.179,1073.428Zm2.586.334q-.808-.109-1.62-.212-1.868,1.452-3.75,2.911l1.634.023Q791.905,1075.12,793.765,1073.762Zm2.568.364q-.79-.117-1.583-.229-1.777,1.3-3.571,2.6l1.6.026Zm2.544.394q-.768-.124-1.539-.244l-3.361,2.273,1.558.033,2.283-1.409Zm2.516.427q-.739-.132-1.482-.257l-1.73,1.068-1.384.855,1.5.041Zm2.476.462q-.7-.136-1.4-.266l-2.824,1.557q.705.025,1.408.052Q802.465,1076.075,803.868,1075.409Zm2.424.495q-.644-.137-1.291-.27l-2.483,1.18q.645.03,1.287.062Q805.055,1076.385,806.293,1075.9Zm2.344.52q-.561-.13-1.123-.255-1.022.394-2.05.8c.366.021.731.042,1.095.066Q807.6,1076.723,808.636,1076.424Zm2.2.531-.834-.206q-.727.207-1.459.42l.758.059Q810.069,1077.088,810.835,1076.955Zm1.865.484-.227-.062-.5.083.063.006Zm-186.787,16.028,1.179-.305-.069-.011-1.243.284Zm-2.864.744,1.441-.375-.227-.053-1.476.339Zm-2.865.747,1.641-.428-.33-.109-1.656.383Zm-2.872.751,1.8-.471-.394-.173-1.8.42Zm-2.874.754,1.921-.5-.428-.242-1.905.447Zm-2.877.757,2.013-.53-.439-.316-1.988.47Zm-2.881.759,2.084-.55-.434-.391-2.051.488Zm-2.893.751.164-.029,1.982-.525-.417-.468-2.1.5Zm-3.092.395q1.188-.079,2.341-.263l-.383-.538q-1.163.1-2.356.1Zm-3.165.034q1.215.049,2.4.005l-.428-.757q-1.176-.036-2.378-.168Zm-3.128-.267q1.191.155,2.354.227l-.435-.977q-1.141-.152-2.3-.382Zm-3.02-.507q1.138.233,2.257.4l-.407-1.19q-1.082-.236-2.182-.536Zm3.149,3.052q-1.214-.083-2.455-.24c.73,2.982,1.456,6.017,2.187,9.069,6.673,27.9,13.678,57.183,26.783,58.984,15.5,2.129,33.28-4.29,52.11-15.966-16.145,8.909-31.416,13.56-44.974,11.717h0c-13.717-1.788-21.965-27.4-30.089-52.629C598.907,1108.694,597.725,1105.023,596.53,1101.438Zm3.28.084c-.836.017-1.683,0-2.539-.041,1.166,3.505,2.321,7.088,3.477,10.68,8.057,25.022,16.239,50.427,29.523,52.157h0c15.426,2.1,33.125-4.319,51.83-15.887-16.022,8.809-31.2,13.451-44.69,11.639h0c-13.894-1.719-23.194-24.082-32.589-46.67C603.164,1109.41,601.5,1105.412,599.81,1101.522Zm3.295-.246q-1.258.162-2.554.219c1.655,3.817,3.285,7.733,4.91,11.642,9.316,22.4,18.54,44.578,32.035,46.249l0,0c15.337,2.061,32.924-4.332,51.469-15.745-15.867,8.666-30.931,13.272-44.326,11.5h0c-14.081-1.661-24.326-21.223-34.879-41.375C607.57,1109.575,605.362,1105.359,603.1,1101.276Zm3.2-.6q-1.215.305-2.471.5c2.217,4.016,4.385,8.157,6.54,12.273,10.466,19.987,20.627,39.389,34.346,41.007h.006c15.1,2,32.381-4.212,50.562-15.246l.161-.123c-15.569,8.373-30.379,12.848-43.578,11.122h0c-14.266-1.607-25.361-18.7-36.968-36.583C612.085,1109.284,609.235,1104.9,606.3,1100.674Zm3.057-.863-2.291.657-.059.016c2.885,4.166,5.692,8.488,8.468,12.766,11.516,17.742,22.524,34.7,36.466,36.272h.006c14.111,1.848,30.121-3.493,46.949-13.14l.983-.781c-14.523,7.385-28.363,11.273-40.785,9.672h0c-14.433-1.555-26.292-16.431-38.851-32.185C616.7,1108.639,613.1,1104.118,609.362,1099.811Zm3.047-.876-2.315.665c3.667,4.244,7.209,8.686,10.7,13.062,12.466,15.638,24.238,30.4,38.383,31.929h.006c13.137,1.695,27.908-2.834,43.417-11.177.515-.42,1.031-.846,1.546-1.271-13.416,6.376-26.226,9.67-37.813,8.2h0c-14.57-1.506-27.1-14.361-40.5-28.108C621.479,1107.776,617.037,1103.222,612.409,1098.935Zm3.042-.874-1.591.457-.675.194c4.529,4.213,8.877,8.673,13.137,13.043,13.311,13.654,25.759,26.423,40.079,27.9h.008c12.17,1.546,25.731-2.234,39.946-9.352q.988-.828,1.978-1.667c-12.292,5.4-24.053,8.112-34.781,6.772h0c-14.657-1.458-27.762-12.452-41.88-24.3C626.446,1106.732,621.081,1102.232,615.451,1098.061Zm3.036-.872-2.2.633c5.489,4.092,10.726,8.485,15.829,12.766,14.036,11.775,27.066,22.705,41.512,24.14h.008c11.22,1.4,23.606-1.694,36.564-7.678q1.174-1.007,2.349-2.03c-11.178,4.479-21.9,6.67-31.769,5.462h0c-14.68-1.4-28.245-10.674-42.937-20.715C631.647,1105.532,625.249,1101.16,618.487,1097.189Zm3.03-.87-2.117.607c6.571,3.891,12.8,8.145,18.832,12.268,14.62,9.991,28.117,19.215,42.622,20.6h.009c10.289,1.261,21.543-1.228,33.289-6.176q1.315-1.154,2.632-2.326c-10.079,3.628-19.776,5.337-28.775,4.256h0c-14.609-1.347-28.492-9.011-43.579-17.34C637.144,1104.187,629.576,1100.01,621.516,1096.319Zm3.024-.868-2.006.575c7.806,3.616,15.148,7.669,22.226,11.576,15.027,8.3,28.854,15.93,43.318,17.26h.009c9.371,1.124,19.523-.818,30.09-4.819q1.441-1.292,2.882-2.6c-9,2.853-17.688,4.131-25.824,3.177v0c-14.4-1.28-28.417-7.448-43.666-14.159C643.041,1102.7,634.123,1098.781,624.541,1095.452Zm3.017-.865-1.869.535c9.254,3.265,17.89,7.064,26.16,10.7,15.2,6.69,29.172,12.839,43.457,14.106h.01c8.467.994,17.553-.467,26.981-3.619q1.554-1.424,3.11-2.869a61.177,61.177,0,0,1-22.931,2.244h0c-13.992-1.2-27.886-5.978-42.985-11.17C649.5,1101.081,638.977,1097.464,627.558,1094.587Zm3.013-.862-1.7.485c11,2.834,21.168,6.328,30.839,9.654,15.056,5.178,28.911,9.943,42.818,11.135h.011c7.578.868,15.631-.178,23.958-2.577q1.658-1.548,3.316-3.119a60.933,60.933,0,0,1-20.115,1.451h0c-13.267-1.1-26.66-4.6-41.151-8.382C656.79,1099.3,644.3,1096.042,630.571,1093.725Zm3-.858-1.473.421c13.2,2.3,25.251,5.449,36.625,8.419,14.457,3.776,27.818,7.266,41.036,8.361h.009a61.254,61.254,0,0,0,21.034-1.7q1.749-1.663,3.5-3.348a61.554,61.554,0,0,1-17.367.8h0c-12.041-.966-24.336-3.309-37.525-5.823C665.4,1097.333,650.372,1094.471,633.572,1092.867Zm3-.855-1.194.34c16.124,1.633,30.611,4.392,44.153,6.973,13.164,2.508,25.437,4.847,37.452,5.811H717a61.768,61.768,0,0,0,18.2-.982q1.832-1.773,3.662-3.567a63.333,63.333,0,0,1-14.7.3h0c-9.9-.77-20.081-2.115-30.834-3.536C676.281,1095.1,657.783,1092.66,636.575,1092.012Zm2.981-.848-.814.232c20.341.742,38.185,3.1,54.673,5.278,10.73,1.418,20.886,2.76,30.8,3.531h.01a63.441,63.441,0,0,0,15.456-.422q1.909-1.876,3.813-3.773a66.924,66.924,0,0,1-12.1-.05h0c-5.881-.444-12-.989-18.3-1.55C691.564,1092.494,667.875,1090.386,639.556,1091.164Zm3-.848-.326.092c27.167-.578,50.059,1.459,70.926,3.318,6.219.554,12.258,1.092,18.288,1.547h.008a67.01,67.01,0,0,0,12.8-.022q1.977-1.971,3.947-3.963a73.637,73.637,0,0,1-9.582-.261h0c-18.055-1.323-37.445-2.55-59.661-2.339C667.629,1088.8,655.56,1089.282,642.552,1090.316Zm129.709-24.056c-27.141-1.259-59.03,5.034-98.486,15.464q12.725-2.867,24.394-5.089c26.5-5.013,49.194-7.348,69.405-6.021h0l.547.039Q770.2,1068.457,772.261,1066.26Zm2.767.164c-.62-.042-1.238-.084-1.861-.119q-2.069,2.205-4.154,4.413l1.761.129Q772.909,1068.635,775.028,1066.424Zm2.742.209c-.612-.053-1.225-.107-1.842-.151q-2.121,2.214-4.26,4.432l1.76.132Q775.609,1068.838,777.77,1066.633Zm2.716.256c-.606-.066-1.219-.119-1.832-.174q-2.155,2.2-4.328,4.4l1.754.137Q778.292,1069.069,780.486,1066.889Zm2.669.328c-.6-.078-1.2-.149-1.8-.221q-2.174,2.161-4.368,4.329l1.747.146Q780.956,1069.341,783.155,1067.217Zm2.636.38c-.586-.09-1.167-.188-1.757-.271q-2.181,2.109-4.385,4.223.87.075,1.737.154Q783.6,1069.647,785.791,1067.6Zm2.612.43q-.869-.155-1.746-.3-2.163,2.023-4.347,4.055.866.08,1.729.164Q786.231,1069.984,788.4,1068.026Zm2.576.484c-.572-.116-1.15-.219-1.727-.325q-2.132,1.924-4.287,3.856.86.087,1.716.177Q788.843,1070.361,790.98,1068.511Zm2.524.554q-.837-.191-1.679-.375-2.091,1.809-4.2,3.63.85.092,1.7.191Q791.421,1070.782,793.5,1069.065Zm2.5.6c-.548-.139-1.095-.282-1.646-.412q-2.034,1.677-4.088,3.367.84.1,1.679.206Q793.988,1071.242,796,1069.668Zm2.472.651c-.541-.152-1.086-.292-1.632-.433q-1.955,1.527-3.932,3.067.83.108,1.657.222l3.144-2.3Zm2.417.72c-.527-.163-1.057-.317-1.587-.473l-1.186.868-2.571,1.88q.816.117,1.628.241l.6-.406Zm2.378.772c-.51-.171-1.016-.351-1.528-.516l-3.568,2.414q.8.125,1.6.259Q801.532,1072.881,803.272,1071.81Zm2.35.818q-.747-.273-1.5-.531-1.652,1.015-3.321,2.045.778.135,1.552.277Q804,1073.516,805.622,1072.627Zm2.3.871c-.481-.189-.965-.368-1.449-.549q-1.517.827-3.05,1.669.749.143,1.494.294Q806.427,1074.2,807.921,1073.5Zm2.233.924c-.452-.192-.9-.386-1.357-.573q-1.373.639-2.758,1.294.713.15,1.424.307Q808.816,1074.93,810.155,1074.423Zm2.188.954c-.422-.191-.843-.382-1.267-.566q-1.2.449-2.4.913.661.152,1.32.311Q811.172,1075.7,812.342,1075.377Zm2.1.981c-.377-.182-.758-.354-1.138-.531q-.98.266-1.968.543.581.148,1.16.3Q813.476,1076.508,814.445,1076.358Zm1.932.971c-.283-.145-.565-.292-.849-.436q-.706.106-1.416.218c.292.081.582.164.873.249Q815.683,1077.341,816.378,1077.329Zm1.684.863c-.117-.063-.237-.119-.354-.182l-.544,0,.282.089C817.65,1078.132,817.856,1078.163,818.061,1078.193Zm-1.264-1.485c.392.2.785.4,1.173.6,25.8-.153,47.562,7.478,58.549,46.823,4.85,13.186,9.447,24.475,13.883,34.057a344.631,344.631,0,0,1-14.537-39.457l-.007-.021v-.009C866.979,1076.869,844.222,1072.8,816.8,1076.708Zm-2.372-1.181q.656.311,1.309.635c28.194-4.205,51.68-.548,60.8,42.389,2.911,9.37,5.791,17.772,8.66,25.279-3.2-8.829-6.307-19.023-9.329-30.729l0-.014,0-.018c-.124-.794-.254-1.569-.388-2.335q-.457-1.253-.862-2.6-.7-1.75-1.286-3.719-.719-1.769-1.309-3.776a45.9,45.9,0,0,1-2.771-10.485c-8.66-17.59-23.159-20.442-40.525-17.744A138.744,138.744,0,0,0,814.425,1075.526Zm-2.338-1.094c.459.206.913.427,1.369.64a142.65,142.65,0,0,1,15.153-3.348c17.1-2.656,31.458-.029,40.342,16.325q-.445-3.662-.568-7.89c-6.558-11.456-16.573-14.527-28.7-13.237C831.344,1067.809,822,1070.744,812.087,1074.433Zm-2.374-1.009c.486.2.973.406,1.457.617,10.207-3.825,19.84-6.889,28.44-7.8,12.042-1.281,22.044,1.622,28.74,12.462q-.047-3.208.089-6.739c-5.186-8.4-12.734-11.23-21.906-10.645C836.032,1061.984,823.386,1067.086,809.713,1073.424Zm-2.375-.945c.508.192,1.016.381,1.519.584,13.955-6.49,26.876-11.75,37.632-12.436,9.141-.582,16.707,2.11,22,10.088q.144-3,.419-6.243c-4.233-6.612-10.221-9.168-17.51-8.976C839.531,1055.807,824.178,1063.33,807.338,1072.478Zm-2.388-.891c.515.182,1.026.377,1.538.568,17.12-9.317,32.749-17.029,44.9-17.349,7.28-.192,13.3,2.246,17.627,8.53q.262-2.88.633-5.943a16.294,16.294,0,0,0-14.518-7.906C842.333,1049.4,824.61,1059.53,804.951,1071.588Zm-2.426-.82q.791.261,1.577.534c19.943-12.243,37.945-22.59,51.029-22.5,6.033.041,11.013,2.276,14.647,7.521q.349-2.781.785-5.714a14.442,14.442,0,0,0-12.442-7.277C844.688,1042.84,824.791,1055.727,802.524,1070.767Zm-2.459-.756c.545.159,1.089.317,1.629.487,22.545-15.235,42.715-28.357,56.451-27.858a14.969,14.969,0,0,1,12.575,6.922q.412-2.69.895-5.505c-2.651-4.561-6.379-6.72-10.993-7.01C846.739,1036.176,824.8,1051.937,800.066,1070.011Zm-2.481-.7q.829.221,1.651.457c25.01-18.282,47.222-34.3,61.429-33.405a13.509,13.509,0,0,1,11.13,6.659q.455-2.592.971-5.291c-2.348-4.5-5.737-6.69-9.992-7.059-14.117-1.224-37.813,17.271-64.7,38.26Zm-2.5-.651c.557.136,1.108.289,1.661.433l.9-.7c27.006-21.079,50.8-39.653,65.186-38.406a12.393,12.393,0,0,1,10.136,6.692q.481-2.47,1.013-5.03c-2.093-4.673-5.254-6.992-9.311-7.432-13.938-1.511-38.492,18.766-66.641,42.013Zm-2.558-.573c.568.125,1.139.25,1.7.382l3.36-2.774c28.268-23.345,52.926-43.709,67.154-42.167,4.064.44,7.273,2.64,9.467,7.024q.489-2.32,1.02-4.71c-1.855-5.093-4.868-7.64-8.853-8.151-13.733-1.759-39.057,20.211-68.371,45.643Q795.29,1065.69,792.527,1068.083Zm-2.581-.522c.583.108,1.167.215,1.744.335q2.958-2.56,5.867-5.086c29.439-25.54,54.87-47.6,68.908-45.8,3.989.511,7.055,2.917,9.026,7.669l.366-1.616c.208-.91.409-1.8.605-2.686-1.6-5.78-4.508-8.672-8.525-9.259-13.508-1.975-39.529,21.6-69.928,49.15Q794.026,1063.873,789.946,1067.56Zm-2.6-.472c.587.1,1.171.205,1.754.312q4.274-3.857,8.451-7.648c30.531-27.665,56.663-51.344,70.49-49.322,4.006.585,6.974,3.29,8.715,8.623q.442-2.021.842-3.946c-1.3-6.638-4.122-9.948-8.211-10.614-13.27-2.159-39.924,22.946-71.343,52.541Q792.777,1061.993,787.344,1067.089Zm-2.64-.411c.594.088,1.184.182,1.775.276q5.628-5.267,11.09-10.423c31.553-29.721,58.32-54.933,71.926-52.718,4.052.659,6.932,3.708,8.42,9.729q.363-1.8.69-3.51c-.957-7.655-3.678-11.449-7.865-12.194-13.029-2.319-40.26,24.237-72.637,55.811C793.724,1057.92,789.25,1062.282,784.7,1066.678Zm-2.681-.344c.606.072,1.213.143,1.814.224,4.679-4.522,9.282-9.011,13.786-13.4,32.514-31.708,59.862-58.378,73.236-56,4.111.732,6.9,4.157,8.107,10.945q.273-1.5.516-2.924c-.549-8.851-3.157-13.2-7.461-14.029-12.782-2.456-40.542,25.479-73.822,58.967C792.933,1055.417,787.529,1060.855,782.023,1066.333Zm-2.705-.3c.615.058,1.227.119,1.835.188,5.637-5.607,11.169-11.172,16.558-16.594,33.419-33.629,61.3-61.684,74.44-59.159,4.16.8,6.839,4.6,7.746,12.18q.168-1.064.319-2.09c-.069-10.232-2.539-15.216-6.973-16.127-12.536-2.572-40.782,26.673-74.913,62.011C792.166,1052.83,785.809,1059.41,779.318,1066.037Zm-2.728-.248c.619.049,1.23.109,1.845.166,6.625-6.761,13.112-13.476,19.4-19.985,34.276-35.488,62.642-64.857,75.548-62.209,4.157.853,6.706,4.962,7.331,13.162l.084-.7c.5-11.823-1.8-17.525-6.381-18.521-12.289-2.672-40.983,27.819-75.921,64.946C791.421,1050.164,784.092,1057.95,776.59,1065.789Zm-2.773-.179c.626.038,1.251.076,1.874.121,7.64-7.979,15.1-15.908,22.3-23.557,35.085-37.283,63.9-67.9,76.57-65.148,3.926.852,6.3,4.846,6.827,12.745.721-12.005-1.4-17.811-5.843-18.826-12.045-2.755-41.151,28.92-76.853,67.775C790.693,1047.427,782.364,1056.492,773.817,1065.611Zm-143.288,27.408,1.087-.311-1.16.3Zm-2.983.853,1.434-.41-.179-.029-1.481.382Zm-2.987.856,1.656-.475-.3-.074-1.68.436Zm-2.987.856,1.829-.525-.379-.129-1.836.479Zm-2.993.86,1.968-.565-.426-.192-1.96.512Zm-2.992.859,2.075-.6-.448-.26-2.057.54Zm-3,.861,1.079-.31,1.078-.309-.453-.331-2.129.56Zm-3,.86,2.22-.638-.442-.4-2.184.575Zm-3,.856c.1-.026.193-.05.289-.077l1.98-.569-.42-.479-2.224.588Zm-3.115.65q1.221-.179,2.4-.464l-.406-.579q-1.189.2-2.412.3Zm-3.223.285q1.263-.045,2.489-.19l-.441-.79q-1.217.061-2.466.024Zm-3.22-.036q1.253.071,2.474.055l-.442-1.007q-1.2-.062-2.422-.211Zm-3.138-.3q1.211.162,2.394.248l-.408-1.214q-1.15-.162-2.321-.392ZM571.391,961.4h-4.924c-12.884,2.75-27.493,12.7-42.306,22.8-16.876,11.5-34.018,23.178-49.033,24.49a25.637,25.637,0,0,1-14.886-2.9v.8a26.365,26.365,0,0,0,14.946,2.794c15.193-1.327,32.412-13.059,49.362-24.609C541.191,973.428,557.574,962.268,571.391,961.4Zm367.466,210.983v-.74a60.564,60.564,0,0,1-7.472,2.475h2.545Q936.363,1173.376,938.856,1172.385ZM460.241,1022.146a23.619,23.619,0,0,0,7.216.3c11.363-1.167,24.257-9.248,37.33-17.441,16.549-10.372,33.386-20.923,47.982-18.026h0c12.236,2.539,16.629,21.453,21.772,43.6,1.806,7.778,3.706,15.956,6.067,23.955-2.479-9.687-4.191-19.6-5.787-28.837-3.788-21.924-6.924-40.072-18.054-42.357h0c-14.428-2.839-31.5,8.04-48.4,18.8-13.783,8.783-27.45,17.491-39.579,18.7a24.642,24.642,0,0,1-8.553-.551v-.723a23.756,23.756,0,0,0,8.486.587c11.966-1.191,25.564-9.856,39.277-18.593,17.011-10.839,34.2-21.794,48.9-18.9h0c11.594,2.376,14.767,20.737,18.6,42.916,1.244,7.2,2.559,14.806,4.251,22.392-1.753-9.416-2.847-18.845-3.859-27.585-2.524-21.776-4.55-39.253-14.993-41.367h0c-14.525-2.835-31.949,8.439-49.3,19.667-14.421,9.332-28.795,18.632-41.535,19.864a24.836,24.836,0,0,1-9.826-.89v-.732a24,24,0,0,0,9.76.936c12.572-1.216,26.874-10.47,41.224-19.756,17.47-11.3,35.011-22.654,49.808-19.766h0c10.937,2.213,12.989,19.911,15.544,41.964.767,6.617,1.58,13.629,2.691,20.729-1.1-9.057-1.644-17.972-2.148-26.2-1.316-21.476-2.34-38.2-12.09-40.141h0c-14.626-2.829-32.4,8.835-50.2,20.521-15.055,9.881-30.135,19.78-43.49,21.036a25.117,25.117,0,0,1-11.1-1.283v-.748a24.3,24.3,0,0,0,11.038,1.345c13.178-1.24,28.189-11.093,43.174-20.929,17.921-11.763,35.81-23.5,50.712-20.62h0c10.271,2.048,11.31,19,12.643,40.778.37,6.023.761,12.419,1.376,18.968-.516-8.615-.587-16.981-.653-24.667-.177-21.038-.312-36.945-9.369-38.722h0c-14.729-2.827-32.846,9.223-51.1,21.365-15.689,10.435-31.48,20.939-45.446,22.219a25.465,25.465,0,0,1-12.38-1.731v-.763a24.684,24.684,0,0,0,12.318,1.808c13.79-1.264,29.509-11.72,45.127-22.109,18.372-12.22,36.605-24.348,51.612-21.467h0c9.608,1.884,9.745,18.036,9.926,39.394.046,5.4.094,11.141.3,17.065-.011-8.082.322-15.842.626-22.955.877-20.477,1.522-35.533-6.85-37.147h0c-14.835-2.825-33.295,9.606-51.994,22.2-16.32,10.992-32.823,22.106-47.4,23.41a25.882,25.882,0,0,1-13.661-2.236v-.773a25.138,25.138,0,0,0,13.6,2.324c14.4-1.288,30.83-12.353,47.078-23.3,18.818-12.673,37.394-25.184,52.509-22.305h0c8.956,1.726,8.3,17.033,7.409,37.852-.2,4.743-.419,9.776-.537,15,.413-7.453,1.072-14.55,1.676-21.047,1.84-19.81,3.157-33.991-4.544-35.446a22.611,22.611,0,0,0-2.7-.339h4.012c6.99,2.713,5.692,16.7,3.913,35.847-1.307,14.076-2.876,30.971-1.627,48.19q.325,3.536.808,7.08.515,3.246,1.175,6.473.685,3,1.508,5.958.821,2.7,1.765,5.336.945,2.44,2,4.807,1.029,2.134,2.153,4.182,1.086,1.834,2.251,3.575l.087.085q1.086.8,2.151,1.645,1.2.712,2.372,1.471,1.31.626,2.6,1.3,1.421.537,2.817,1.116,1.525.446,3.025.928,1.638.355,3.25.743,1.755.262,3.482.554,1.861.165,3.692.359,1.966.066,3.9.159,2.1-.035,4.169-.044,2.213-.138,4.389-.252,2.341-.246,4.643-.468,2.455-.354,4.869-.686,2.575-.466,5.106-.91,2.7-.582,5.352-1.141,2.842-.7,5.634-1.384c48.969-13.615,87.045-22.349,118.688-20.765,8.681-9.258,17.142-18.465,25.263-27.3,35.851-39.017,65.078-70.825,77.514-67.981,5.523,1.263,7.729,9.219,5.732,26.191-.1,2.381-.311,5-.636,7.864q-.146,3.614-.616,7.927-.138,3.636-.587,7.943-.13,3.7-.562,8.058-.119,3.709-.524,8.047-.1,3.774-.488,8.168-.086,3.791-.438,8.173-.063,3.836-.383,8.248-.035,3.882-.318,8.323,0,3.9-.237,8.333.025,2.446-.036,5.093.133,5.37.421,10.31.636,8.734,1.661,16.257a18.275,18.275,0,0,0,8.03,4.014c12.636,2.89,31.064-4.99,52.138-18.763v.792c-21.091,13.725-39.558,21.557-52.291,18.644a18.984,18.984,0,0,1-7.739-3.677l.094.659.005.035v0q.118.766.239,1.521a18.849,18.849,0,0,0,9.846,5.343c12.372,2.6,29.907-4.691,49.846-17.476v.787c-19.953,12.738-37.525,19.98-49.986,17.364a19.51,19.51,0,0,1-9.52-4.875c.109.658.22,1.306.333,1.951a19.6,19.6,0,0,0,11.7,6.834c12.065,2.294,28.685-4.406,47.471-16.207v.787c-18.8,11.753-35.45,18.407-47.6,16.1a20.19,20.19,0,0,1-11.344-6.211q.148.82.3,1.627a20.511,20.511,0,0,0,13.637,8.524c11.714,1.981,27.393-4.137,45.006-14.956v.783c-17.62,10.77-33.328,16.848-45.119,14.854a21,21,0,0,1-13.231-7.7c.083.417.164.834.249,1.244a21.584,21.584,0,0,0,15.664,10.425c11.31,1.664,26.021-3.892,42.436-13.731v.781c-16.421,9.791-31.157,15.307-42.536,13.633a21.956,21.956,0,0,1-15.193-9.334c.056.265.114.523.172.786,4.3,7.714,10.38,11.632,17.8,12.55,10.847,1.343,24.559-3.659,39.755-12.525v.776c-15.2,8.819-28.93,13.785-39.839,12.435-7.043-.872-12.907-4.355-17.234-11.092l.043.182c4.687,9.505,11.583,14.1,20.082,14.948,10.318,1.023,23-3.441,36.948-11.343v.776c-13.948,7.855-26.643,12.28-37.016,11.253-7.721-.766-14.151-4.531-18.852-12.117,5.095,10.6,12.621,15.515,21.864,16.19,9.714.71,21.327-3.236,34-10.183v.772c-12.671,6.9-24.294,10.813-34.053,10.1-8.342-.609-15.319-4.57-20.422-12.882,5.554,11.447,13.675,16.545,23.564,16.993,9.027.409,19.534-3.034,30.911-9.044v.766c-11.366,5.966-21.879,9.378-30.94,8.967-9.009-.408-16.581-4.564-22.135-13.68,6.075,12.388,14.84,17.664,25.417,17.831,8.25.13,17.61-2.828,27.658-7.923v.763c-10.034,5.051-19.394,7.979-27.67,7.849-9.741-.154-17.975-4.515-24.042-14.575,6.672,13.487,16.147,18.942,27.47,18.765,7.378-.116,15.548-2.608,24.242-6.814v.758c-8.676,4.164-16.839,6.629-24.234,6.744-10.514.164-19.462-4.391-26.109-15.5,7.351,14.707,17.58,20.324,29.679,19.73,6.409-.315,13.348-2.366,20.664-5.722v.752c-7.293,3.316-14.219,5.343-20.632,5.658-11.356.558-21.091-4.21-28.4-16.572,8.134,16.153,19.176,21.941,32.1,20.841a55.137,55.137,0,0,0,16.933-4.633v.745a55.466,55.466,0,0,1-16.876,4.576c-12.222,1.04-22.785-3.922-30.851-17.685,5.963,11.723,13.163,18.3,21.325,20.92h-2.074c-6.762-2.712-12.832-8.233-18.048-17.257,3.971,7.758,8.35,13.406,13.094,17.257h-1.092a50.945,50.945,0,0,1-10.888-13.753,70.348,70.348,0,0,0,9,13.753h-.909a67.693,67.693,0,0,1-7.055-10.386,93.462,93.462,0,0,0,6.2,10.386h-.836q-2.354-3.432-4.641-7.581,2.129,4.091,4.265,7.581h-.8q-1.883-3.11-3.758-6.667,1.815,3.526,3.6,6.667h-.788c-6.9-12.214-14.06-28.551-21.856-49.75l-.008-.027c-10.663-38.217-31.644-46.2-56.609-46.333.3.166.6.339.9.508,23.437,3.871,43.508,15.414,56.353,51.214h0c7.826,18.191,14.738,32.84,21.114,44.388h-.782c-6.347-11.532-13.215-26.1-20.967-44.115l-.007-.021c-12.36-34.468-31.5-46.264-53.912-50.438.14.083.278.172.417.255q3.232,1.209,6.378,2.665c18.422,8.556,34.586,23.943,47.754,52.872,7.626,15.287,14.239,28.139,20.17,38.781h-.786c-5.9-10.6-12.461-23.354-20.005-38.479l-.006-.011c-13.089-28.761-29.136-44.048-47.415-52.537q-1.409-.654-2.836-1.256c18.284,11.912,34.681,30.926,50.864,59.1,3.042,5.294,5.406,9.427,7.667,13.378,4.127,7.213,7.9,13.808,11.387,19.81h-.8c-3.432-5.913-7.14-12.393-11.188-19.467-2.6-4.537-5.334-9.322-7.664-13.378-17.107-29.778-34.466-49.28-54.072-60.942q-2.225-.823-4.488-1.539-2.641-.372-5.334-.632c-1.921.086-3.861.205-5.817.347-2.07.4-4.16.814-6.264,1.243l-3.058.938-3.57,1.095q-3.421,1.353-6.88,2.689-3.5,1.629-7.028,3.205-3.579,1.862-7.179,3.639-3.573,2.011-7.158,3.914-3.571,2.129-7.143,4.13-3.587,2.234-7.167,4.322-3.566,2.3-7.119,4.432-3.528,2.332-7.041,4.5-3.514,2.371-7.01,4.568-3.441,2.361-6.862,4.547-3.439,2.392-6.854,4.6-3.488,2.454-6.95,4.716-3.382,2.4-6.735,4.612-3.37,2.409-6.71,4.633-3.417,2.459-6.8,4.727c-23.8,17.2-46.469,27.559-65.7,24.916-13.573-1.865-20.634-31.385-27.362-59.507-.751-3.141-1.5-6.263-2.249-9.329-16.61-2.38-36.625-14.257-56.086-25.809-16.836-9.993-33.256-19.741-46.615-22.828-12.368-2.858-22.28-.474-30.4,1.94v-.717c8.162-2.418,18.118-4.769,30.554-1.895,13.464,3.112,29.93,12.886,46.812,22.907,19.3,11.457,39.15,23.237,55.558,25.684l-.347-1.405c-15.274-3.257-33.217-14.8-50.895-26.172-16.832-10.829-33.425-21.5-47.15-24.662-13.62-3.111-24.779.748-33.965,3.925l-.567.2v-.728l.343-.119c9.271-3.206,20.533-7.1,34.343-3.947,13.842,3.185,30.484,13.892,47.368,24.754,17.5,11.26,35.268,22.687,50.337,26.007l-.347-1.381c-13.994-4.044-30.011-15.263-45.961-26.438-16.715-11.71-33.358-23.37-47.419-26.59h0c-13.589-3.067-25.211,1.368-34.994,5.1-1.253.479-2.476.946-3.671,1.384v-.736c1.116-.412,2.257-.848,3.425-1.294,9.871-3.768,21.6-8.244,35.393-5.129h0c14.187,3.249,30.887,14.948,47.659,26.7,15.762,11.043,31.59,22.13,45.372,26.231l-.344-1.348c-12.776-4.745-27.019-15.664-41.318-26.628-16.481-12.637-33.038-25.332-47.389-28.6h0c-13.585-3.032-25.653,1.955-36.014,6.237-2.348.97-4.61,1.906-6.785,2.7v-.735c2.091-.776,4.267-1.675,6.522-2.606,10.453-4.32,22.628-9.352,36.426-6.272h0c14.5,3.3,31.116,16.043,47.656,28.725,14.094,10.807,28.134,21.57,40.69,26.362l-.341-1.307c-11.631-5.365-24.255-16.013-37-26.761-16.12-13.6-32.432-27.359-47.027-30.666h0c-13.6-3-26.1,2.516-37.019,7.337-3.463,1.529-6.769,2.988-9.911,4.089v-.731c3.049-1.083,6.266-2.5,9.633-3.99,11.018-4.863,23.627-10.428,37.447-7.377h0c14.762,3.345,31.137,17.159,47.321,30.812,12.521,10.562,24.927,21.025,36.322,26.422q-.167-.632-.337-1.259c-10.563-5.914-21.726-16.33-33.02-26.871-15.634-14.589-31.525-29.42-46.3-32.751h0c-13.628-2.977-26.548,3.051-38.015,8.4a117.509,117.509,0,0,1-13.05,5.495v-.724A119.21,119.21,0,0,0,473,1038.639c11.57-5.4,24.6-11.481,38.453-8.455h0c14.96,3.371,30.921,18.266,46.623,32.92,11.058,10.319,21.986,20.518,32.3,26.441l-.331-1.2c-9.585-6.4-19.44-16.641-29.413-27-15.02-15.6-30.308-31.475-45.192-34.809v0c-13.665-2.955-27,3.569-39,9.444-5.726,2.8-11.153,5.459-16.2,6.887v-.716c4.934-1.424,10.269-4.036,15.9-6.79,12.107-5.925,25.552-12.5,39.448-9.5h0c15.091,3.379,30.452,19.332,45.542,35,9.716,10.09,19.321,20.063,28.629,26.448q-.161-.57-.323-1.135c-8.7-6.859-17.4-16.973-26.176-27.182-14.281-16.606-28.778-33.463-43.686-36.782h0c-13.713-2.934-27.445,4.071-39.974,10.461-6.865,3.5-13.372,6.821-19.357,8.248v-.71c5.86-1.429,12.277-4.7,19.044-8.155,12.632-6.444,26.478-13.507,40.431-10.521h0c15.134,3.368,29.708,20.314,44.064,37.007,8.5,9.886,16.927,19.682,25.318,26.481q-.156-.532-.313-1.056c-7.9-7.293-15.582-17.36-23.3-27.471-13.422-17.6-26.95-35.327-41.787-38.608h0c-13.77-2.917-27.9,4.555-40.939,11.455-8.006,4.235-15.607,8.256-22.525,9.566v-.7c6.779-1.316,14.293-5.29,22.2-9.475,13.15-6.956,27.39-14.489,41.4-11.52h0c15.086,3.334,28.69,21.167,42.189,38.863,7.413,9.717,14.794,19.392,22.348,26.571q-.15-.488-.3-.968c-7.19-7.729-13.971-17.823-20.734-27.893-12.453-18.542-24.851-37-39.517-40.219h0c-13.835-2.9-28.347,5.027-41.894,12.428-9.149,5-17.862,9.758-25.7,10.833v-.695c7.69-1.083,16.316-5.8,25.372-10.743,13.656-7.461,28.284-15.452,42.366-12.5h0c14.937,3.278,27.412,21.852,39.944,40.511,6.431,9.574,12.876,19.171,19.659,26.706q-.144-.442-.288-.875c-6.539-8.172-12.508-18.355-18.412-28.427-11.383-19.42-22.523-38.426-36.917-41.56h0c-13.9-2.887-28.8,5.486-42.841,13.384-9.883,5.557-19.352,10.882-27.84,11.938-.351.044-.7.078-1.046.107V1034c.32-.027.64-.059.963-.1,8.353-1.04,17.764-6.332,27.587-11.855,14.155-7.96,29.163-16.4,43.321-13.457h0c14.688,3.2,25.9,22.333,37.365,41.887,5.522,9.421,11.1,18.94,17.14,26.794l-.024-.069q-.129-.361-.252-.724c-5.9-8.607-11.1-18.886-16.2-28.954-10.224-20.2-20.018-39.551-34.042-42.579h0c-13.983-2.875-29.248,5.934-43.782,14.322-10.546,6.086-20.711,11.952-29.8,13.034q-1.15.137-2.276.169v-.693q1.086-.03,2.2-.161c8.956-1.067,19.058-6.9,29.54-12.946,14.646-8.453,30.029-17.33,44.266-14.4h0c14.346,3.1,24.212,22.59,34.513,42.944,4.686,9.257,9.462,18.694,14.781,26.823l-.179-.574c-5.306-9.054-9.8-19.485-14.164-29.594-9-20.86-17.4-40.341-30.963-43.244h0c-14.062-2.865-29.7,6.372-44.716,15.245-11.2,6.618-22.062,13.034-31.761,14.143a24.909,24.909,0,0,1-3.517.159v-.693a23.926,23.926,0,0,0,3.439-.152c9.553-1.091,20.352-7.472,31.488-14.051,15.131-8.939,30.884-18.246,45.207-15.326h0c13.916,2.978,22.385,22.616,31.454,43.646,3.952,9.164,8.02,18.595,12.693,27.005l-.076-.276c-4.771-9.552-8.63-20.24-12.325-30.478-7.715-21.373-14.72-40.778-27.755-43.541h0c-14.147-2.857-30.148,6.8-45.643,16.154-11.852,7.153-23.41,14.131-33.717,15.265a24.623,24.623,0,0,1-4.767.079v-.7a23.59,23.59,0,0,0,4.692-.067c10.154-1.117,21.649-8.056,33.435-15.17,15.608-9.421,31.727-19.15,46.138-16.238h0c13.409,2.842,20.477,22.421,28.261,43.984,3.234,8.958,6.592,18.262,10.574,26.833-4.152-9.943-7.337-20.749-10.354-30.983-6.405-21.724-12.048-40.866-24.487-43.479h0c-14.237-2.851-30.6,7.221-46.568,17.049-12.5,7.693-24.757,15.239-35.671,16.4a24.5,24.5,0,0,1-6.023-.066v-.7a23.6,23.6,0,0,0,5.951.083c10.755-1.143,22.95-8.649,35.382-16.3,16.082-9.9,32.561-20.043,47.064-17.137h0c12.845,2.7,18.544,22.024,25.011,43.96,2.468,8.373,5.05,17.128,8.18,25.471-3.286-9.877-5.7-20.254-7.961-30-5.089-21.908-9.435-40.623-21.234-43.073h0c-14.333-2.845-31.052,7.633-47.486,17.931-13.143,8.237-26.105,16.361-37.624,17.544a24.527,24.527,0,0,1-7.287-.279Zm416.293,12.288h0m-.026,100.9,0,0m.023-100.908v0" transform="translate(-460.241 -961.402)" fill="#00cc8f" fill-rule="evenodd" opacity="0.25"/>
</svg>
