<svg xmlns="http://www.w3.org/2000/svg" width="1521.386" height="676.171" viewBox="0 0 1521.386 676.171">
  <path id="Path_99895" data-name="Path 99895" d="M1789.276,1163.325l-.582,3.3.057.509c.179-1.281.357-2.553.525-3.812m-.259-14.392q-.8,4.147-1.66,8.438.19,1.056.368,2.142.749-4.39,1.42-8.6C1789.105,1150.246,1789.062,1149.588,1789.016,1148.933Zm2.151-11.568-.745,4.1.073.618Q1790.843,1139.695,1791.168,1137.365ZM1243.755,1500.13l-.089.073.1-.08Zm544.135-362.1q-1.138,5.377-2.381,10.982c.248.927.482,1.874.711,2.847q1.087-5.538,2.063-10.823C1788.163,1140.012,1788.031,1139.012,1787.89,1138.029Zm2.956-14.422q-.856,4.338-1.781,8.824c.132.7.261,1.42.384,2.145q.807-4.563,1.531-8.942C1790.938,1124.95,1790.893,1124.278,1790.845,1123.607Zm2.358-12.392c-.316,1.722-.641,3.469-.972,5.232l.089.754Q1792.783,1114.158,1793.2,1111.215Zm-535.843,377.92-1.381.652q-2.4,2.054-4.789,4.084l1.045-.552Q1254.795,1491.241,1257.361,1489.135Zm8.288-3.978-.189.091-1.4,1.168Zm521.407-293.151.043.407.375-2.851Zm-1.331-9.482c.123.7.241,1.406.352,2.124q.691-4.219,1.318-8.29c-.036-.652-.08-1.3-.122-1.936Q1786.529,1178.41,1785.725,1182.524Zm-1.812-8.624c.238.943.47,1.9.691,2.888q1.018-5.367,1.938-10.512-.177-1.544-.379-3.033Q1785.081,1168.477,1783.912,1173.9Zm-2.283-7.665c.352,1,.686,2.042,1.013,3.1q1.329-6.266,2.536-12.249-.331-1.775-.7-3.462l-.965,4.253Q1782.548,1162.095,1781.629,1166.235ZM1270.79,1477.958c-.766.327-1.529.647-2.292.968q-3.155,2.771-6.314,5.509l2.127-1.042Q1267.548,1480.693,1270.79,1477.958Zm8.544-3.8c-.518.239-1.038.486-1.556.72q-2.512,2.137-5.016,4.255l1.229-.639Q1276.662,1476.34,1279.334,1474.157Zm8.376-3.942-.375.18-2.721,2.244Zm497.815-252.609.034.323.279-2.231Zm-1.331-9.728c.118.7.23,1.406.339,2.122q.644-4.083,1.222-8.026l-.12-1.906Q1784.942,1203.916,1784.193,1207.879Zm-1.742-8.64c.214.89.416,1.8.614,2.719q.961-5.238,1.827-10.261-.174-1.561-.373-3.072-.491,2.443-1,4.927Q1782.974,1196.416,1782.451,1199.24Zm-2.154-7.738c.293.906.579,1.829.854,2.778l.216-1.134,0-.016q1.138-5.541,2.176-10.859-.317-1.779-.67-3.478Q1781.537,1185.234,1780.3,1191.5Zm-2.615-6.995c.409.948.8,1.929,1.188,2.933q1.207-6.011,2.5-12.172v-.009l.332-1.522q-.463-1.775-.97-3.448Q1779.143,1177.509,1777.683,1184.507ZM1284.27,1466.44q-1.5.582-2.99,1.154-3.745,3.353-7.481,6.663c.945-.418,1.893-.831,2.842-1.261Q1280.455,1469.745,1284.27,1466.44Zm8.61-3.485c-.82.345-1.64.679-2.46,1.018q-3.261,2.838-6.515,5.65l2.3-1.1Q1289.541,1465.757,1292.88,1462.955Zm8.614-3.74-1.738.779q-2.628,2.225-5.253,4.43l1.447-.743Q1298.722,1461.463,1301.495,1459.215Zm8.449-3.876-.568.264-3.551,2.9.109-.059Q1307.938,1456.9,1309.943,1455.34Zm472.917-201.493-.052-.791q-.446,3.742-.857,7.424Q1782.425,1257.12,1782.86,1253.846Zm1.265-10.492.03.257.207-1.763Zm-1.279-9.429c.089.549.177,1.1.264,1.656q.589-3.929,1.125-7.738c-.039-.645-.078-1.293-.121-1.929l-.588,3.332Zm-1.62-8.495c.138.627.279,1.256.411,1.9q.9-5.1,1.711-10c-.107-.968-.223-1.92-.341-2.858Q1782.081,1220.017,1781.227,1225.431Zm-2.038-7.919c.239.8.47,1.615.7,2.447q.719-4.427,1.479-8.935l0-.025.629-3.312c-.173-1.018-.354-2.024-.545-3Q1780.272,1211.188,1779.189,1217.511Zm-2.465-7.254q.525,1.353,1.02,2.765,1.193-6.832,2.5-13.871c-.263-1.081-.536-2.142-.822-3.174Q1778,1203.235,1776.724,1210.258Zm-2.9-6.552q.7,1.38,1.349,2.844,1.37-7.4,2.883-15.042c-.372-1.113-.759-2.188-1.159-3.235Q1775.286,1196.128,1773.827,1203.706Zm-475.983,250.85c-1.168.407-2.335.814-3.5,1.209q-4.236,3.875-8.471,7.7,1.707-.682,3.414-1.382Q1293.566,1458.348,1297.844,1454.556Zm8.624-3.135q-1.571.6-3.142,1.172-3.851,3.435-7.7,6.82c1-.43,2-.857,3-1.3Q1302.542,1454.794,1306.468,1451.421Zm8.669-3.4c-.875.354-1.749.7-2.622,1.045q-3.37,2.921-6.743,5.809l2.451-1.142Q1311.679,1450.9,1315.137,1448.022Zm8.7-3.671-1.9.818q-2.756,2.317-5.511,4.607l1.62-.806Q1320.942,1446.676,1323.84,1444.351Zm8.6-3.842-.806.37q-1.919,1.561-3.837,3.106l.345-.179Q1330.285,1442.166,1332.436,1440.509Zm447.854-187.731.214,1.036q.409-3.489.849-7.029l.009-.043.568-3.535-.172-1.525Q1780.988,1247.3,1780.291,1252.779Zm-1.934-8.217c.177.666.355,1.339.527,2.022q.835-6.3,1.763-12.776c-.123-.745-.25-1.477-.382-2.2Q1779.257,1238.18,1778.357,1244.561Zm-2.328-7.631c.289.834.568,1.688.843,2.553q1.012-6.931,2.14-14.085-.327-1.441-.677-2.831Q1777.115,1229.871,1776.029,1236.931Zm-2.728-6.961q.6,1.353,1.167,2.771,1.172-7.452,2.488-15.164-.48-1.588-.995-3.1Q1774.547,1222.371,1773.3,1229.97Zm-3.133-6.273c.509.9,1.006,1.831,1.49,2.792q1.318-7.882,2.808-16.061c-.427-1.073-.868-2.117-1.324-3.124Q1771.557,1215.67,1770.168,1223.7Zm-874.006,139.64,1.431.218-.286-.254-1.488-.364Zm415.4,78.931q-1.929.589-3.855,1.143-4.662,4.351-9.326,8.644,1.915-.678,3.833-1.384Q1306.892,1446.5,1311.566,1442.268Zm8.592-2.756q-1.827.613-3.646,1.206-4.335,3.943-8.669,7.835,1.779-.688,3.562-1.4Q1315.78,1443.364,1320.158,1439.512Zm8.694-3.047q-1.66.607-3.312,1.2-3.953,3.5-7.912,6.958,1.588-.661,3.178-1.34Q1324.83,1439.9,1328.852,1436.466Zm8.773-3.321c-.94.368-1.881.738-2.822,1.1q-3.489,3-6.977,5.959c.868-.391,1.738-.777,2.608-1.174Q1334.03,1436.105,1337.625,1433.144Zm8.8-3.571-2.113.879q-2.89,2.4-5.773,4.778c.6-.286,1.2-.566,1.795-.856Q1343.381,1431.991,1346.428,1429.573Zm8.708-3.749-1.12.491q-2.085,1.677-4.176,3.338l.688-.348Q1352.832,1427.577,1355.136,1425.825ZM1779.748,1281.8l.025.136.375-4.321Zm-1.856-8.772c.118.491.236.975.352,1.47q.644-6.444,1.386-13.081l-.232-1.479Q1778.594,1266.591,1777.892,1273.029Zm-2.219-8.149c.23.743.452,1.493.672,2.253q.8-7.053,1.733-14.355-.256-1.234-.525-2.433Q1776.544,1257.743,1775.672,1264.88Zm-2.583-7.508c.336.87.661,1.761.984,2.662q.954-7.555,2.06-15.4c-.27-.984-.549-1.945-.833-2.892Q1774.107,1249.717,1773.089,1257.372Zm-2.955-6.815q.661,1.37,1.3,2.8,1.09-7.956,2.358-16.236c-.373-1.052-.752-2.081-1.147-3.083Q1771.283,1242.48,1770.134,1250.557Zm-3.324-6.141c.545.9,1.082,1.82,1.6,2.776q1.209-8.288,2.624-16.941-.716-1.564-1.47-3.033Q1768.073,1236.021,1766.81,1244.416ZM904.769,1367.142l1.434.139-.13-.091-1.54-.27Zm-5.8-.52,2.226.193-.609-.561-2.233-.359Zm426.54,62.9q-2.075.535-4.146,1.038-5.036,4.785-10.078,9.512,2.065-.634,4.137-1.3Q1320.464,1434.179,1325.507,1429.521Zm8.51-2.333q-2.007.58-4.005,1.129-4.767,4.42-9.539,8.787c1.322-.448,2.649-.911,3.976-1.376Q1329.233,1431.488,1334.018,1427.188Zm8.649-2.635q-1.894.6-3.787,1.184-4.457,4.025-8.919,8c1.24-.459,2.481-.932,3.723-1.409Q1338.175,1428.471,1342.666,1424.552Zm8.769-2.926c-1.154.4-2.308.79-3.46,1.179q-4.092,3.588-8.187,7.136c1.12-.45,2.242-.911,3.364-1.374Q1347.3,1425.122,1351.435,1421.627Zm8.878-3.21c-1,.377-2,.743-3,1.109q-3.633,3.087-7.267,6.14,1.417-.613,2.837-1.238Q1356.6,1421.443,1360.313,1418.417Zm8.919-3.456c-.8.321-1.595.632-2.392.945q-3.053,2.505-6.1,4.987l2.133-.988Q1366.052,1417.451,1369.232,1414.961Zm8.781-3.612-1.409.59q-2.273,1.793-4.544,3.576l.988-.482Q1375.53,1413.2,1378.013,1411.349Zm399.936-107.68.159.791q.415-6.577.931-13.367l-.072-.529Q1778.4,1297.228,1777.948,1303.669Zm-2.16-9.03c.166.62.327,1.251.49,1.881q.562-7.217,1.259-14.705c-.12-.641-.245-1.272-.37-1.9Q1776.4,1287.421,1775.788,1294.638Zm-2.485-8.247c.272.813.541,1.64.8,2.476q.705-7.708,1.572-15.734-.328-1.343-.672-2.642Q1774.063,1278.615,1773.3,1286.392Zm-2.817-7.531q.563,1.353,1.1,2.76.832-8.09,1.856-16.538-.474-1.52-.977-2.981Q1771.372,1270.679,1770.486,1278.861Zm-3.144-6.829q.709,1.39,1.393,2.844.947-8.4,2.11-17.195-.623-1.585-1.279-3.094Q1768.332,1263.532,1767.342,1272.032Zm-3.471-6.141c.57.911,1.127,1.843,1.674,2.8q1.04-8.652,2.326-17.745-.77-1.554-1.583-3.012Q1764.942,1257.158,1763.87,1265.891Zm-849.8,104.488.843.036-.938-.109Zm-6.15-.243,2.294.087-.513-.382-2.34-.241Zm-6.184-.18,2.9.077-.822-.779-2.874-.259ZM874.525,1348.8q1.135,1.135,2.274,2.242l-.459-.8q-1.128-1.22-2.251-2.467Zm-5.957-6.168q.828.886,1.659,1.758l-.95-2.131-1.325-1.574Zm471.1,73.68q-2.191.464-4.373.886-5.36,5.183-10.73,10.3,2.184-.558,4.371-1.156Q1334.3,1421.368,1339.667,1416.317Zm8.435-1.913q-2.15.521-4.3,1.009-5.135,4.848-10.28,9.639,2.133-.62,4.276-1.274Q1342.955,1419.126,1348.1,1414.4Zm8.581-2.206q-2.082.566-4.157,1.1-4.88,4.488-9.762,8.919,2.055-.661,4.112-1.352Q1351.783,1416.563,1356.683,1412.2Zm8.726-2.5q-1.977.593-3.951,1.163-4.573,4.089-9.153,8.131,1.935-.682,3.873-1.385Q1360.8,1413.681,1365.409,1409.7Zm8.86-2.778q-1.83.6-3.655,1.174-4.212,3.656-8.426,7.265,1.765-.675,3.537-1.372Q1370,1410.481,1374.269,1406.923Zm8.98-3.054q-1.64.576-3.274,1.136-3.779,3.169-7.567,6.306,1.557-.637,3.115-1.295Q1379.387,1406.964,1383.249,1403.87Zm8.976-3.273-2.667.992q-3.22,2.6-6.44,5.175,1.2-.521,2.394-1.052Q1388.869,1403.17,1392.225,1400.6Zm8.887-3.44-1.744.7q-2.474,1.915-4.948,3.814l1.333-.62Q1398.432,1399.111,1401.112,1397.157Zm8.61-3.508-.3.125-1.588,1.175Zm366.883-66.3.3,1.326q.266-7.36.673-15.025l-.2-1.213Q1776.908,1320.055,1776.606,1327.348Zm-2.467-9.571c.211.727.416,1.468.618,2.211q.4-7.906.979-16.168c-.166-.777-.334-1.552-.507-2.313Q1774.585,1309.838,1774.139,1317.776Zm-2.738-8.558q.464,1.309.911,2.658.528-8.294,1.263-17-.392-1.448-.806-2.851Q1771.968,1300.849,1771.4,1309.219Zm-3.024-7.726c.4.938.8,1.9,1.19,2.872q.637-8.6,1.515-17.666c-.359-1.05-.722-2.083-1.1-3.092Q1769.045,1292.8,1768.377,1301.492Zm-3.3-6.961c.493.945.975,1.917,1.447,2.906q.726-8.843,1.727-18.188c-.448-1.061-.909-2.094-1.379-3.108Q1765.82,1285.615,1765.079,1294.532Zm-3.576-6.25c.577.918,1.141,1.867,1.7,2.833q.794-9.027,1.895-18.595c-.538-1.036-1.093-2.035-1.658-3.012Q1762.3,1279.2,1761.5,1288.282Zm-843.926,84.8,2.3-.023-.386-.232-2.392-.118Zm-6.531.1,3.01-.052-.775-.593-3.014-.121Zm-6.57.152,3.508-.089-.977-.947-3.448-.1Zm-4.087-1.22.52.3-.236-.293Zm-15.123-10.1q1.823,1.387,3.653,2.7-1.976-1.577-3.939-3.246Zm-7.894-6.352q1.82,1.544,3.646,3.019l-.72-1.331q-1.809-1.65-3.61-3.367Zm-6.588-5.825q1.451,1.329,2.9,2.624l-1.006-2.4q-1.326-1.333-2.647-2.7Zm483.292,52.8q-2.279.372-4.557.7-5.653,5.554-11.318,11.052,2.276-.473,4.562-.988Q1348.422,1408.053,1354.075,1402.639Zm8.349-1.481q-2.266.44-4.521.834-5.466,5.244-10.939,10.434,2.253-.542,4.514-1.12Q1356.954,1406.266,1362.424,1401.157Zm8.5-1.765q-2.225.5-4.446.956-5.245,4.911-10.5,9.769,2.208-.6,4.419-1.231Q1365.661,1404.17,1370.925,1399.393Zm8.665-2.051q-2.161.541-4.317,1.052-5.006,4.56-10.016,9.065,2.126-.641,4.264-1.313Q1374.557,1401.772,1379.59,1397.341Zm8.812-2.319q-2.068.572-4.135,1.117-4.713,4.168-9.435,8.288,2.028-.671,4.055-1.365Q1383.648,1399.068,1388.4,1395.022Zm8.955-2.59q-1.953.59-3.9,1.156-4.369,3.735-8.742,7.431,1.891-.682,3.787-1.376Q1392.933,1396.061,1397.357,1392.432Zm9.014-2.822q-1.755.569-3.514,1.124-3.946,3.258-7.9,6.479,1.666-.641,3.34-1.3Q1402.334,1392.785,1406.371,1389.61Zm9.049-3.031-2.944,1.006q-3.415,2.7-6.832,5.377l2.694-1.113Q1411.88,1389.23,1415.42,1386.58Zm9.015-3.208-2.133.777q-2.7,2.041-5.4,4.064l1.736-.754Q1421.536,1385.428,1424.435,1383.372Zm8.7-3.251-.771.291-3.38,2.417.179-.082Zm346.162,4.948-.018-.148q.086,1.646.177,3.274Zm-.636-18.958.025.141q-.092-5.071-.111-10.3Q1778.574,1361.113,1778.657,1366.111ZM1776,1353.455c.136.568.266,1.149.4,1.724q0-8.168.207-16.766l-.332-1.808Q1776.027,1345.264,1776,1353.455Zm-2.8-10.51c.236.8.468,1.622.7,2.438q.133-8.646.5-17.784-.307-1.342-.632-2.653Q1773.35,1334.219,1773.2,1342.945Zm-3-9.126q.494,1.367.97,2.767.246-8.952.768-18.447-.446-1.537-.916-3.024Q1770.457,1324.77,1770.2,1333.82Zm-3.21-8.1q.621,1.431,1.218,2.91.337-9.187.986-18.967-.58-1.615-1.186-3.171Q1767.323,1316.437,1766.994,1325.719Zm-3.421-7.24q.729,1.421,1.438,2.892.4-9.354,1.154-19.356-.7-1.608-1.433-3.146Q1763.951,1309.033,1763.573,1318.479Zm-3.626-6.486c.554.911,1.1,1.836,1.636,2.783q.443-9.47,1.272-19.63-.821-1.554-1.676-3.033Q1760.343,1302.441,1759.947,1311.992Zm-832.037,63.44,2.288-.118-.2-.1-2.429,0Zm-6.867.393,3.069-.179-.679-.423-3.119.018Zm-6.911.438,3.642-.236-.95-.75-3.614.055Zm-6.949.482,4.051-.291-1.07-1.066-3.98.089Zm-4.485-1.177,1.188.541-.445-.559Zm-5.146-2.524.682.356-.729-.432Zm-9.414-5.427q2.716,1.707,5.43,3.255l-.377-.584q-2.835-1.843-5.661-3.873Zm-8.206-5.521q2.262,1.615,4.523,3.128l-.915-1.77q-2.232-1.7-4.455-3.519Zm-7.113-5.334q1.9,1.489,3.805,2.915l-1.079-2.692q-1.786-1.523-3.567-3.112Zm495.911,31.73q-2.358.263-4.709.493-5.919,5.9-11.852,11.745,2.355-.372,4.716-.784Q1362.815,1394.249,1368.73,1388.493Zm8.267-1.054q-2.355.334-4.7.627-5.759,5.616-11.534,11.179,2.344-.44,4.7-.924Q1371.235,1392.909,1377,1387.438Zm8.428-1.324q-2.337.4-4.675.763-5.582,5.309-11.179,10.571,2.324-.511,4.655-1.056Q1379.831,1391.283,1385.426,1386.114Zm8.581-1.581q-2.3.457-4.6.879-5.377,4.982-10.766,9.91,2.279-.569,4.564-1.167Q1388.612,1389.373,1394.006,1384.533Zm8.733-1.833q-2.245.5-4.486.97-5.146,4.624-10.3,9.2,2.215-.61,4.432-1.252Q1397.569,1387.187,1402.739,1382.7Zm8.892-2.085q-2.181.535-4.357,1.047-4.867,4.236-9.742,8.428,2.14-.651,4.282-1.322Q1406.728,1384.713,1411.631,1380.614Zm8.978-2.308q-2.061.552-4.121,1.086-4.532,3.806-9.078,7.579,2-.658,4-1.336Q1416.015,1381.992,1420.609,1378.306Zm9.062-2.521q-1.885.545-3.769,1.07-4.13,3.333-8.269,6.634,1.8-.634,3.605-1.286Q1425.457,1379.012,1429.671,1375.784Zm9.128-2.719-3.287,1q-3.619,2.791-7.245,5.554,1.52-.569,3.042-1.149Q1435.057,1375.78,1438.8,1373.065Zm9.03-2.844-2.515.807q-2.945,2.154-5.9,4.3l2.149-.856Q1444.7,1372.354,1447.829,1370.221Zm8.778-2.9-1.3.436-4,2.744.754-.313Zm318.049,17.429c-.2-.854-.409-1.688-.613-2.528q.855,12.956,2.483,24.367Q1775.33,1396.207,1774.656,1384.749Zm3.8,19.3-.152-.929q.218,2.052.452,4.064Q1778.6,1405.627,1778.457,1404.05Zm-1.67-19.853.371,1.629q-.484-9.316-.661-19.3c-.139-.756-.28-1.51-.423-2.256Q1776.241,1374.627,1776.787,1384.2Zm-3.305-12.618c.227.777.45,1.57.67,2.36q-.341-9.678-.325-20.085c-.234-.97-.468-1.933-.711-2.88Q1773.085,1361.7,1773.482,1371.579Zm-3.3-10.252c.307.868.607,1.749.9,2.635q-.232-9.868-.064-20.521-.47-1.581-.963-3.117Q1769.887,1351.28,1770.183,1361.327Zm-3.394-8.8q.562,1.346,1.113,2.726-.157-10.015.127-20.868-.589-1.619-1.2-3.183Q1766.545,1342.35,1766.79,1352.526Zm-3.5-7.751q.644,1.319,1.27,2.678-.116-10.11.257-21.114c-.461-1.056-.934-2.088-1.413-3.1Q1763.064,1334.525,1763.291,1344.774Zm-3.6-6.829q.709,1.251,1.4,2.538-.113-10.175.309-21.31-.791-1.513-1.606-2.958Q1759.422,1327.641,1759.688,1337.945Zm-820.728,39.249,2.029-.188-2.219.091Zm-7.224.691,3.1-.3-.552-.275-3.2.159Zm-7.254.729,3.737-.382-.9-.573-3.748.214Zm-7.292.772,4.217-.452-1.077-.868-4.169.259Zm-7.326.813,4.562-.511-1.145-1.17-4.473.309Zm-9.616-2.84q3.268,1.333,6.513,2.411l-.586-.752-.666.047-.263.021-.241-.1q-2.6-1.09-5.209-2.353Zm-9.421-4.337q2.964,1.516,5.916,2.839l-.716-1.138q-3.019-1.6-6.036-3.4Zm-8.5-4.707q2.6,1.547,5.191,2.962l-1.068-2.133q-2.545-1.619-5.089-3.369Zm-7.583-4.771q2.269,1.506,4.532,2.915l-1.143-2.96q-2.151-1.548-4.3-3.181Zm508.894,10.33q-2.426.157-4.846.273-6.151,6.219-12.32,12.388,2.416-.256,4.837-.554Q1377.481,1379.957,1383.635,1373.876Zm8.208-.64q-2.433.225-4.862.407-6.025,5.96-12.07,11.87,2.419-.327,4.843-.7Q1385.807,1379.054,1391.844,1373.235Zm8.353-.877q-2.433.286-4.859.536-5.885,5.681-11.786,11.316,2.419-.4,4.843-.843Q1394.3,1377.891,1400.2,1372.358Zm8.5-1.106q-2.413.344-4.821.652-5.717,5.377-11.454,10.709,2.4-.467,4.8-.968Q1402.966,1376.476,1408.7,1371.252Zm8.644-1.331q-2.382.393-4.762.757-5.52,5.044-11.059,10.046,2.362-.521,4.723-1.07Q1411.8,1374.814,1417.34,1369.92Zm8.8-1.551q-2.348.439-4.693.85-5.292,4.688-10.607,9.332,2.32-.569,4.643-1.163Q1420.812,1372.9,1426.136,1368.369Zm8.9-1.749q-2.276.467-4.55.916-5.03,4.3-10.071,8.553,2.235-.6,4.475-1.227Q1429.967,1370.762,1435.032,1366.62Zm9-1.942q-2.171.487-4.339.958-4.709,3.865-9.432,7.7,2.116-.617,4.232-1.25Q1439.267,1368.4,1444.029,1364.678Zm9.087-2.115q-2.028.488-4.053.964-4.321,3.387-8.653,6.752,1.949-.607,3.9-1.229Q1448.718,1365.821,1453.116,1362.562Zm9.094-2.26q-1.8.464-3.608.913-3.834,2.853-7.674,5.689l3.374-1.12Q1458.261,1363.054,1462.21,1360.3Zm9.03-2.365-2.937.781q-3.2,2.242-6.4,4.473l2.6-.909Q1467.875,1360.119,1471.24,1357.937Zm8.776-2.4-1.879.523-4.634,3.019,1.377-.5Q1477.449,1357.061,1480.016,1355.536Zm8.133-2.3-.009,0-.027.018Zm298.621,102.239q6.215,23.237,12.579,43.891-4.294-15.062-8.39-31.594-1-2.92-1.931-5.979Q1787.856,1458.722,1786.77,1455.474Zm-13.794-58.869.236.732q-1.3-11.831-1.858-25.131c-.282-.961-.563-1.919-.857-2.858Q1771.227,1383.971,1772.975,1396.6Zm-3.762-10.934.464,1.256q-1.2-11.712-1.618-24.912-.522-1.469-1.057-2.9Q1767.589,1373.368,1769.213,1385.671Zm-3.549-8.833c.18.416.354.847.534,1.27q-1.182-11.647-1.529-24.844-.6-1.407-1.206-2.778Q1764.009,1364.675,1765.665,1376.838Zm-3.391-7.356c.166.338.327.693.493,1.034q-1.25-11.624-1.588-24.905-.655-1.326-1.322-2.608A248.783,248.783,0,0,0,1762.273,1369.482Zm-819.147,9.857,3.092-.413-.391-.152-3.237.284Zm-7.606,1.034,3.817-.523-.808-.413-3.869.366Zm-7.635,1.07,4.346-.613-1.052-.686-4.328.434Zm-7.672,1.1,4.75-.686-1.17-.97q-2.334.242-4.682.5Zm-7.7,1.141,5.043-.75-1.2-1.254-4.941.55Zm-9.641-2.02q3.363,1.016,6.693,1.758l-.69-.909-.291.034-.22.025-.223-.068q-2.992-.913-6-2.047Zm-9.487-3.341q3.172,1.274,6.315,2.333l-.943-1.541q-3.176-1.319-6.368-2.867Zm-8.787-3.905q2.879,1.4,5.739,2.631l-1.172-2.42q-2.808-1.455-5.625-3.069Zm-8.019-4.173q2.586,1.435,5.155,2.742l-1.191-3.185c-1.638-.984-3.281-2.013-4.921-3.069Zm514.174-11.4c-7.6-.057-15.155-.4-22.656-1.077v0a1479.427,1479.427,0,0,0-197.243-.793c-36.41,2.206-75.191,5.754-116.9,10.936,35.96-2.551,69.648-3.782,101.5-4.087,70.754-.675,132.417,3.226,189.818,7.434l.027,0a234.388,234.388,0,0,0,32.532.729Q1384.313,1365.448,1390.755,1358.848Zm8.031-.041q-2.491.044-4.978.05-6.352,6.512-12.733,12.979,2.467-.136,4.946-.32Q1392.417,1365.187,1398.786,1358.807Zm8.169-.245q-2.5.105-5.009.175-6.26,6.281-12.549,12.513,2.488-.208,4.982-.461Q1400.679,1364.7,1406.955,1358.562Zm8.3-.443q-2.511.16-5.02.291-6.151,6.025-12.331,12.006,2.494-.28,5-.6Q1409.088,1363.991,1415.252,1358.119Zm8.431-.634q-2.5.215-5.009.4-6.022,5.741-12.066,11.447,2.488-.344,4.98-.72Q1417.646,1363.069,1423.682,1357.485Zm8.556-.818q-2.491.263-4.982.5-5.862,5.435-11.75,10.832,2.474-.4,4.948-.829Q1426.359,1361.94,1432.238,1356.667Zm8.689-.993q-2.477.3-4.948.584-5.681,5.1-11.384,10.168,2.453-.454,4.914-.934Q1435.228,1360.6,1440.927,1355.674Zm8.783-1.154q-2.437.337-4.871.656-5.463,4.737-10.946,9.439,2.409-.495,4.823-1.014Q1444.224,1359.081,1449.71,1354.52Zm8.874-1.3q-2.372.365-4.744.714-5.2,4.334-10.423,8.639,2.334-.525,4.671-1.068Q1453.346,1357.375,1458.584,1353.216Zm8.962-1.44q-2.283.381-4.566.747-4.894,3.894-9.8,7.767,2.239-.539,4.475-1.1Q1462.608,1355.5,1467.546,1351.776Zm9-1.557q-2.154.385-4.307.757-4.515,3.418-9.053,6.813c1.393-.357,2.783-.722,4.174-1.088Q1471.966,1353.471,1476.549,1350.22Zm9-1.647-3.923.729q-4.048,2.88-8.113,5.75l3.719-1.02Q1481.4,1351.309,1485.552,1348.573Zm8.917-1.706-3.349.65q-3.452,2.287-6.915,4.564l3.056-.87Q1490.869,1349.043,1494.469,1346.867Zm8.687-1.717-2.431.484-5.268,3.2,1.984-.584Zm8.1-1.641-.811.166-2.783,1.52.1-.032Zm-556.016,36.673,3.044-.509-.214-.064-3.226.407Zm-7.967,1.35,3.853-.657-.706-.286-3.939.518Zm-7.988,1.374,4.455-.77-1.007-.53-4.473.607Zm-8.019,1.408,4.9-.865-1.175-.786-4.866.679Zm-8.044,1.436,5.248-.94-1.245-1.057-5.168.745Zm-8.069,1.465,5.5-1-1.247-1.329-5.393.8ZM905.462,1386q3.466.7,6.877,1.106l-.788-1.054-.075.012-.186-.037c-2.24-.438-4.5-.977-6.761-1.6Zm-9.6-2.426q3.364,1.016,6.675,1.788l-1.1-1.838q-3.322-1.029-6.677-2.306Zm-9.076-3.124q3.135,1.206,6.232,2.229l-1.254-2.651q-3.036-1.244-6.093-2.674Zm-8.428-3.541q2.873,1.3,5.714,2.465L882.844,1376q-2.729-1.343-5.475-2.824Zm527.735-33.852q-7.531-.327-15.032-.959h0c-60.709-4.205-127.488-2.447-204.835,5.841-35.162,3.769-72.515,8.887-112.48,15.409,34.215-3.91,66.431-6.706,96.98-8.555a1481.728,1481.728,0,0,1,197.526.793l.023,0c8.14.736,16.348,1.074,24.608,1.079Q1399.5,1349.882,1406.094,1343.057Zm8.058.268q-2.563-.061-5.123-.152-6.519,6.757-13.072,13.483,2.529-.027,5.062-.086Q1407.6,1349.965,1414.152,1343.325Zm8.172.116q-2.576-.014-5.157-.057-6.464,6.564-12.967,13.093,2.549-.089,5.107-.214Q1415.833,1349.87,1422.324,1343.441Zm8.272-.034q-2.587.031-5.173.036-6.393,6.335-12.82,12.642c1.708-.1,3.417-.211,5.13-.331Q1424.18,1349.6,1430.6,1343.407Zm8.381-.172q-2.587.075-5.173.123-6.3,6.082-12.629,12.136,2.566-.2,5.134-.443Q1432.66,1349.161,1438.976,1343.234Zm8.476-.3q-2.579.109-5.161.2-6.178,5.8-12.383,11.568,2.562-.255,5.127-.543Q1441.257,1348.564,1447.452,1342.937Zm8.574-.416q-2.572.139-5.145.261-6.028,5.483-12.086,10.943,2.556-.3,5.116-.636Q1449.983,1347.821,1456.026,1342.521Zm8.649-.525q-2.549.167-5.1.32-5.844,5.136-11.722,10.248,2.535-.348,5.071-.715Q1458.812,1346.935,1464.674,1342Zm8.71-.618q-2.5.187-5.016.363-5.63,4.757-11.293,9.489,2.491-.382,4.982-.779Q1467.738,1345.926,1473.384,1341.378Zm8.785-.7q-2.457.2-4.914.4-5.374,4.335-10.777,8.653,2.433-.4,4.866-.822Q1476.773,1344.8,1482.169,1340.678Zm8.813-.763-4.755.418q-5.067,3.878-10.162,7.747,2.348-.415,4.687-.845Q1485.881,1343.582,1490.982,1339.915Zm8.823-.811-4.528.42q-4.7,3.387-9.421,6.761l4.428-.841Q1495.058,1342.279,1499.805,1339.1Zm8.785-.836-4.2.4q-4.25,2.842-8.514,5.686l4.05-.8Q1504.265,1340.918,1508.59,1338.268Zm8.687-.84-1.09.107-2.624.252q-3.677,2.255-7.37,4.517l3.48-.709Q1513.487,1339.512,1517.278,1337.428Zm8.447-.816-2.928.282-5.836,3.21,2.563-.527Zm7.915-.747-1.595.147-3.6,1.724,1.009-.209,2.379-.947Zm-565.573,44.527,2.926-.581-3.151.511Zm-8.328,1.672,3.851-.775-.573-.179-3.976.659Zm-8.358,1.695,4.528-.922-.936-.389-4.576.772Zm-8.371,1.718,5.043-1.036-1.156-.625-5.032.866Zm-8.4,1.742,5.427-1.129-1.268-.87-5.37.941Zm-8.417,1.765,5.725-1.2-1.3-1.127-5.636,1Zm-8.437,1.786,5.947-1.26-1.279-1.391-5.832,1.059Zm-9.742-.411q3.568.382,7.065.462l-.972-1.322q-3.558-.337-7.172-.99Zm-9.73-1.542q3.537.736,7,1.208l-1.22-2.079q-3.466-.729-6.977-1.729Zm-9.362-2.354q3.364.985,6.672,1.756l-1.309-2.833q-3.248-1.005-6.531-2.229Zm-8.833-2.913q3.135,1.141,6.232,2.122l-1.256-3.542q-2.982-1.173-6-2.508Zm541.452-56.579q-3.752-.252-7.5-.547h0c-62.374-4.2-131.734.379-212.448,12.474-33.647,5.041-69.264,11.388-107.162,18.949,32.157-4.964,62.6-8.983,91.566-12.086,77.493-8.3,144.394-10.062,205.228-5.85h.018q8.424.719,16.893,1.031Q1414.858,1333.97,1421.543,1326.97Zm8.162.5q-2.655-.147-5.307-.314-6.638,6.952-13.317,13.888,2.594.082,5.191.13Q1423.009,1334.334,1429.705,1327.47Zm8.237.418q-2.665-.123-5.332-.261-6.635,6.8-13.31,13.592,2.617.031,5.234.032Q1431.261,1334.578,1437.942,1327.888Zm8.292.341q-2.668-.1-5.336-.211-6.607,6.618-13.253,13.222,2.627-.017,5.259-.061Q1439.59,1334.714,1446.234,1328.229Zm8.36.273q-2.665-.075-5.332-.169-6.55,6.4-13.145,12.783,2.637-.061,5.273-.148Q1448.015,1334.747,1454.595,1328.5Zm8.41.218-5.316-.132q-6.464,6.141-12.972,12.263,2.634-.1,5.27-.22Q1456.516,1334.684,1463,1328.72Zm8.469.17-5.3-.1q-6.348,5.844-12.742,11.675,2.637-.136,5.273-.291Q1465.106,1334.539,1471.474,1328.89Zm8.5.139-5.268-.082q-6.2,5.507-12.447,11.007,2.627-.164,5.248-.346Q1473.758,1334.327,1479.973,1329.029Zm8.519.116-5.2-.071q-6.021,5.14-12.084,10.269,2.6-.191,5.191-.4Q1482.465,1334.051,1488.492,1329.144Zm8.553.1-2.224-.027-2.906-.037q-5.8,4.727-11.639,9.451,2.566-.211,5.123-.43Q1491.24,1333.729,1497.045,1329.249Zm8.549.111-5.025-.066q-5.534,4.277-11.107,8.556l5.014-.45Q1500.054,1333.382,1505.594,1329.36Zm8.537.127-4.88-.077q-5.22,3.8-10.477,7.593l4.859-.459Q1508.9,1333.013,1514.131,1329.487Zm8.492.155-4.677-.091q-4.853,3.275-9.732,6.554l4.634-.448Q1517.755,1332.649,1522.623,1329.642Zm8.412.2-4.389-.113-8.833,5.443,4.316-.418Zm8.292.255q-1.987-.072-3.978-.13l-1.034.57-6.686,3.689,3.83-.364,1.406-.675Zm8.035.32c-1.111-.05-2.219-.1-3.333-.146l-6.29,3.01,3.083-.277Zm7.549.368-2.231-.114-4.241,1.672,1.772-.146Zm-573.27,49.166.188-.043-.2.038Zm-8.71,2.008,3.821-.884-.407-.091-3.983.786Zm-8.722,2.02,4.571-1.059-.841-.27-4.646.932Zm-8.742,2.042,5.146-1.2-1.111-.475-5.161,1.047Zm-8.755,2.061,5.589-1.316-1.268-.7-5.559,1.14Zm-8.774,2.074,5.925-1.4-1.341-.94-5.854,1.213Zm-8.787,2.09,6.182-1.472-1.345-1.188-6.084,1.274Zm-8.814,2.092.1-.009,6.286-1.5-1.3-1.44-6.254,1.324Zm-9.792.411q3.674.061,7.252-.191l-1.115-1.543q-3.622-.007-7.322-.336Zm-9.887-.7q3.7.45,7.32.618l-1.3-2.263q-3.6-.43-7.272-1.139Zm-9.655-1.6q3.578.746,7.092,1.261l-1.356-2.99q-3.442-.753-6.936-1.736Zm-9.214-2.249q3.38.944,6.708,1.7l-1.276-3.671q-3.217-.968-6.472-2.12Zm555.176-79.456c-64.035-4.2-135.966,3.212-220.011,19.108-31.794,6.013-65.325,13.244-100.819,21.518,29.765-5.693,58.087-10.589,85.137-14.644,80.866-12.115,150.38-16.709,212.925-12.49h.014q4.658.365,9.305.666Q1430.264,1317.826,1436.966,1310.743Zm8.39.607-5.561-.4q-6.686,7.07-13.417,14.135,2.682.16,5.362.3Q1438.57,1318.372,1445.355,1311.35Zm8.4.625-5.552-.416q-6.751,6.992-13.552,13.976,2.7.133,5.389.252Q1446.921,1318.883,1453.752,1311.974Zm8.392.647-5.532-.429q-6.781,6.86-13.612,13.717,2.7.109,5.4.2Q1455.3,1319.37,1462.144,1312.622Zm8.392.682-5.5-.45q-6.775,6.679-13.6,13.36,2.706.085,5.4.159Q1463.713,1319.84,1470.536,1313.3Zm8.376.72q-2.726-.245-5.466-.475-6.73,6.451-13.515,12.906l5.4.125Q1472.15,1320.3,1478.912,1314.023Zm8.371.772q-2.712-.259-5.432-.506-6.648,6.174-13.353,12.356l5.393.1Q1480.614,1320.768,1487.283,1314.8Zm8.34.832q-2.685-.28-5.382-.543-6.529,5.85-13.117,11.713l5.373.077Q1489.087,1321.248,1495.623,1315.627Zm8.3.9q-2.651-.3-5.311-.584-6.372,5.486-12.8,10.98l5.325.068Q1497.559,1321.751,1503.926,1316.525Zm8.274.977q-2.613-.321-5.239-.627-6.175,5.071-12.4,10.155l.288,0,4.985.061Q1506.042,1322.294,1512.2,1317.5Zm8.221,1.061q-2.569-.347-5.15-.674-5.936,4.617-11.92,9.253l5.2.073Q1514.511,1322.879,1520.422,1318.562Zm8.163,1.156q-2.512-.371-5.032-.727-5.65,4.127-11.35,8.274l5.1.084Zm8.085,1.254q-2.44-.395-4.891-.774l-10.682,7.226,4.953.1,7.258-4.48Zm8,1.359q-2.348-.419-4.709-.816l-5.5,3.4-4.4,2.717q2.381.061,4.759.132Zm7.872,1.467q-2.219-.432-4.453-.847l-8.978,4.948q2.242.078,4.475.166Q1548.078,1325.915,1552.538,1323.8Zm7.706,1.572q-2.048-.436-4.1-.859l-7.892,3.75q2.052.1,4.091.2Q1556.308,1326.9,1560.244,1325.371Zm7.449,1.654q-1.782-.413-3.569-.811-3.248,1.254-6.518,2.531c1.163.068,2.324.134,3.48.209Q1564.4,1327.976,1567.693,1327.025Zm6.988,1.688-2.651-.655q-2.31.658-4.636,1.334l2.408.186Q1572.248,1329.136,1574.681,1328.713Zm5.929,1.54-.722-.2-1.588.264.2.021ZM986.865,1381.2l3.748-.97-.218-.034-3.951.9Zm-9.1,2.365,4.58-1.191-.722-.17-4.691,1.079Zm-9.108,2.374,5.216-1.361-1.049-.345-5.264,1.218Zm-9.13,2.387,5.718-1.5-1.252-.55-5.711,1.336Zm-9.135,2.4,6.107-1.6-1.361-.768-6.057,1.422Zm-9.146,2.406,6.4-1.683-1.4-1-6.32,1.495Zm-9.157,2.413,6.624-1.747-1.381-1.243-6.52,1.55Zm-9.2,2.388.52-.093,6.3-1.668-1.327-1.488-6.666,1.595Zm-9.83,1.254q3.775-.253,7.442-.836l-1.218-1.711q-3.7.32-7.488.309Zm-10.062.109q3.861.157,7.62.016l-1.361-2.406q-3.738-.116-7.558-.536Zm-9.943-.85q3.786.491,7.483.723l-1.383-3.105q-3.626-.484-7.324-1.215Zm-9.6-1.611q3.619.74,7.174,1.277l-1.292-3.783q-3.439-.75-6.936-1.7Zm10.01,9.7q-3.858-.263-7.8-.764c2.319,9.478,4.63,19.126,6.951,28.827,21.212,88.679,43.48,181.768,85.137,187.493,49.255,6.768,105.788-13.635,165.642-50.752-51.322,28.32-99.863,43.1-142.961,37.245h0c-43.6-5.683-69.821-87.1-95.644-167.294C901.021,1429.6,897.266,1417.935,893.465,1406.537Zm10.427.268c-2.656.055-5.35.007-8.072-.129,3.708,11.143,7.377,22.532,11.052,33.947,25.612,79.538,51.619,160.292,93.847,165.792h0c49.036,6.666,105.3-13.729,164.752-50.5-50.929,28-99.186,42.755-142.057,37v0c-44.166-5.466-73.728-76.55-103.591-148.35C914.554,1431.879,909.265,1419.171,903.892,1406.805Zm10.473-.782q-4,.515-8.117.7c5.261,12.134,10.441,24.581,15.607,37.005,29.613,71.207,58.934,141.7,101.83,147.011l.014,0c48.753,6.552,104.656-13.769,163.6-50.05-50.436,27.547-98.321,42.189-140.9,36.546v0c-44.761-5.28-77.327-67.463-110.87-131.521C928.559,1432.4,921.542,1419,914.365,1406.023Zm10.173-1.915q-3.861.971-7.854,1.588c7.047,12.767,13.94,25.928,20.789,39.011,33.27,63.532,65.568,125.207,109.177,130.35l.018,0c48,6.37,102.93-13.388,160.724-48.462l.511-.393c-49.488,26.616-96.566,40.84-138.521,35.353v0c-45.347-5.107-80.616-59.441-117.513-116.286C942.912,1431.479,933.853,1417.528,924.538,1404.109Zm9.719-2.744-7.281,2.09-.186.05c9.171,13.242,18.093,26.982,26.918,40.581,36.607,56.4,71.6,110.307,115.915,115.3l.02,0c44.856,5.873,95.746-11.1,149.238-41.767q1.561-1.237,3.124-2.483c-46.165,23.474-90.158,35.833-129.644,30.745v0c-45.878-4.943-83.574-52.231-123.5-102.308C957.586,1429.427,946.123,1415.056,934.257,1401.365Zm9.685-2.783-7.358,2.113c11.656,13.49,22.915,27.611,34,41.519,39.627,49.709,77.045,96.646,122.01,101.494l.02,0c41.758,5.386,88.713-9.008,138.011-35.528,1.636-1.336,3.276-2.69,4.914-4.042-42.646,20.269-83.365,30.737-120.2,26.066v0c-46.312-4.786-86.148-45.649-128.746-89.349C972.773,1426.686,958.654,1412.208,943.942,1398.581Zm9.669-2.778-5.059,1.454-2.147.618c14.4,13.392,28.218,27.568,41.76,41.46,42.312,43.4,81.88,83.992,127.4,88.695l.025,0c38.684,4.914,81.793-7.1,126.977-29.728q3.142-2.631,6.288-5.3c-39.073,17.154-76.459,25.785-110.561,21.527v0c-46.592-4.635-88.247-39.581-133.124-77.229C988.562,1423.367,971.507,1409.061,953.61,1395.8Zm9.651-2.772-7,2.01c17.449,13.008,34.095,26.971,50.318,40.579,44.618,37.43,86.035,72.174,131.956,76.734h.025c35.665,4.45,75.037-5.386,116.227-24.408q3.731-3.2,7.467-6.452c-35.533,14.237-69.623,21.2-100.985,17.361v0c-46.662-4.464-89.783-33.931-136.484-65.848C1005.093,1419.55,984.756,1405.654,963.261,1393.031Zm9.63-2.765-6.729,1.931c20.887,12.37,40.681,25.889,59.861,39,46.472,31.76,89.376,61.079,135.482,65.482h.029c32.707,4.007,68.481-3.9,105.815-19.633q4.181-3.667,8.367-7.395c-32.039,11.531-62.862,16.965-91.469,13.53v0c-46.438-4.28-90.567-28.642-138.524-55.118C1022.568,1415.277,998.512,1402,972.891,1390.267Zm9.614-2.758-6.377,1.829c24.815,11.493,48.152,24.379,70.65,36.8,47.766,26.371,91.718,50.636,137.7,54.866h.029c29.788,3.573,62.058-2.6,95.649-15.319q4.58-4.106,9.162-8.278c-28.613,9.069-56.226,13.133-82.088,10.1v0c-45.781-4.069-90.331-23.674-138.8-45.006C1041.312,1410.565,1012.963,1398.091,982.505,1387.509Zm9.589-2.749-5.941,1.7c29.415,10.38,56.867,22.454,83.154,34.024,48.321,21.266,92.729,40.81,138.138,44.838h.032c26.914,3.16,55.795-1.485,85.764-11.5q4.941-4.525,9.885-9.119c-25.274,6.879-49.752,9.774-72.89,7.131v0c-44.477-3.812-88.643-19-136.639-35.508C1061.842,1405.4,1028.4,1393.906,992.094,1384.76Zm9.578-2.74-5.389,1.543c34.967,9.007,67.288,20.114,98.027,30.687,47.859,16.459,91.9,31.6,136.107,35.394l.034,0c24.088,2.758,49.686-.565,76.157-8.19q5.272-4.92,10.541-9.914c-22.05,4.98-43.491,6.884-63.939,4.612h0c-42.173-3.494-84.744-14.615-130.809-26.644C1085.015,1399.747,1045.313,1389.385,1001.672,1382.02Zm9.541-2.728-4.682,1.338c41.955,7.32,80.267,17.323,116.42,26.762,45.956,12,88.427,23.095,130.441,26.578l.029,0c21.314,2.372,43.75.152,66.861-5.4q5.561-5.286,11.116-10.643c-18.931,3.371-37.418,4.469-55.206,2.553h0c-38.275-3.071-77.358-10.519-119.282-18.508C1112.374,1393.488,1064.614,1384.392,1011.214,1379.292Zm9.544-2.717-3.794,1.081c51.253,5.191,97.3,13.962,140.35,22.165,41.846,7.974,80.857,15.407,119.048,18.472l.029,0c18.59,2.006,37.975.679,57.855-3.121q5.824-5.637,11.641-11.339a201.291,201.291,0,0,1-46.719.965h0c-31.476-2.447-63.83-6.724-98.014-11.241C1146.973,1386.4,1088.172,1378.635,1020.757,1376.575Zm9.476-2.7-2.588.736c64.657,2.36,121.381,9.853,173.791,16.777,34.109,4.507,66.391,8.774,97.9,11.225l.032,0a201.657,201.657,0,0,0,49.132-1.343q6.069-5.963,12.122-11.993a212.714,212.714,0,0,1-38.472-.159v0c-18.695-1.411-38.139-3.144-58.16-4.925C1195.553,1378.108,1120.252,1371.406,1030.233,1373.878Zm9.523-2.694-1.036.293c86.357-1.838,159.125,4.639,225.454,10.545,19.769,1.761,38.965,3.471,58.133,4.916l.027,0a213.027,213.027,0,0,0,40.7-.069q6.283-6.266,12.547-12.6a234,234,0,0,1-30.458-.829v0c-57.392-4.205-119.028-8.106-189.646-7.433C1119.471,1366.361,1081.1,1367.9,1039.756,1371.184Zm412.31-76.466c-86.273-4-187.64,16-313.058,49.157q40.449-9.112,77.543-16.177c84.249-15.934,156.374-23.358,220.619-19.14h.007l1.738.125Q1445.516,1301.7,1452.066,1294.718Zm8.8.52c-1.97-.132-3.935-.268-5.916-.379q-6.577,7.01-13.206,14.028l5.6.409Q1454.127,1302.266,1460.863,1295.238Zm8.717.664c-1.947-.168-3.894-.341-5.857-.482q-6.743,7.037-13.542,14.087l5.6.42Q1462.707,1302.911,1469.579,1295.9Zm8.633.815c-1.927-.211-3.876-.379-5.822-.554q-6.85,6.985-13.758,13.985l5.577.436Q1471.239,1303.646,1478.212,1296.717Zm8.483,1.041c-1.9-.248-3.807-.473-5.716-.7q-6.91,6.869-13.885,13.76,2.781.228,5.554.464Q1479.706,1304.512,1486.695,1297.757Zm8.38,1.208c-1.863-.286-3.71-.6-5.584-.863q-6.934,6.7-13.937,13.424,2.767.238,5.523.488Q1488.11,1305.483,1495.075,1298.966Zm8.3,1.366q-2.764-.494-5.55-.938-6.877,6.43-13.819,12.89,2.754.255,5.5.522Q1496.474,1306.556,1503.379,1300.331Zm8.19,1.54c-1.818-.368-3.655-.7-5.489-1.033q-6.778,6.116-13.626,12.258,2.733.276,5.454.563Q1504.775,1307.751,1511.569,1301.872Zm8.024,1.761q-2.661-.606-5.336-1.19-6.648,5.749-13.363,11.538,2.7.294,5.393.607Q1512.972,1309.09,1519.593,1303.632Zm7.949,1.917c-1.743-.443-3.481-.9-5.232-1.311q-6.464,5.33-12.995,10.7,2.672.317,5.336.654Q1521.13,1310.553,1527.542,1305.55Zm7.858,2.068c-1.72-.484-3.453-.929-5.189-1.377q-6.215,4.853-12.5,9.749,2.637.344,5.266.707l9.994-7.3Zm7.683,2.288c-1.674-.518-3.36-1.006-5.044-1.5l-3.771,2.758-8.174,5.975q2.593.371,5.175.766l1.906-1.29Zm7.56,2.453c-1.62-.543-3.231-1.115-4.857-1.64l-11.341,7.674q2.542.4,5.073.823Q1545.11,1315.762,1550.643,1312.358Zm7.469,2.6q-2.375-.869-4.77-1.688-5.251,3.227-10.557,6.5,2.474.429,4.934.879Q1552.943,1317.781,1558.113,1314.957Zm7.308,2.769c-1.529-.6-3.069-1.17-4.607-1.745q-4.822,2.628-9.7,5.3,2.381.453,4.75.934Q1560.67,1319.947,1565.421,1317.726Zm7.1,2.937c-1.438-.611-2.872-1.226-4.314-1.822q-4.365,2.031-8.767,4.112,2.266.477,4.528.977Q1568.264,1322.275,1572.521,1320.664Zm6.954,3.033c-1.34-.607-2.681-1.215-4.028-1.8q-3.8,1.428-7.64,2.9,2.1.484,4.2.988Q1575.754,1324.723,1579.474,1323.7Zm6.684,3.119c-1.2-.579-2.41-1.127-3.617-1.688q-3.114.845-6.254,1.726,1.847.471,3.687.957Q1583.079,1327.293,1586.158,1326.816Zm6.143,3.087c-.9-.461-1.8-.929-2.7-1.385q-2.242.337-4.5.693c.927.259,1.849.522,2.774.79Q1590.094,1329.94,1592.3,1329.9Zm5.352,2.744c-.373-.2-.752-.377-1.127-.577l-1.729.011.9.282C1596.347,1332.454,1597,1332.552,1597.653,1332.647Zm-4.019-4.72c1.245.638,2.494,1.258,3.73,1.917,82.016-.486,151.187,23.77,186.111,148.838,15.416,41.914,30.028,77.8,44.129,108.259-15.332-33.854-30.646-75.323-46.208-125.422l-.023-.066,0-.029C1753.15,1328.44,1680.812,1315.518,1593.635,1327.927Zm-7.54-3.755q2.086.987,4.16,2.017c89.621-13.367,164.277-1.742,193.256,134.744,9.253,29.785,18.408,56.493,27.527,80.355-10.177-28.066-20.048-60.47-29.654-97.678l-.013-.045-.007-.057c-.393-2.524-.809-4.987-1.233-7.422q-1.452-3.984-2.74-8.281-2.229-5.561-4.087-11.822-2.287-5.623-4.162-12a145.91,145.91,0,0,1-8.807-33.33c-27.527-55.913-73.617-64.98-128.817-56.4A440.934,440.934,0,0,0,1586.094,1324.172Zm-7.431-3.476c1.458.654,2.9,1.359,4.351,2.033a453.383,453.383,0,0,1,48.168-10.643c54.343-8.444,99.995-.093,128.235,51.892q-1.414-11.64-1.806-25.08c-20.846-36.417-52.68-46.179-91.23-42.078C1639.877,1299.641,1610.166,1308.969,1578.663,1320.7Zm-7.547-3.208c1.545.65,3.092,1.291,4.632,1.961,32.446-12.159,63.067-21.9,90.4-24.808,38.277-4.073,70.071,5.155,91.357,39.613q-.15-10.2.284-21.421c-16.486-26.7-40.479-35.7-69.635-33.836C1654.777,1281.126,1614.578,1297.342,1571.117,1317.488Zm-7.549-3.005c1.615.609,3.23,1.21,4.83,1.856,44.359-20.628,85.43-37.35,119.623-39.531,29.056-1.852,53.107,6.706,69.944,32.066q.456-9.552,1.331-19.844c-13.456-21.019-32.489-29.142-55.659-28.533C1665.9,1261.491,1617.1,1285.4,1563.567,1314.482Zm-7.59-2.831c1.638.579,3.26,1.2,4.889,1.8,54.42-29.617,104.1-54.13,142.718-55.147,23.14-.609,42.269,7.14,56.031,27.114q.835-9.153,2.01-18.892c-11.268-17.559-26.98-25-46.149-25.131C1674.807,1241.126,1618.469,1273.324,1555.977,1311.652Zm-7.713-2.608q2.515.831,5.014,1.7c63.394-38.918,120.618-71.809,162.208-71.529,19.178.13,35.006,7.236,46.56,23.906q1.111-8.839,2.494-18.163c-9.651-15.517-23.081-22.534-39.549-23.131C1682.291,1220.272,1619.044,1261.236,1548.265,1309.044Zm-7.815-2.4c1.731.507,3.462,1.006,5.177,1.547,71.664-48.428,135.778-90.137,179.441-88.554,16.493.6,30.049,7.292,39.972,22q1.308-8.55,2.844-17.5c-8.426-14.5-20.276-21.361-34.945-22.282C1688.811,1199.087,1619.063,1249.187,1540.45,1306.64Zm-7.885-2.238q2.634.7,5.248,1.452c79.5-58.112,150.105-109.02,195.266-106.185,14.7.922,26.68,7.461,35.381,21.168q1.445-8.239,3.085-16.818c-7.463-14.3-18.236-21.266-31.762-22.438-44.875-3.889-120.2,54.9-205.674,121.618Zm-7.947-2.069c1.772.434,3.521.918,5.282,1.377l2.863-2.235c85.844-67,161.487-126.045,207.209-122.081,13.556,1.174,24.467,7.8,32.221,21.271q1.53-7.851,3.221-15.989c-6.654-14.855-16.7-22.227-29.6-23.624-44.306-4.8-122.356,59.652-211.832,133.549Zm-8.131-1.822c1.806.4,3.619.793,5.418,1.213l10.68-8.817c89.856-74.208,168.237-138.938,213.464-134.038,12.917,1.4,23.117,8.392,30.094,22.329q1.554-7.374,3.242-14.973c-5.9-16.191-15.473-24.285-28.141-25.91-43.652-5.591-124.15,64.246-217.332,145.087Q1525.27,1292.9,1516.487,1300.511Zm-8.2-1.661c1.854.343,3.71.684,5.545,1.065q9.4-8.138,18.649-16.169c93.577-81.184,174.416-151.318,219.041-145.6,12.681,1.624,22.424,9.271,28.692,24.379l1.163-5.136c.661-2.892,1.3-5.73,1.924-8.538-5.073-18.372-14.33-27.566-27.1-29.433-42.937-6.277-125.65,68.672-222.282,156.235Q1521.252,1287.13,1508.284,1298.85Zm-8.271-1.5c1.867.309,3.721.652,5.575.991q13.586-12.261,26.864-24.311c97.048-87.941,180.116-163.209,224.068-156.782,12.733,1.86,22.168,10.459,27.7,27.411q1.4-6.424,2.676-12.545c-4.137-21.1-13.1-31.623-26.1-33.74-42.183-6.863-126.906,72.94-226.778,167.012Q1517.28,1281.154,1500.012,1297.351Zm-8.392-1.306c1.888.279,3.762.579,5.641.877q17.89-16.742,35.253-33.132c100.3-94.474,185.382-174.616,228.634-167.576,12.881,2.095,22.036,11.786,26.766,30.926q1.155-5.712,2.192-11.157c-3.042-24.333-11.693-36.392-25-38.761-41.414-7.372-127.976,77.043-230.892,177.408C1520.292,1268.206,1506.071,1282.073,1491.62,1296.045Zm-8.521-1.1c1.926.229,3.855.454,5.766.714,14.873-14.374,29.506-28.643,43.823-42.6,103.354-100.792,190.284-185.566,232.8-178,13.067,2.326,21.925,13.215,25.769,34.792q.869-4.757,1.64-9.294c-1.745-28.134-10.034-41.967-23.718-44.6-40.631-7.805-128.873,80.991-234.659,187.44C1517.777,1260.25,1500.6,1277.536,1483.1,1294.949Zm-8.6-.94q2.931.276,5.834.6c17.918-17.822,35.5-35.512,52.633-52.749,106.231-106.9,194.848-196.075,236.624-188.049,13.224,2.542,21.739,14.637,24.624,38.718q.535-3.383,1.014-6.643c-.218-32.525-8.069-48.368-22.166-51.263-39.847-8.176-129.635,84.785-238.128,197.116C1515.338,1252.027,1495.132,1272.943,1474.5,1294.009Zm-8.671-.788c1.967.154,3.91.347,5.864.527,21.059-21.491,41.678-42.837,61.661-63.528,108.955-112.808,199.122-206.164,240.145-197.745,13.215,2.713,21.316,15.773,23.3,41.837l.268-2.227c1.586-37.582-5.732-55.708-20.282-58.873-39.063-8.492-130.273,88.429-241.331,206.446C1512.97,1243.55,1489.673,1268.3,1465.829,1293.221Zm-8.815-.568c1.99.123,3.978.243,5.957.384,24.286-25.362,48.007-50.567,70.887-74.882,111.526-118.512,203.12-215.842,243.394-207.087,12.479,2.71,20.021,15.4,21.7,40.513,2.292-38.161-4.455-56.615-18.572-59.843-38.289-8.758-130.807,91.93-244.294,215.438C1510.658,1234.852,1484.18,1263.667,1457.014,1292.653Zm-455.474,87.123,3.455-.988-3.687.95Zm-9.482,2.712,4.559-1.3-.568-.093-4.707,1.215Zm-9.494,2.722,5.264-1.511-.954-.234-5.341,1.386Zm-9.5,2.722,5.816-1.667-1.206-.411-5.836,1.522Zm-9.514,2.733,6.256-1.8-1.354-.609-6.231,1.629Zm-9.512,2.731,6.6-1.895-1.424-.825-6.538,1.715Zm-9.521,2.737,3.43-.986,3.428-.983-1.44-1.052-6.768,1.779ZM935,1398.868l7.056-2.029-1.406-1.283-6.943,1.829Zm-9.539,2.722c.3-.084.613-.159.918-.245l6.293-1.808-1.336-1.524-7.07,1.869Zm-9.9,2.065q3.881-.569,7.64-1.477l-1.29-1.84q-3.779.648-7.667.952Zm-10.246.907q4.014-.143,7.91-.6l-1.4-2.51q-3.867.194-7.84.075Zm-10.235-.114q3.984.225,7.865.175l-1.406-3.2q-3.807-.2-7.7-.67Zm-9.973-.947q3.848.515,7.61.788l-1.3-3.86q-3.657-.515-7.379-1.245ZM813.555,961.4H797.9c-40.953,8.74-87.393,40.377-134.48,72.463-53.643,36.549-108.134,73.676-155.862,77.847-16.682,1.456-32.559-1.145-47.319-9.221v2.529c14.833,7.838,30.772,10.344,47.508,8.88,48.294-4.219,103.03-41.512,156.91-78.224C717.559,999.629,769.637,964.153,813.555,961.4Zm1168.072,670.655v-2.351a192.423,192.423,0,0,1-23.751,7.867h8.09Q1973.7,1635.208,1981.627,1632.057ZM460.241,1154.49a75.075,75.075,0,0,0,22.938.968c36.119-3.71,77.106-29.4,118.662-55.441,52.605-32.968,106.124-66.509,152.52-57.3l.009,0c38.9,8.069,52.86,68.192,69.208,138.576,5.741,24.724,11.779,50.72,19.285,76.145-7.881-30.794-13.322-62.287-18.4-91.664-12.04-69.689-22.009-127.379-57.388-134.64h0c-45.863-9.026-100.133,25.556-153.838,59.775-43.811,27.918-87.254,55.6-125.811,59.439a78.323,78.323,0,0,1-27.189-1.751v-2.3a75.513,75.513,0,0,0,26.975,1.868c38.036-3.787,81.259-31.328,124.85-59.1,54.073-34.456,108.721-69.278,155.433-60.082l.009,0c36.855,7.554,46.939,65.918,59.119,136.418,3.955,22.888,8.133,47.064,13.513,71.177-5.573-29.93-9.049-59.9-12.268-87.686-8.024-69.221-14.462-124.776-47.657-131.493v0c-46.172-9.012-101.558,26.825-156.712,62.515-45.842,29.662-91.53,59.225-132.029,63.142a78.945,78.945,0,0,1-31.233-2.828v-2.328a76.293,76.293,0,0,0,31.026,2.976c39.963-3.864,85.426-33.282,131.041-62.8,55.531-35.93,111.29-72.011,158.327-62.83l0,0c34.765,7.033,41.287,63.292,49.411,133.392,2.438,21.035,5.023,43.323,8.555,65.891-3.489-28.79-5.227-57.129-6.829-83.267-4.182-68.267-7.438-121.42-38.432-127.6v0c-46.492-8.992-102.98,28.084-159.577,65.232-47.855,31.41-95.792,62.874-138.242,66.868-12.286,1.156-24.09.009-35.286-4.078v-2.376c11.125,4.221,22.866,5.425,35.088,4.275,41.889-3.941,89.6-35.26,137.238-66.527,56.967-37.391,113.83-74.714,161.2-65.546h.009c32.648,6.509,35.951,60.4,40.19,129.621,1.175,19.147,2.419,39.477,4.375,60.3-1.64-27.386-1.867-53.977-2.074-78.408-.563-66.874-.993-117.439-29.781-123.087h0c-46.821-8.987-104.409,29.317-162.432,67.913-49.87,33.17-100.065,66.558-144.46,70.627-13.756,1.261-26.934-.284-39.352-5.5v-2.424c12.345,5.382,25.46,7,39.154,5.747,43.834-4.019,93.8-37.255,143.447-70.277,58.4-38.845,116.358-77.4,164.059-68.237h0c30.542,5.99,30.978,57.331,31.551,125.223.145,17.173.3,35.413.952,54.246-.034-25.689,1.022-50.359,1.99-72.967,2.787-65.091,4.839-112.951-21.773-118.08h0c-47.158-8.98-105.835,30.535-165.274,70.566-51.876,34.94-104.334,70.268-150.685,74.412-15.239,1.363-29.8-.638-43.425-7.109v-2.458c13.558,6.665,28.054,8.746,43.234,7.388,45.772-4.094,98-39.268,149.647-74.051,59.818-40.286,118.866-80.053,166.912-70.9h0c28.468,5.486,26.382,54.143,23.549,120.32-.648,15.078-1.331,31.076-1.706,47.68,1.313-23.693,3.408-46.251,5.327-66.9,5.85-62.972,10.036-108.048-14.444-112.674A71.893,71.893,0,0,0,824.2,961.4H836.95c22.22,8.624,18.093,53.074,12.438,113.948-4.155,44.743-9.142,98.45-5.171,153.184q1.033,11.242,2.567,22.5,1.635,10.318,3.735,20.575,2.177,9.535,4.793,18.94,2.61,8.574,5.611,16.961,3.006,7.756,6.37,15.28,3.271,6.785,6.845,13.295,3.452,5.83,7.156,11.363l.275.27q3.452,2.528,6.838,5.229,3.806,2.263,7.54,4.675,4.164,1.99,8.256,4.121,4.518,1.707,8.955,3.546,4.849,1.418,9.614,2.949,5.207,1.128,10.33,2.36,5.578.832,11.068,1.761,5.916.524,11.736,1.14,6.25.208,12.4.5,6.682-.112,13.253-.139,7.034-.439,13.951-.8,7.442-.781,14.757-1.488,7.8-1.125,15.478-2.181,8.185-1.482,16.232-2.892,8.581-1.85,17.011-3.626,9.034-2.239,17.908-4.4c155.66-43.277,276.692-71.041,377.277-66.006,27.6-29.429,54.491-58.694,80.3-86.784,113.959-124.026,206.864-225.133,246.4-216.092,17.556,4.014,24.567,29.306,18.222,83.254-.318,7.57-.988,15.886-2.022,25q-.463,11.487-1.958,25.2-.44,11.559-1.865,25.249-.412,11.756-1.788,25.614-.378,11.791-1.665,25.58-.328,11.995-1.551,25.964-.273,12.05-1.393,25.98-.2,12.192-1.218,26.219-.112,12.34-1.011,26.455,0,12.394-.754,26.487.078,7.776-.114,16.189.422,17.069,1.338,32.772,2.021,27.763,5.28,51.676a58.1,58.1,0,0,0,25.526,12.76c40.167,9.187,98.743-15.862,165.731-59.643v2.517c-67.043,43.629-125.745,68.524-166.219,59.264a60.339,60.339,0,0,1-24.6-11.689l.3,2.095.016.109v.011q.375,2.433.761,4.835a59.919,59.919,0,0,0,31.3,16.984c39.327,8.253,95.065-14.91,158.448-55.552v2.5c-63.424,40.49-119.282,63.51-158.893,55.2a62.018,62.018,0,0,1-30.26-15.5c.345,2.093.7,4.153,1.059,6.2a62.3,62.3,0,0,0,37.2,21.725c38.352,7.29,91.183-14.006,150.9-51.517v2.5c-59.75,37.359-112.685,58.51-151.3,51.17a64.176,64.176,0,0,1-36.06-19.742q.47,2.607.954,5.171c11.24,15.48,25.91,24.147,43.348,27.1,37.237,6.3,87.075-13.151,143.061-47.542v2.488c-56.008,34.236-105.94,53.555-143.42,47.217a66.752,66.752,0,0,1-42.057-24.472c.264,1.324.522,2.651.791,3.955,12.454,19.658,29.378,30.137,49.793,33.138,35.951,5.289,82.713-12.372,134.894-43.648v2.484c-52.2,31.123-99.038,48.657-135.212,43.336-19.462-2.865-35.828-12.291-48.3-29.669.179.843.364,1.663.548,2.5,13.667,24.521,33,36.975,56.59,39.894,34.481,4.269,78.067-11.632,126.37-39.813v2.467c-48.3,28.034-91.959,43.818-126.636,39.527-22.388-2.772-41.029-13.844-54.782-35.258l.137.579c14.9,30.214,36.821,44.836,63.834,47.514,32.8,3.251,73.1-10.937,117.447-36.056v2.468c-44.336,24.969-84.692,39.036-117.662,35.769-24.542-2.436-44.983-14.4-59.925-38.516,16.2,33.679,40.12,49.318,69.5,51.465,30.878,2.256,67.792-10.286,108.089-32.371v2.453c-40.276,21.939-77.225,34.372-108.244,32.107-26.518-1.935-48.7-14.528-64.916-40.947,17.654,36.385,43.47,52.592,74.9,54.016,28.695,1.3,62.092-9.644,98.257-28.749v2.435c-36.13,18.965-69.546,29.808-98.35,28.5-28.638-1.3-52.705-14.508-70.361-43.484,19.312,39.379,47.171,56.149,80.793,56.681,26.226.414,55.977-8.989,87.918-25.185v2.424c-31.9,16.054-61.647,25.364-87.954,24.949-30.964-.491-57.137-14.353-76.423-46.331,21.21,42.871,51.327,60.211,87.319,59.65,23.454-.368,49.422-8.29,77.059-21.659v2.408c-27.577,13.238-53.528,21.073-77.034,21.439-33.42.523-61.865-13.958-82.993-49.268,23.367,46.749,55.883,64.6,94.34,62.715,20.371-1,42.43-7.522,65.686-18.188v2.39c-23.181,10.539-45.2,16.984-65.584,17.986-36.1,1.774-67.042-13.381-90.281-52.676,25.855,51.345,60.956,69.744,102.039,66.247,16.984-1.445,35.006-6.613,53.825-14.726v2.367c-18.729,8-36.685,13.1-53.646,14.546-38.85,3.306-72.427-12.465-98.066-56.215,18.956,37.264,41.842,58.155,67.788,66.5h-6.593c-21.5-8.619-40.79-26.169-57.369-54.854,12.622,24.66,26.543,42.614,41.624,54.854h-3.472c-12.354-10.546-23.915-24.935-34.608-43.716,9.087,17.656,18.624,32.119,28.6,43.716H1863a215.136,215.136,0,0,1-22.425-33.013,297.02,297.02,0,0,0,19.708,33.013h-2.656q-7.483-10.908-14.753-24.1,6.767,13,13.558,24.1h-2.54q-5.987-9.886-11.945-21.191,5.769,11.208,11.445,21.191h-2.506c-21.929-38.825-44.693-90.755-69.473-158.141l-.025-.086c-33.895-121.481-100.588-146.848-179.943-147.279.963.527,1.917,1.077,2.876,1.615,74.5,12.3,138.3,49,179.13,162.8h0c24.876,57.823,46.848,104.391,67.115,141.1h-2.485c-20.176-36.657-42.008-82.954-66.647-140.228l-.023-.066c-39.29-109.564-100.144-147.062-171.372-160.328.445.263.884.547,1.324.811q10.274,3.844,20.276,8.471c58.557,27.2,109.94,76.107,151.8,168.066,24.24,48.594,45.261,89.445,64.114,123.274h-2.5c-18.751-33.7-39.609-74.237-63.592-122.315l-.018-.034c-41.605-91.424-92.616-140.017-150.719-167q-4.478-2.079-9.015-3.991c58.119,37.866,110.243,98.306,161.683,187.847,9.669,16.829,17.184,29.965,24.371,42.526,13.119,22.929,25.115,43.893,36.2,62.969h-2.538c-10.909-18.794-22.695-39.392-35.565-61.879-8.251-14.421-16.954-29.631-24.362-42.526-54.377-94.656-109.559-156.646-171.88-193.719q-7.071-2.617-14.267-4.891-8.4-1.183-16.957-2.008c-6.107.273-12.272.652-18.49,1.1-6.579,1.256-13.222,2.588-19.91,3.951l-9.721,2.981q-5.656,1.738-11.35,3.481-10.874,4.3-21.87,8.546-11.126,5.18-22.339,10.189-11.378,5.919-22.82,11.568-11.358,6.393-22.752,12.44-11.351,6.768-22.706,13.129-11.4,7.1-22.782,13.737-11.334,7.3-22.629,14.09-11.215,7.411-22.381,14.292-11.171,7.538-22.284,14.521-10.938,7.5-21.813,14.453-10.932,7.6-21.786,14.631-11.089,7.8-22.091,14.991-10.751,7.623-21.409,14.66-10.711,7.657-21.33,14.726-10.863,7.817-21.627,15.026c-75.652,54.686-147.714,87.6-208.843,79.2-43.146-5.927-65.591-99.763-86.975-189.156-2.388-9.984-4.761-19.91-7.149-29.653-52.8-7.565-116.42-45.32-178.282-82.041-53.516-31.766-105.713-62.751-148.177-72.565-39.313-9.085-70.823-1.506-96.633,6.166v-2.281c25.946-7.685,57.592-15.159,97.123-6.022,42.8,9.891,95.14,40.962,148.8,72.815,61.356,36.419,124.448,73.865,176.6,81.641l-1.1-4.466c-48.552-10.352-105.588-47.042-161.78-83.193-53.505-34.422-106.249-68.353-149.876-78.393-43.3-9.889-78.765,2.379-107.967,12.477l-1.8.625V1247.9l1.091-.377c29.469-10.191,65.268-22.573,109.168-12.547,44,10.125,96.9,44.159,150.569,78.685,55.638,35.792,112.108,72.116,160.008,82.67l-1.1-4.389c-44.484-12.856-95.4-48.518-146.1-84.04-53.132-37.223-106.035-74.287-150.733-84.522h0c-43.2-9.75-80.139,4.348-111.235,16.219-3.983,1.522-7.872,3.006-11.668,4.4v-2.34c3.547-1.311,7.175-2.7,10.887-4.112,31.378-11.977,68.653-26.205,112.5-16.3h0c45.1,10.328,98.182,47.517,151.493,84.867,50.1,35.1,100.415,70.346,144.226,83.381l-1.095-4.284c-40.613-15.083-85.887-49.793-131.339-84.642-52.39-40.17-105.018-80.523-150.637-90.915v0c-43.184-9.639-81.545,6.213-114.477,19.825-7.465,3.083-14.653,6.057-21.566,8.6v-2.338c6.647-2.465,13.563-5.323,20.732-8.285,33.227-13.733,71.929-29.728,115.788-19.935h0c46.092,10.5,98.909,51,151.485,91.31,44.8,34.352,89.431,68.565,129.342,83.8l-1.084-4.155c-36.971-17.054-77.1-50.9-117.6-85.067-51.242-43.228-103.091-86.966-149.485-97.48v0c-43.221-9.541-82.956,8-117.674,23.322-11.009,4.859-21.516,9.5-31.505,13v-2.324c9.692-3.444,19.919-7.958,30.621-12.683,35.022-15.459,75.105-33.149,119.034-23.449h0c46.924,10.632,98.977,54.543,150.421,97.943,39.8,33.572,79.235,66.834,115.457,83.988q-.532-2.01-1.07-4c-33.577-18.8-69.06-51.908-104.963-85.417-49.7-46.374-100.211-93.518-147.182-104.106v0c-43.318-9.464-84.387,9.7-120.84,26.712-14.6,6.808-28.459,13.279-41.483,17.465v-2.3c12.706-4.15,26.278-10.484,40.554-17.147,36.778-17.161,78.206-36.494,122.233-26.875l.009,0c47.555,10.716,98.291,58.064,148.2,104.643,35.149,32.8,69.889,65.221,102.664,84.049l-1.052-3.821c-30.467-20.36-61.795-52.9-93.495-85.814-47.744-49.582-96.342-100.049-143.654-110.65l0,0c-43.439-9.392-85.812,11.345-123.969,30.019-18.2,8.908-35.453,17.352-51.49,21.891v-2.277c15.682-4.527,32.643-12.829,50.527-21.582,38.486-18.833,81.223-39.749,125.4-30.2l0,0c47.969,10.741,96.8,61.451,144.767,111.267,30.885,32.073,61.415,63.776,91,84.072q-.511-1.813-1.027-3.608c-27.645-21.8-55.3-53.953-83.206-86.405-45.395-52.785-91.478-106.369-138.865-116.919v0c-43.591-9.328-87.241,12.94-127.068,33.254-21.82,11.13-42.5,21.682-61.531,26.219v-2.256c18.627-4.543,39.025-14.948,60.536-25.921,40.154-20.482,84.167-42.935,128.519-33.443l.007,0c48.107,10.7,94.433,64.573,140.067,117.635,27.025,31.425,53.807,62.565,80.48,84.176q-.5-1.69-.995-3.355c-25.119-23.182-49.532-55.182-74.051-87.323-42.666-55.931-85.667-112.294-132.829-122.724v0c-43.771-9.274-88.672,14.478-130.134,36.412-25.448,13.46-49.611,26.244-71.6,30.408v-2.231c21.548-4.182,45.433-16.816,70.578-30.117,41.8-22.111,87.064-46.056,131.613-36.619l.007,0c47.953,10.6,91.2,67.284,134.108,123.535,23.563,30.887,47.026,61.642,71.039,84.46q-.477-1.551-.957-3.076c-22.856-24.567-44.409-56.656-65.907-88.663-39.586-58.941-78.994-117.617-125.613-127.846v0c-43.977-9.222-90.106,15.98-133.169,39.506-29.081,15.889-56.779,31.019-81.7,34.436v-2.208c24.445-3.444,51.865-18.426,80.651-34.149,43.409-23.717,89.908-49.118,134.671-39.729h.009c47.48,10.419,87.136,69.462,126.97,128.774,20.441,30.435,40.93,60.94,62.492,84.892q-.457-1.4-.915-2.783c-20.787-25.978-39.761-58.346-58.526-90.362C769.41,1183.9,734,1123.492,688.244,1113.53h0c-44.2-9.178-91.534,17.438-136.18,42.544-31.416,17.665-61.515,34.59-88.5,37.948-1.115.139-2.222.248-3.326.338v-2.2c1.018-.086,2.033-.186,3.06-.313,26.553-3.305,56.467-20.126,87.691-37.684,44.995-25.3,92.7-52.126,137.706-42.776h.009c46.69,10.166,82.343,70.991,118.773,133.147,17.552,29.947,35.29,60.2,54.484,85.171l-.075-.22q-.409-1.148-.8-2.3c-18.758-27.359-35.3-60.034-51.5-92.037-32.5-64.216-63.63-125.721-108.212-135.346v0c-44.448-9.14-92.973,18.863-139.172,45.526-33.522,19.344-65.834,37.991-94.731,41.432q-3.657.436-7.236.536v-2.2q3.452-.1,6.979-.513c28.468-3.392,60.581-21.925,93.9-41.151,46.556-26.868,95.453-55.086,140.709-45.774h.014c45.6,9.848,76.964,71.809,109.707,136.507,14.894,29.426,30.076,59.423,46.985,85.264l-.57-1.824c-16.868-28.781-31.167-61.938-45.022-94.07-28.6-66.309-55.3-128.233-98.423-137.461v0c-44.7-9.108-94.4,20.255-142.138,48.459-35.606,21.036-70.128,41.433-100.96,44.958a79.159,79.159,0,0,1-11.18.5v-2.2a75.976,75.976,0,0,0,10.932-.484c30.367-3.469,64.693-23.751,100.092-44.665,48.1-28.416,98.171-58,143.7-48.716h.009c44.236,9.466,71.157,71.891,99.983,138.74,12.563,29.131,25.494,59.107,40.347,85.842l-.243-.879c-15.167-30.365-27.432-64.337-39.179-96.882-24.524-67.938-46.792-129.623-88.227-138.406v0c-44.97-9.08-95.831,21.621-145.085,51.349-37.673,22.739-74.414,44.918-107.176,48.523a78.281,78.281,0,0,1-15.153.252v-2.219a74.967,74.967,0,0,0,14.914-.214c32.275-3.551,68.817-25.607,106.281-48.221,49.614-29.947,100.851-60.872,146.659-51.615h.014c42.623,9.035,65.091,71.271,89.833,139.815,10.28,28.477,20.955,58.049,33.613,85.3-13.2-31.607-23.322-65.954-32.913-98.488-20.36-69.056-38.3-129.9-77.838-138.206h0c-45.256-9.062-97.268,22.954-148.027,54.2-39.727,24.454-78.694,48.439-113.389,52.124a77.864,77.864,0,0,1-19.147-.209v-2.233a75,75,0,0,0,18.917.264c34.188-3.633,72.951-27.493,112.469-51.818,51.12-31.464,103.5-63.71,149.6-54.475l.009,0c40.831,8.567,58.946,70.007,79.5,139.737,7.847,26.614,16.052,54.444,26,80.964-10.446-31.4-18.108-64.38-25.305-95.367-16.175-69.639-29.99-129.128-67.5-136.918v0c-45.561-9.044-98.706,24.263-150.944,57-41.778,26.182-82.981,52.006-119.6,55.768a77.971,77.971,0,0,1-23.163-.886Zm1323.28,39.061,0,0m-.082,320.746.007.014m.075-320.76,0,.014" transform="translate(-460.241 -961.402)" fill="#00cc8f" fill-rule="evenodd" opacity="0.25"/>
</svg>
