<svg xmlns="http://www.w3.org/2000/svg" width="68" height="68" viewBox="0 0 68 68">
  <g id="Group_19109" data-name="Group 19109" transform="translate(-272 -3096)">
    <rect id="Rectangle_5096" data-name="Rectangle 5096" width="68" height="68" transform="translate(272 3096)" fill="#1664f7" opacity="0.003"/>
    <g id="Group_19108" data-name="Group 19108" transform="translate(233.15 -159)">
      <path id="Path_99945" data-name="Path 99945" d="M99.769,70.811h-24a.95.95,0,0,1-.95-.95V37.371a.951.951,0,0,1,.95-.95h43.495a.951.951,0,0,1,.95.95v18.9a.95.95,0,1,0,1.9,0v-18.9a2.851,2.851,0,0,0-2.851-2.851H75.772a2.851,2.851,0,0,0-2.851,2.851V69.86a2.851,2.851,0,0,0,2.851,2.851h24a.95.95,0,0,0,0-1.9Z" transform="translate(-30.071 3230.479)" fill="#1664f7" fill-rule="evenodd"/>
      <path id="Path_99946" data-name="Path 99946" d="M155.833,183.158l4.84-3a.95.95,0,0,0-1-1.615l-4.84,3a.95.95,0,0,0,1,1.615Zm9.232-4.655,6.759-.863a.95.95,0,1,0-.241-1.885l-6.759.863a.95.95,0,1,0,.241,1.885Zm11.6-2.038,7.386-2.649a.95.95,0,1,0-.642-1.789l-7.386,2.649a.95.95,0,1,0,.642,1.789Z" transform="translate(-102.684 3107.959)" fill="#1664f7" fill-rule="evenodd"/>
      <path id="Path_99947" data-name="Path 99947" d="M117.007,248.3a3.337,3.337,0,1,0,3.337,3.337A3.338,3.338,0,0,0,117.007,248.3Zm0,1.9a1.436,1.436,0,1,1-1.436,1.436A1.437,1.437,0,0,1,117.007,250.2Z" transform="translate(-66.395 3039.919)" fill="#1664f7" fill-rule="evenodd"/>
      <path id="Path_99948" data-name="Path 99948" d="M202.277,195.53a3.336,3.336,0,1,0,3.337,3.336A3.338,3.338,0,0,0,202.277,195.53Zm0,1.9a1.436,1.436,0,1,1-1.436,1.436A1.437,1.437,0,0,1,202.277,197.431Z" transform="translate(-142.404 3086.958)" fill="#1664f7" fill-rule="evenodd"/>
      <path id="Path_99949" data-name="Path 99949" d="M307.864,179.68a3.336,3.336,0,1,0,3.336,3.336A3.338,3.338,0,0,0,307.864,179.68Zm0,1.9a1.436,1.436,0,1,1-1.436,1.436A1.436,1.436,0,0,1,307.864,181.581Z" transform="translate(-236.522 3101.086)" fill="#1664f7" fill-rule="evenodd"/>
      <path id="Path_99950" data-name="Path 99950" d="M417.884,142.59a3.336,3.336,0,1,0,3.336,3.336A3.338,3.338,0,0,0,417.884,142.59Zm0,1.9a1.436,1.436,0,1,1-1.436,1.436A1.436,1.436,0,0,1,417.884,144.491Z" transform="translate(-334.593 3134.147)" fill="#1664f7" fill-rule="evenodd"/>
      <path id="Path_99951" data-name="Path 99951" d="M108.87,96.461h43.495a.95.95,0,0,0,0-1.9H108.87a.95.95,0,0,0,0,1.9Z" transform="translate(-61.269 3176.961)" fill="#1664f7" fill-rule="evenodd"/>
      <path id="Path_99952" data-name="Path 99952" d="M466.154,64.539H464.5a.95.95,0,1,0,0,1.9h1.655a.95.95,0,0,0,0-1.9Z" transform="translate(-378.272 3203.721)" fill="#1664f7" fill-rule="evenodd"/>
      <path id="Path_99953" data-name="Path 99953" d="M416.707,64.539h-1.655a.95.95,0,0,0,0,1.9h1.655a.95.95,0,1,0,0-1.9Z" transform="translate(-334.196 3203.721)" fill="#1664f7" fill-rule="evenodd"/>
      <path id="Path_99954" data-name="Path 99954" d="M367.254,64.539H365.6a.95.95,0,0,0,0,1.9h1.655a.95.95,0,0,0,0-1.9Z" transform="translate(-290.113 3203.721)" fill="#1664f7" fill-rule="evenodd"/>
      <path id="Path_99955" data-name="Path 99955" d="M515.02,409.65l7.092,7.093a1.208,1.208,0,0,1,0,1.709l-.077.077a1.208,1.208,0,0,1-1.709,0l-6.852-6.852a.95.95,0,1,0-1.344,1.344l6.851,6.851a3.108,3.108,0,0,0,4.4,0l.078-.077a3.11,3.11,0,0,0,0-4.4l-7.093-7.093a.95.95,0,0,0-1.344,1.344Z" transform="translate(-421.329 2897.539)" fill="#1664f7" fill-rule="evenodd"/>
      <path id="Path_99956" data-name="Path 99956" d="M357.066,243.75A12.437,12.437,0,1,0,369.5,256.186,12.442,12.442,0,0,0,357.066,243.75Zm0,1.9a10.536,10.536,0,1,1-10.536,10.536A10.541,10.541,0,0,1,357.066,245.651Z" transform="translate(-272.27 3043.975)" fill="#1664f7" fill-rule="evenodd"/>
      <path id="Path_99957" data-name="Path 99957" d="M390.852,288.343a6.008,6.008,0,1,1-2.036,2.335.951.951,0,1,0-1.706-.84,7.916,7.916,0,1,0,2.677-3.07.95.95,0,1,0,1.065,1.574Z" transform="translate(-309.415 3006.836)" fill="#1664f7" fill-rule="evenodd"/>
    </g>
  </g>
</svg>
