<svg xmlns="http://www.w3.org/2000/svg" width="68" height="68" viewBox="0 0 68 68">
  <g id="Group_19105" data-name="Group 19105" transform="translate(-284 -2828)">
    <rect id="Rectangle_5091" data-name="Rectangle 5091" width="68" height="68" transform="translate(284 2828)" fill="#1664f7" opacity="0"/>
    <g id="noun-security-5178198" transform="translate(172.159 2801)">
      <path id="Path_99931" data-name="Path 99931" d="M168.346,40.334c-11.089-.534-17.725-2.606-22.121-5.109a1.659,1.659,0,0,0-1.668,0c-4.4,2.5-11.033,4.574-22.121,5.109a1.673,1.673,0,0,0-1.593,1.65c0,19.947.394,37.287,23.986,45.415a1.777,1.777,0,0,0,1.125,0c23.584-8.127,23.977-25.477,23.986-45.415a1.659,1.659,0,0,0-1.593-1.65ZM145.39,83.63c-19.15-6.88-20.706-19.656-20.79-39.669,8.717-.59,15.55-2.2,20.79-4.921,5.249,2.718,12.073,4.34,20.79,4.921-.085,20-1.64,32.788-20.79,39.659Z" transform="translate(0 0)" fill="#1664f7"/>
      <path id="Path_99932" data-name="Path 99932" d="M219.373,144.484V146.7a1.541,1.541,0,0,0-1.406,1.537v2.934h-4.48a1.856,1.856,0,0,0-1.612-.937,1.875,1.875,0,1,0,0,3.749,1.845,1.845,0,0,0,1.612-.937h4.48v3.009a1.56,1.56,0,0,0,1.565,1.556h.778v3.871h-3.074a1.856,1.856,0,0,0-1.612-.937,1.875,1.875,0,1,0,0,3.749,1.845,1.845,0,0,0,1.612-.937h3.074a1.88,1.88,0,0,0,1.875-1.875v-3.871h1.875v6.946a1.856,1.856,0,0,0-.937,1.612,1.875,1.875,0,1,0,3.749,0,1.845,1.845,0,0,0-.937-1.612v-6.946h1.875v3.871a1.88,1.88,0,0,0,1.875,1.875h3.074a1.856,1.856,0,0,0,1.612.937,1.875,1.875,0,1,0,0-3.749,1.845,1.845,0,0,0-1.612.937h-3.074v-3.871h.778a1.56,1.56,0,0,0,1.565-1.556v-3.009h4.48a1.856,1.856,0,0,0,1.612.937,1.875,1.875,0,1,0,0-3.749,1.845,1.845,0,0,0-1.612.937h-4.48v-2.934a1.541,1.541,0,0,0-1.406-1.537v-2.212a5.624,5.624,0,1,0-11.248,0Zm6.561,8.474v.75a.937.937,0,1,1-1.875,0v-.75a1.715,1.715,0,1,1,1.875,0Zm2.812-8.474v2.194h-7.5v-2.194a3.749,3.749,0,0,1,7.5,0Z" transform="translate(-79.608 -92.734)" fill="#1664f7"/>
    </g>
  </g>
</svg>
