<svg id="Group_19101" data-name="Group 19101" xmlns="http://www.w3.org/2000/svg" width="68" height="68" viewBox="0 0 68 68">
  <rect id="Rectangle_5089" data-name="Rectangle 5089" width="68" height="68" fill="#1664f7" opacity="0"/>
  <g id="Group_19100" data-name="Group 19100" transform="translate(7 7)">
    <path id="Path_99914" data-name="Path 99914" d="M246.418,182a2.816,2.816,0,1,0,2.817,2.816A2.839,2.839,0,0,0,246.418,182Z" transform="translate(-228.188 -165.697)" fill="#1664f7"/>
    <path id="Path_99915" data-name="Path 99915" d="M406.014,182a2.816,2.816,0,1,0,2.816,2.816A2.839,2.839,0,0,0,406.014,182Z" transform="translate(-370.888 -165.697)" fill="#1664f7"/>
    <path id="Path_99916" data-name="Path 99916" d="M124.678,28a26.678,26.678,0,1,0,26.678,26.678A26.7,26.7,0,0,0,124.678,28Zm0,3.261a23.418,23.418,0,1,1-23.418,23.418,23.378,23.378,0,0,1,23.418-23.418Z" transform="translate(-98 -28)" fill="#1664f7"/>
    <path id="Path_99917" data-name="Path 99917" d="M251.96,338.115a1.615,1.615,0,0,0-1.315-2.649,1.811,1.811,0,0,0-1.371.871,12.489,12.489,0,0,1-20.157,0,1.813,1.813,0,0,0-1.371-.871,1.615,1.615,0,0,0-1.315,2.649,15.649,15.649,0,0,0,25.529,0Z" transform="translate(-212.517 -302.914)" fill="#1664f7"/>
  </g>
</svg>
