<svg xmlns="http://www.w3.org/2000/svg" width="68" height="68" viewBox="0 0 68 68">
  <g id="Group_19112" data-name="Group 19112" transform="translate(-1015 -3096)">
    <rect id="Rectangle_5094" data-name="Rectangle 5094" width="68" height="68" transform="translate(1015 3096)" fill="#1664f7" opacity="0"/>
    <g id="Group_19111" data-name="Group 19111" transform="translate(-120.588 -384)">
      <path id="Path_99958" data-name="Path 99958" d="M159.744,59.611a.888.888,0,0,0-1.042-.819l-10.838,1.936a.887.887,0,0,0-.731.873,15.591,15.591,0,1,1-15.591-15.591.888.888,0,0,0,.876-.746L134.2,34.271a.888.888,0,0,0-.822-1.027l-5.836-.359h0a.887.887,0,0,0-.938.8l-.508,5.4h0a23.27,23.27,0,0,0-6.6,2.687L115.284,38.3a.888.888,0,0,0-1.192.057L108.3,44.151a.887.887,0,0,0-.057,1.192l3.47,4.21a22.638,22.638,0,0,0-2.687,6.6l-5.4.507a.891.891,0,0,0-.808.884v8.166a.891.891,0,0,0,.808.883l5.406.508a23.267,23.267,0,0,0,2.686,6.6l-3.471,4.213A.887.887,0,0,0,108.3,79.1l5.58,5.58h0a.887.887,0,0,0,1.192.057l4.213-3.472a23.269,23.269,0,0,0,6.6,2.686l.508,5.408a.891.891,0,0,0,.884.808h8.166a.891.891,0,0,0,.884-.808l.507-5.4a22.648,22.648,0,0,0,6.6-2.688l4.21,3.47a.887.887,0,0,0,1.192-.057l5.788-5.788a.887.887,0,0,0,.057-1.192l-3.472-4.213a23.277,23.277,0,0,0,2.686-6.6l5.4-.508a.887.887,0,0,0,.8-.938Zm-6.658,5.575a.887.887,0,0,0-.786.7,21.53,21.53,0,0,1-2.929,7.2.887.887,0,0,0,.063,1.041l3.364,4.081-4.648,4.648-4.082-3.364h0a.887.887,0,0,0-1.045-.061,20.886,20.886,0,0,1-7.19,2.926.892.892,0,0,0-.707.79l-.491,5.246h-6.55l-.493-5.246a.889.889,0,0,0-.7-.788,21.522,21.522,0,0,1-7.2-2.929.887.887,0,0,0-1.041.063l-4.082,3.364-4.44-4.441,3.364-4.082a.888.888,0,0,0,.063-1.041,21.52,21.52,0,0,1-2.928-7.2.892.892,0,0,0-.79-.7l-5.247-.492v-6.55l5.247-.493a.89.89,0,0,0,.789-.707,20.88,20.88,0,0,1,2.927-7.19.888.888,0,0,0-.061-1.045l-3.364-4.081,4.649-4.649,4.081,3.364h0a.887.887,0,0,0,1.041.063,21.521,21.521,0,0,1,7.2-2.929.887.887,0,0,0,.7-.786l.488-5.191,4,.247-1.5,9.3a17.366,17.366,0,1,0,18.109,18.095l9.141-1.632.244,3.984Z" transform="translate(1037.772 3452.117)" fill="#1664f7"/>
      <path id="Path_99959" data-name="Path 99959" d="M263.1,67.907a21.631,21.631,0,0,0-4.228,3.29l-6.562,6.562a5.674,5.674,0,0,0-.015,7.987,5.611,5.611,0,0,0,4,1.68h.012a5.624,5.624,0,0,0,4-1.664l6.573-6.577a21.68,21.68,0,0,0,3.273-4.2l1.335-2.239a2.419,2.419,0,0,0,1.042.232h0a2.421,2.421,0,0,0,1.727-.711l1.971-1.969a.886.886,0,0,0,0-1.256l-1.881-1.867,11.008-11.008h0a.88.88,0,0,0,.133-.17l3.316-5.516a.888.888,0,0,0-1.218-1.218l-5.516,3.316a.881.881,0,0,0-.17.133l-11.02,11.02L269,61.858a.887.887,0,0,0-1.253,0l-1.926,1.925a2.448,2.448,0,0,0-.471,2.787Zm2.523,10.018-6.573,6.582a3.86,3.86,0,0,1-2.742,1.144H256.3a3.889,3.889,0,0,1-2.734-6.633l6.561-6.563a19.847,19.847,0,0,1,3.881-3.021l2.5-1.491,3.607,3.634-1.49,2.494h0a19.859,19.859,0,0,1-3,3.855ZM283.08,54.041l2.369-1.424-1.425,2.369L273.09,65.922l-.948-.942Zm-16.009,11,1.3-1.3,4.015,3.985h0a.967.967,0,0,0,.072.083.928.928,0,0,0,.087.076l1.8,1.79-1.341,1.337h0a.659.659,0,0,1-.472.191h0a.659.659,0,0,1-.473-.193l-4.991-5.026a.666.666,0,0,1,0-.941Z" transform="translate(907.06 3437.75)" fill="#1664f7"/>
      <path id="Path_99960" data-name="Path 99960" d="M310.135,248.926l-9.591,9.591a.887.887,0,1,0,1.255,1.255l9.591-9.591a.887.887,0,0,0-1.255-1.255Z" transform="translate(863.189 3261.342)" fill="#1664f7"/>
      <path id="Path_99961" data-name="Path 99961" d="M294.369,231.908a.888.888,0,0,0-1.255,0l-9.591,9.591a.887.887,0,0,0,1.255,1.255l9.591-9.591a.888.888,0,0,0,0-1.255Z" transform="translate(878.237 3276.388)" fill="#1664f7"/>
    </g>
  </g>
</svg>
