<svg xmlns="http://www.w3.org/2000/svg" width="42.331" height="45.491" viewBox="0 0 42.331 45.491">
  <path id="Path_105588" data-name="Path 105588" d="M129.654,38.561,126,42.825a.686.686,0,0,1-.505.236h-.009a.691.691,0,0,1-.505-.224l-2.059-2.3a.676.676,0,1,1,1.006-.9l1.546,1.723,3.154-3.68a.677.677,0,0,1,1.029.88Zm-3.376,6.925a5.232,5.232,0,1,0-5.231-5.232A5.239,5.239,0,0,0,126.278,45.486Zm0-11.816a6.583,6.583,0,1,0,6.585,6.583A6.588,6.588,0,0,0,126.278,33.67Zm0,14.294a7.711,7.711,0,1,0-7.71-7.711A7.721,7.721,0,0,0,126.278,47.964Zm-10.186-6.022V19.157H122V32.265a9.065,9.065,0,0,0-4.785,7.987,9.242,9.242,0,0,0,.157,1.689Zm16.775-28.2V34.034a9.05,9.05,0,0,0-5.91-2.818V13.74Zm1.35,22.142V13.064a.675.675,0,0,0-.675-.675h-7.264a.678.678,0,0,0-.675.675V31.215a9,9,0,0,0-2.25.459V18.48a.675.675,0,0,0-.675-.676h-7.26a.675.675,0,0,0-.675.676V42.616a.674.674,0,0,0,.675.676h2.327a9.061,9.061,0,1,0,16.473-7.411ZM94.4,21.431a.884.884,0,0,0,.089.688.911.911,0,0,0,1.24.333l21.1-12.183a.675.675,0,0,1,.989.76l-.62,2.31a.914.914,0,0,0,.641,1.112.929.929,0,0,0,.237.031.908.908,0,0,0,.874-.674l1.567-5.84a.91.91,0,0,0-.641-1.112l-6.168-1.65a.908.908,0,1,0-.472,1.753l2.31.62a.675.675,0,0,1,.165,1.237L94.818,20.879a.906.906,0,0,0-.421.552Zm.879,2.493a2.253,2.253,0,0,0,1.124-.3l19.688-11.368-.2.736a2.26,2.26,0,0,0,2.182,2.844,2.268,2.268,0,0,0,2.183-1.675L121.82,8.32a2.262,2.262,0,0,0-1.6-2.768L114.054,3.9a2.259,2.259,0,0,0-1.168,4.364l.734.2L94.142,19.708a2.26,2.26,0,0,0-.828,3.087,2.274,2.274,0,0,0,1.962,1.129Zm15.861,18.018h-5.909V24.574h5.91V41.942Zm.676-18.719a.675.675,0,0,1,.675.675V42.617a.674.674,0,0,1-.675.676h-7.26a.674.674,0,0,1-.675-.676V23.9a.674.674,0,0,1,.675-.675ZM100.273,41.942h-5.91V29.99h5.91Zm.675-13.3h-7.26a.675.675,0,0,0-.675.676v13.3a.674.674,0,0,0,.675.676h7.26a.674.674,0,0,0,.675-.676v-13.3a.675.675,0,0,0-.675-.676Z" transform="translate(-93.011 -3.823)" fill="#1664f7" fill-rule="evenodd"/>
</svg>
