<svg id="Group_21234" data-name="Group 21234" xmlns="http://www.w3.org/2000/svg" width="46.129" height="51.699" viewBox="0 0 46.129 51.699">
  <path id="Subtraction_1" data-name="Subtraction 1" d="M24.946,46.129h-3.76a1,1,0,0,1-.715-.3l-.593-.593,1.28-1.578.446.446h2.924l.578-.578V40.076a1.01,1.01,0,0,1,.833-1,16.072,16.072,0,0,0,6.419-2.661,1.01,1.01,0,0,1,1.293.114l2.445,2.445h.817l2.068-2.068v-.817l-2.445-2.445a1.01,1.01,0,0,1-.114-1.293,16.06,16.06,0,0,0,2.661-6.419,1.011,1.011,0,0,1,1-.834H43.53l.578-.578V21.6l-.578-.578H40.075a1.011,1.011,0,0,1-1-.833,16.074,16.074,0,0,0-2.661-6.419,1.01,1.01,0,0,1,.115-1.293l2.445-2.445V9.219L36.91,7.151h-.816L33.649,9.6a1.011,1.011,0,0,1-1.293.115,16.062,16.062,0,0,0-6.419-2.662,1.011,1.011,0,0,1-.834-1V2.6l-.577-.578H21.6l-.577.578V6.053a1.01,1.01,0,0,1-.833,1A16.081,16.081,0,0,0,13.773,9.71,1.011,1.011,0,0,1,12.48,9.6L10.035,7.15H9.219L7.151,9.218v.816L9.6,12.479a1.01,1.01,0,0,1,.115,1.293,16.062,16.062,0,0,0-2.662,6.419,1.011,1.011,0,0,1-1,.834H2.6l-.578.578v2.924L2.6,25.1H6.053a1.011,1.011,0,0,1,1,.833,16.083,16.083,0,0,0,2.662,6.419A1.01,1.01,0,0,1,9.6,33.649L7.151,36.093v.816l2.068,2.068h.816l2.445-2.445a1.011,1.011,0,0,1,1.264-.133l-.475,2.2-2.1,2.1a1,1,0,0,1-.715.3H8.8a1,1,0,0,1-.715-.3l-2.66-2.66a1,1,0,0,1-.3-.715V35.674a1.017,1.017,0,0,1,.3-.714L7.583,32.8a18.065,18.065,0,0,1-2.355-5.679H2.181a1,1,0,0,1-.715-.3L.3,25.66a1,1,0,0,1-.3-.715V21.183a1.007,1.007,0,0,1,.3-.715L1.465,19.3a1,1,0,0,1,.715-.3H5.226a18.073,18.073,0,0,1,2.355-5.679L5.425,11.168a1,1,0,0,1-.3-.715V8.8a1,1,0,0,1,.3-.715l2.66-2.66a1,1,0,0,1,.715-.3h1.654a1,1,0,0,1,.715.3l2.156,2.156A18.056,18.056,0,0,1,19,5.227V2.18a1,1,0,0,1,.3-.715L20.469.3a1,1,0,0,1,.715-.3h3.762a1.007,1.007,0,0,1,.715.3l1.17,1.168a1,1,0,0,1,.3.715V5.226A18.084,18.084,0,0,1,32.8,7.581l2.156-2.156a1.015,1.015,0,0,1,.714-.3H37.33a1,1,0,0,1,.715.3l2.66,2.66A1,1,0,0,1,41,8.8v1.654a1,1,0,0,1-.3.715l-2.156,2.156A18.07,18.07,0,0,1,40.9,19h3.046a1,1,0,0,1,.715.3l1.169,1.169a1.007,1.007,0,0,1,.3.715v3.76a1,1,0,0,1-.3.715l-1.169,1.17a1,1,0,0,1-.715.3H40.9A18.07,18.07,0,0,1,38.548,32.8L40.7,34.96a1.015,1.015,0,0,1,.3.714v1.654a1,1,0,0,1-.3.715L38.044,40.7a1.007,1.007,0,0,1-.715.3H35.675a1.006,1.006,0,0,1-.715-.3L32.8,38.546A18.066,18.066,0,0,1,27.126,40.9v3.047a1,1,0,0,1-.3.715l-1.169,1.17A1,1,0,0,1,24.946,46.129Zm4.1-12.287H25.332s.056-.294.132-.752A10.318,10.318,0,1,0,15.185,29.7l-.513,2.385a12.323,12.323,0,1,1,14.377,1.754Z" transform="translate(0 0)" fill="#1664f7"/>
  <path id="Path_105438" data-name="Path 105438" d="M225.523,90.406a.795.795,0,0,1-.795-.958l2.134-10.116h-4.22a.795.795,0,0,1-.767-1.009l5.217-18.712a.794.794,0,0,1,.767-.58h10.331a.795.795,0,0,1,.7,1.192l-6.167,11.309h6.509a.795.795,0,0,1,.624,1.287L226.147,90.1a.8.8,0,0,1-.624.3Zm-1.832-12.664h4.169a.795.795,0,0,1,.795.958L227,86.476l10.593-13.355h-6.207a.795.795,0,0,1-.7-1.192L236.856,60.6h-8.392Z" transform="translate(-210.229 -38.707)" fill="#1664f7"/>
</svg>
