<svg xmlns="http://www.w3.org/2000/svg" width="42" height="42" viewBox="0 0 42 42">
  <g id="Group_20140" data-name="Group 20140" transform="translate(-486 -1204)">
    <g id="Ellipse_878" data-name="Ellipse 878" transform="translate(486 1204)" fill="#fff" stroke="#1c1398" stroke-width="1">
      <circle cx="21" cy="21" r="21" stroke="none"/>
      <circle cx="21" cy="21" r="20.5" fill="none"/>
    </g>
    <path id="Path_104962" data-name="Path 104962" d="M-32.661-34.94v-5.45a1.636,1.636,0,0,1,.528-1.225,1.791,1.791,0,0,1,1.289-.507,1.669,1.669,0,0,1,1.225.507,1.669,1.669,0,0,1,.507,1.225v5.45h5.45a1.782,1.782,0,0,1,1.278.518,1.678,1.678,0,0,1,.539,1.257,1.678,1.678,0,0,1-.539,1.257,1.782,1.782,0,0,1-1.278.518H-29.07v5.45a1.736,1.736,0,0,1-.539,1.289,1.764,1.764,0,0,1-1.278.528,1.694,1.694,0,0,1-1.257-.528,1.772,1.772,0,0,1-.518-1.289v-5.45h-5.45a1.722,1.722,0,0,1-1.246-.518,1.694,1.694,0,0,1-.528-1.257,1.7,1.7,0,0,1,.528-1.246,1.7,1.7,0,0,1,1.246-.528Z" transform="translate(537.846 1258.082)" fill="#1664f7"/>
  </g>
</svg>
