<svg xmlns="http://www.w3.org/2000/svg" width="120" height="210" viewBox="0 0 120 210">
  <g id="Group_20970" data-name="Group 20970" transform="translate(-8570 -8446)">
    <line id="Line_4845" data-name="Line 4845" y2="199" transform="translate(8630 8451.5)" fill="none" stroke="#1664f7" stroke-width="1.5"/>
    <circle id="Ellipse_932" data-name="Ellipse 932" cx="5" cy="5" r="5" transform="translate(8625 8646)" fill="#1664f7"/>
    <circle id="Ellipse_936" data-name="Ellipse 936" cx="5" cy="5" r="5" transform="translate(8606 8610)" fill="#1664f7"/>
    <circle id="Ellipse_933" data-name="Ellipse 933" cx="5" cy="5" r="5" transform="translate(8642 8610)" fill="#1664f7"/>
    <circle id="Ellipse_935" data-name="Ellipse 935" cx="5" cy="5" r="5" transform="translate(8570 8493)" fill="#1664f7"/>
    <circle id="Ellipse_934" data-name="Ellipse 934" cx="5" cy="5" r="5" transform="translate(8680 8493)" fill="#1664f7"/>
    <circle id="Ellipse_931" data-name="Ellipse 931" cx="5" cy="5" r="5" transform="translate(8625 8446)" fill="#1664f7"/>
    <path id="Path_105350" data-name="Path 105350" d="M8852.155,2341h16.832s19.336-.791,19.236,23.254,0,93.777,0,93.777" transform="translate(-277 6157)" fill="none" stroke="#1664f7" stroke-width="1.5"/>
    <path id="Path_105349" data-name="Path 105349" d="M8888.224,2341h-16.832s-19.336-.791-19.236,23.254,0,93.777,0,93.777" transform="translate(-205.155 6157)" fill="none" stroke="#1664f7" stroke-width="1.5"/>
  </g>
</svg>
