<svg xmlns="http://www.w3.org/2000/svg" width="60" height="60" viewBox="0 0 60 60">
  <g id="Group_21123" data-name="Group 21123" transform="translate(-250 -2090)">
    <rect id="Rectangle_6360" data-name="Rectangle 6360" width="60" height="60" transform="translate(250 2090)" fill="#fff" opacity="0"/>
    <g id="Group_19264" data-name="Group 19264" transform="translate(-29.547 1806.286)">
      <path id="Path_100019" data-name="Path 100019" d="M108.392,318.8a1.312,1.312,0,0,0-2.007,1.686c.88,1.053,2.7,3.745.622,6.321a5.874,5.874,0,0,1-3.914,2.044c-3.187.348-7.3,1.18-9.709,3.161-.869-4.041.4-7.375,3.867-10.146h0a1.312,1.312,0,0,0-.337-2.239,8.919,8.919,0,0,0-3.356-.527c.811-1.543,2.2-3.419,4.1-3.945,1.428-.379,3.061.095,4.852,1.4a1.312,1.312,0,0,0,1.544-2.107c-2.46-1.8-4.836-2.413-7.054-1.823-3.4.9-5.421,4.378-6.322,6.374a2.007,2.007,0,0,0,2.207,2.8,5.385,5.385,0,0,1,.7-.084,12.058,12.058,0,0,0-2.465,12.005,2,2,0,0,0,1.923,1.454h.063a2,2,0,0,0,1.454-.69c1.275-1.448,4.488-2.55,8.818-3.024h0a8.43,8.43,0,0,0,5.668-3,6.506,6.506,0,0,0,1.3-6.021,9.892,9.892,0,0,0-1.96-3.635Z" transform="translate(195.043 4.166)" fill="#1664f7"/>
      <path id="Path_100020" data-name="Path 100020" d="M373.691,118.89a6.053,6.053,0,1,0,4.283,1.776A6.054,6.054,0,0,0,373.691,118.89Zm2.429,8.481a3.441,3.441,0,1,1,0,.006Z" transform="translate(-56.022 179.475)" fill="#1664f7"/>
      <path id="Path_100021" data-name="Path 100021" d="M218.575,5.722a36.412,36.412,0,0,0-20.445,4.873,32.1,32.1,0,0,0-6.738,5.173l-1.849-.105a7.655,7.655,0,0,0-5.795,2.228l-3.84,3.84a1.707,1.707,0,0,0,.553,2.787l4.983,2.07a35.863,35.863,0,0,0-1.285,4.351l-.232,1.053h0a1.313,1.313,0,0,0,.353,1.206l8.012,8.049a1.311,1.311,0,0,0,1.206.353l1.053-.232h0a35.977,35.977,0,0,0,4.367-1.259l2.06,4.963a1.707,1.707,0,0,0,2.787.527l3.84-3.84h0a7.655,7.655,0,0,0,2.228-5.795l-.095-1.849a32.1,32.1,0,0,0,5.2-6.711,36.421,36.421,0,0,0,4.868-20.445,1.312,1.312,0,0,0-1.238-1.238Zm-5.842,20.265a28.281,28.281,0,0,1-5.162,6.611l-.053.047h0a1.309,1.309,0,0,0-.4.811,1.29,1.29,0,0,0,0,.232l.126,2.439h0a5.032,5.032,0,0,1-1.464,3.809L202.9,42.812l-2.018-4.867h0a1.306,1.306,0,0,0-1.691-.716,34.134,34.134,0,0,1-5.173,1.58l-.358.079-7.017-7.017.079-.358a34.156,34.156,0,0,1,1.581-5.168,1.311,1.311,0,0,0-.717-1.691l-4.867-2.018L185.6,19.76h0a5.033,5.033,0,0,1,3.814-1.464l2.46.126a1.313,1.313,0,0,0,1.054-.458,27.784,27.784,0,0,1,6.522-5.1,33.714,33.714,0,0,1,17.8-4.572,33.716,33.716,0,0,1-4.509,17.7Z" transform="translate(114.503 282.055)" fill="#1664f7"/>
    </g>
  </g>
</svg>
