<svg xmlns="http://www.w3.org/2000/svg" width="60" height="60" viewBox="0 0 60 60">
  <g id="Group_21122" data-name="Group 21122" transform="translate(-653 -2090)">
    <rect id="Rectangle_6359" data-name="Rectangle 6359" width="60" height="60" transform="translate(653 2090)" fill="#fff" opacity="0"/>
    <g id="Group_19324" data-name="Group 19324" transform="translate(540.599 -728.905)">
      <path id="Path_100035" data-name="Path 100035" d="M171.337,56.875H128.222a1.347,1.347,0,0,0-1.347,1.347v43.115a1.347,1.347,0,0,0,1.347,1.347h43.115a1.347,1.347,0,0,0,1.347-1.347V58.222A1.347,1.347,0,0,0,171.337,56.875ZM169.99,59.57v8.084H129.57V59.57ZM129.57,99.99V70.348h40.42V99.99Z" transform="translate(-7.474 2770.125)" fill="#1664f7"/>
      <path id="Path_100036" data-name="Path 100036" d="M381.024,111.683a1.343,1.343,0,0,0,.44.3,1.4,1.4,0,0,0,.512.1,1.361,1.361,0,0,0,1.248-.836,1.4,1.4,0,0,0,.1-.511,1.214,1.214,0,0,0-.027-.261,2.035,2.035,0,0,0-.072-.251,1.434,1.434,0,0,0-.126-.233,1.4,1.4,0,0,0-.377-.376,1.437,1.437,0,0,0-.233-.127,2.093,2.093,0,0,0-.251-.071,1.343,1.343,0,0,0-1.213.367,1.37,1.37,0,0,0-.171.207,1.439,1.439,0,0,0-.126.233,2.1,2.1,0,0,0-.072.251,1.214,1.214,0,0,0-.027.261,1.4,1.4,0,0,0,.1.511,1.355,1.355,0,0,0,.3.441Z" transform="translate(-235.179 2723.006)" fill="#1664f7"/>
      <path id="Path_100037" data-name="Path 100037" d="M440.195,110.722a1.347,1.347,0,1,1-1.347-1.347,1.347,1.347,0,0,1,1.347,1.347" transform="translate(-286.212 2723.014)" fill="#1664f7"/>
      <path id="Path_100038" data-name="Path 100038" d="M495.209,111.979a1.378,1.378,0,0,0,1.024,0,1.361,1.361,0,0,0,.836-1.248,1.21,1.21,0,0,0-.027-.261,1.149,1.149,0,0,0-.081-.251.939.939,0,0,0-.117-.233,1.289,1.289,0,0,0-.171-.207,1.871,1.871,0,0,0-.206-.17,1.972,1.972,0,0,0-.233-.127,2.092,2.092,0,0,0-.251-.071,1.267,1.267,0,0,0-.521,0,2.223,2.223,0,0,0-.251.071,1.934,1.934,0,0,0-.233.127,1.352,1.352,0,0,0-.206.17,1.367,1.367,0,0,0-.171.207,1.437,1.437,0,0,0-.126.233,2.092,2.092,0,0,0-.072.251,1.156,1.156,0,0,0-.028.26,1.346,1.346,0,0,0,.4.952,1.361,1.361,0,0,0,.44.3Z" transform="translate(-337.247 2723.006)" fill="#1664f7"/>
      <path id="Path_100039" data-name="Path 100039" d="M229.882,240.62H211.019a5.389,5.389,0,1,0,0,10.779H222.7v6.737a1.347,1.347,0,0,0,1.885,1.235l2.583-1.126.769,2.237a1.348,1.348,0,0,0,1.274.91,1.346,1.346,0,0,0,1.274-1.784l-.839-2.44,1.9-.828a1.348,1.348,0,0,0,.464-2.136l-2.521-2.8h.4a5.389,5.389,0,1,0,0-10.779Zm-1.128,13.994-3.363,1.465V251.4h.473Zm1.128-5.91h-2.816l-2.02-2.248a1.348,1.348,0,0,0-2.35.9V248.7H211.019a2.695,2.695,0,0,1,0-5.389h18.863a2.695,2.695,0,0,1,0,5.389Z" transform="translate(-78.144 2605.243)" fill="#1664f7"/>
    </g>
  </g>
</svg>
