<svg xmlns="http://www.w3.org/2000/svg" width="60" height="60" viewBox="0 0 60 60">
  <g id="Group_21121" data-name="Group 21121" transform="translate(-750 -2090)">
    <rect id="Rectangle_6361" data-name="Rectangle 6361" width="60" height="60" transform="translate(750 2090)" fill="#fff" opacity="0"/>
    <g id="Group_21120" data-name="Group 21120" transform="translate(-9609.054 -2418.585)">
      <path id="Path_105493" data-name="Path 105493" d="M168.63,279.865h-2.176V257.7a.54.54,0,0,0-.54-.54h-7.747a.54.54,0,0,0-.54.54v22.167h-5.662V262.472a.54.54,0,0,0-.54-.54h-7.747a.54.54,0,0,0-.54.54v17.393h-5.647v-12.62a.54.54,0,0,0-.54-.54h-7.746a.54.54,0,0,0-.54.54v12.619h-2.128a.54.54,0,1,0,0,1.08h42.091a.54.54,0,1,0,0-1.08Zm-9.923-21.629h6.667v21.629h-6.667Zm-14.489,4.774h6.667v16.854h-6.667Zm-14.473,4.774h6.667v12.08h-6.667Z" transform="translate(10241.469 4280.225)" fill="#1664f7" stroke="#1664f7" stroke-width="1.3"/>
      <path id="Path_105494" data-name="Path 105494" d="M266.826,62.6a.541.541,0,0,0-.349-.389l-17.84-6.171a.54.54,0,0,0-.687.687l6.171,17.84a.539.539,0,0,0,.891.2l3.328-3.328,4.08,4.08a.54.54,0,0,0,.763,0l4.25-4.25a.539.539,0,0,0,0-.763l-4.08-4.08,3.327-3.327a.54.54,0,0,0,.144-.5Zm-4.616,3.449a.539.539,0,0,0,0,.763l4.08,4.08L262.8,74.375l-4.08-4.08a.539.539,0,0,0-.763,0l-3.1,3.1-5.527-15.976,15.976,5.527Z" transform="translate(10131.297 4461.995)" fill="#1664f7" stroke="#1664f7" stroke-width="1.3"/>
    </g>
  </g>
</svg>
